<svg width="20" height="20" viewBox="0 0 20 20" fill="none" xmlns="http://www.w3.org/2000/svg">
<g id="chart-mixed-up-circle-dollar 1" clip-path="url(#clip0_907_11645)">
<path id="Vector" d="M15.0002 10C12.2385 10 10.0002 12.2383 10.0002 15C10.0002 17.7617 12.2385 20 15.0002 20C17.7619 20 20.0002 17.7617 20.0002 15C20.0002 12.2383 17.7619 10 15.0002 10ZM17.751 16.6125C17.6235 17.5125 16.8277 18.1667 15.9185 18.1667H15.6852V18.5067C15.6852 18.8708 15.391 19.1667 15.0269 19.1667H15.0102C14.6469 19.1667 14.3527 18.87 14.3527 18.5067V18.1667H14.186C13.5935 18.1667 13.0627 17.8958 12.711 17.4725C12.3627 17.0525 12.6585 16.4175 13.2044 16.4175C13.3935 16.4175 13.6294 16.5067 13.7577 16.6458C13.8644 16.7617 14.0177 16.8342 14.1869 16.8342H15.9394C16.171 16.8342 16.3827 16.6783 16.4277 16.4508C16.4802 16.1858 16.306 15.9383 16.0519 15.8867L13.726 15.4208C12.7994 15.235 12.1527 14.3533 12.2885 13.3883C12.4152 12.4883 13.2119 11.8333 14.121 11.8333H14.3544V11.5C14.3544 11.1317 14.6527 10.8333 15.021 10.8333C15.3894 10.8333 15.6877 11.1317 15.6877 11.5V11.8333H15.8544C16.4469 11.8333 16.9777 12.1033 17.3294 12.5275C17.6777 12.9475 17.3819 13.5825 16.836 13.5825C16.6469 13.5825 16.411 13.4933 16.2827 13.3542C16.176 13.2383 16.0227 13.1658 15.8535 13.1658H14.1019C13.8702 13.1658 13.6585 13.3208 13.6127 13.5475C13.5594 13.8125 13.7344 14.0617 13.9869 14.1125L16.3135 14.5783C17.2402 14.7633 17.8877 15.6467 17.751 16.6108V16.6125ZM20.0002 1.66667V5C20.0002 5.46 19.6277 5.83333 19.1669 5.83333C18.706 5.83333 18.3335 5.46 18.3335 5V2.845L14.9485 6.23C13.8285 7.35 12.006 7.35083 10.886 6.23L8.77021 4.115C8.30021 3.645 7.53437 3.645 7.06354 4.115L1.42271 9.75583C1.26021 9.91833 1.04688 10 0.833542 10C0.620208 10 0.406875 9.91833 0.244375 9.75583C-0.0814583 9.43 -0.0814583 8.90333 0.244375 8.5775L5.88521 2.93667C7.00521 1.81583 8.82854 1.81583 9.94854 2.93667L12.0644 5.05167C12.5352 5.52333 13.301 5.52083 13.7702 5.05167L17.1552 1.66667H15.0002C14.5394 1.66667 14.1669 1.29333 14.1669 0.833333C14.1669 0.373333 14.5394 0 15.0002 0H18.3335C19.2527 0 20.0002 0.7475 20.0002 1.66667ZM2.50021 12.5V19.1667C2.50021 19.6275 2.12687 20 1.66688 20C1.20688 20 0.833542 19.6275 0.833542 19.1667V12.5C0.833542 12.0392 1.20688 11.6667 1.66688 11.6667C2.12687 11.6667 2.50021 12.0392 2.50021 12.5ZM6.66687 8.75V19.1667C6.66687 19.6275 6.29354 20 5.83354 20C5.37354 20 5.00021 19.6275 5.00021 19.1667V8.75C5.00021 8.29 5.37354 7.91667 5.83354 7.91667C6.29354 7.91667 6.66687 8.29 6.66687 8.75ZM10.0002 10.8333C9.54021 10.8333 9.16687 10.46 9.16687 10V8.33333C9.16687 7.87333 9.54021 7.5 10.0002 7.5C10.4602 7.5 10.8335 7.87333 10.8335 8.33333V10C10.8335 10.46 10.4602 10.8333 10.0002 10.8333Z" fill="white"/>
</g>
<defs>
<clipPath id="clip0_907_11645">
<rect width="20" height="20" fill="white"/>
</clipPath>
</defs>
</svg>
