<svg width="20" height="20" viewBox="0 0 20 20" fill="none" xmlns="http://www.w3.org/2000/svg">
<g id="document 1">
<path id="Vector" d="M11.6719 5.83333V0.383333C12.4428 0.674446 13.1429 1.12609 13.726 1.70833L16.6294 4.61333C17.2123 5.19573 17.6643 5.89575 17.9552 6.66667H12.5052C12.2842 6.66667 12.0722 6.57887 11.916 6.42259C11.7597 6.26631 11.6719 6.05435 11.6719 5.83333ZM18.3385 8.7375V15.8333C18.3372 16.938 17.8978 17.997 17.1167 18.7782C16.3356 19.5593 15.2765 19.9987 14.1719 20H5.83854C4.73388 19.9987 3.67484 19.5593 2.89372 18.7782C2.11261 17.997 1.6732 16.938 1.67188 15.8333V4.16667C1.6732 3.062 2.11261 2.00296 2.89372 1.22185C3.67484 0.440735 4.73388 0.00132321 5.83854 0L9.60104 0C9.73688 0 9.87104 0.0108333 10.0052 0.02V5.83333C10.0052 6.49637 10.2686 7.13226 10.7374 7.6011C11.2063 8.06994 11.8422 8.33333 12.5052 8.33333H18.3185C18.3277 8.4675 18.3385 8.60167 18.3385 8.7375ZM11.6719 15.8333C11.6719 15.6123 11.5841 15.4004 11.4278 15.2441C11.2715 15.0878 11.0596 15 10.8385 15H6.67188C6.45086 15 6.2389 15.0878 6.08262 15.2441C5.92634 15.4004 5.83854 15.6123 5.83854 15.8333C5.83854 16.0543 5.92634 16.2663 6.08262 16.4226C6.2389 16.5789 6.45086 16.6667 6.67188 16.6667H10.8385C11.0596 16.6667 11.2715 16.5789 11.4278 16.4226C11.5841 16.2663 11.6719 16.0543 11.6719 15.8333ZM14.1719 12.5C14.1719 12.279 14.0841 12.067 13.9278 11.9107C13.7715 11.7545 13.5596 11.6667 13.3385 11.6667H6.67188C6.45086 11.6667 6.2389 11.7545 6.08262 11.9107C5.92634 12.067 5.83854 12.279 5.83854 12.5C5.83854 12.721 5.92634 12.933 6.08262 13.0893C6.2389 13.2455 6.45086 13.3333 6.67188 13.3333H13.3385C13.5596 13.3333 13.7715 13.2455 13.9278 13.0893C14.0841 12.933 14.1719 12.721 14.1719 12.5Z" fill="white"/>
</g>
</svg>
