<svg width="20" height="20" viewBox="0 0 20 20" fill="none" xmlns="http://www.w3.org/2000/svg">
<g id="life (1) 1">
<path id="Vector" d="M7.91692 11.25C7.91692 10.0992 8.84942 9.16667 10.0003 9.16667C11.1511 9.16667 12.0836 10.0992 12.0836 11.25C12.0836 12.4008 11.1511 13.3333 10.0003 13.3333C8.84942 13.3333 7.91692 12.4008 7.91692 11.25ZM18.4828 10.6125L13.7844 14.95C13.6436 15.0792 13.4911 15.1917 13.3336 15.2933V19.1667C13.3336 19.6267 12.9611 20 12.5003 20H7.50026C7.03942 20 6.66692 19.6267 6.66692 19.1667V15.2933C6.50942 15.1908 6.35692 15.0792 6.21692 14.95L1.51776 10.6125C1.18026 10.3 1.15859 9.77333 1.47109 9.435C1.78276 9.0975 2.31109 9.07583 2.64859 9.3875L7.34692 13.725C7.65526 14.01 8.05776 14.1667 8.47692 14.1667H11.5219C11.9419 14.1667 12.3436 14.01 12.6528 13.7242L17.3503 9.3875C17.6886 9.07583 18.2169 9.09667 18.5278 9.435C18.8403 9.77333 18.8194 10.3008 18.4811 10.6125H18.4828ZM12.0836 0C10.9328 0 10.0003 0.9325 10.0003 2.08333C10.0003 0.9325 9.06776 0 7.91692 0C6.76609 0 5.83359 0.9325 5.83359 2.08333C5.83359 3.91083 8.18859 6.39083 9.35776 7.28333C9.73692 7.5725 10.2644 7.5725 10.6436 7.28333C11.8128 6.39167 14.1678 3.91083 14.1678 2.08333C14.1678 0.9325 13.2353 0 12.0844 0H12.0836Z" fill="white"/>
</g>
</svg>
