<svg width="20" height="20" viewBox="0 0 20 20" fill="none" xmlns="http://www.w3.org/2000/svg">
<g id="investment (1) 1" clip-path="url(#clip0_907_11612)">
<path id="Vector" d="M3.33417 5.0675C3.33417 3.68 4.65333 2.17167 5.95083 1.5475C5.79833 1.395 5.65167 1.22833 5.52583 1.04917C5.21583 0.609167 5.56667 0 6.105 0H8.06083C8.63 0 8.94083 0.646667 8.60333 1.105C8.48667 1.26333 8.355 1.41167 8.21833 1.5475C9.51583 2.1725 10.8333 3.68 10.8333 5.06667C10.8333 6.40833 9.80583 7.49917 8.54167 7.49917H5.625C4.36083 7.49917 3.33333 6.4075 3.33333 5.06667L3.33417 5.0675ZM13.09 3.5775L14.1675 2.5V5C14.1675 5.46 14.54 5.83333 15.0008 5.83333C15.4617 5.83333 15.8342 5.46 15.8342 5V2.5L16.9117 3.5775C17.0742 3.74 17.2875 3.82167 17.5008 3.82167C17.7142 3.82167 17.9275 3.74 18.09 3.5775C18.4158 3.25167 18.4158 2.725 18.09 2.39917L16.1792 0.488333C15.8683 0.176667 15.4633 0.015 15.0542 0.00166667C15.0367 0.000833333 15.0192 0 15.0008 0C14.9825 0 14.965 0 14.9475 0.00166667C14.5383 0.015 14.1333 0.176667 13.8225 0.488333L11.9117 2.39917C11.5858 2.725 11.5858 3.25167 11.9117 3.5775C12.2375 3.90333 12.7642 3.90333 13.09 3.5775ZM19.2908 7.23417C18.8617 6.84333 18.3025 6.64083 17.7258 6.66917C17.145 6.69583 16.61 6.9475 16.2308 7.365L13.28 10.4792C13.3067 10.6542 13.3342 10.8292 13.3342 11.0108C13.3342 12.7467 12.0383 14.2408 10.32 14.4858L6.77667 14.9825C6.32083 15.0475 5.89917 14.7308 5.83417 14.2758C5.76917 13.82 6.08583 13.3983 6.54083 13.3333L10.0092 12.8475C10.7892 12.7358 11.4658 12.1758 11.6258 11.4042C11.8725 10.2167 10.9675 9.16667 9.8225 9.16667H3.33333C1.4925 9.16667 0 10.6592 0 12.5V16.6667C0 18.5075 1.4925 20 3.33333 20H6.885C9.2225 20 11.4517 19.0183 13.03 17.295L19.4483 10.2875C20.2383 9.4025 20.1667 8.0325 19.2908 7.23417Z" fill="white"/>
</g>
<defs>
<clipPath id="clip0_907_11612">
<rect width="20" height="20" fill="white"/>
</clipPath>
</defs>
</svg>
