<svg width="20" height="18" viewBox="0 0 20 18" fill="none" xmlns="http://www.w3.org/2000/svg">
<path d="M17.5 4.0013H4.16667C3.45083 4.0013 2.77333 3.6913 2.30417 3.1688C2.7625 2.65714 3.42833 2.33464 4.16667 2.33464H19.1667C20.2567 2.32964 20.2558 0.672135 19.1667 0.667969H4.16667C1.86583 0.667969 0 2.5338 0 4.83463V13.168C0 15.4688 1.86583 17.3346 4.16667 17.3346H17.5C18.8808 17.3346 20 16.2155 20 14.8346V6.5013C20 5.12047 18.8808 4.0013 17.5 4.0013ZM16.6667 11.5013C15.5767 11.4963 15.5767 9.83963 16.6667 9.83463C17.7567 9.83963 17.7567 11.4963 16.6667 11.5013Z" fill="white"/>
</svg>
