<svg width="20" height="20" viewBox="0 0 20 20" fill="none" xmlns="http://www.w3.org/2000/svg">
<g id="sack-dollar 1" clip-path="url(#clip0_907_11634)">
<path id="Vector" d="M10.8723 4.2325C11.6815 3.475 12.8256 2.26583 13.284 1.1125C13.4965 0.578333 13.0698 0 12.4948 0H7.49479C6.91979 0 6.49313 0.5775 6.70563 1.1125C7.16396 2.26583 8.30813 3.475 9.11729 4.2325C4.63562 4.89833 0.828125 10.515 0.828125 15C0.828125 17.7575 3.07063 20 5.82812 20H14.1615C16.919 20 19.1615 17.7575 19.1615 15C19.1615 10.515 15.354 4.89833 10.8723 4.2325ZM8.86479 11.4675L11.3998 11.89C12.5173 12.0758 13.329 13.0342 13.329 14.1675C13.329 15.5458 12.2073 16.6675 10.829 16.6675V17.5008C10.829 17.9608 10.4556 18.3342 9.99563 18.3342C9.53563 18.3342 9.16229 17.9608 9.16229 17.5008V16.6675H8.93896C8.04896 16.6675 7.21979 16.1892 6.77396 15.4183C6.54396 15.02 6.67979 14.5108 7.07813 14.28C7.47479 14.0492 7.98563 14.185 8.21646 14.5842C8.36479 14.8408 8.64229 15.0008 8.93896 15.0008H10.829C11.2881 15.0008 11.6623 14.6267 11.6623 14.1675C11.6623 13.8525 11.4365 13.5858 11.1256 13.5342L8.59062 13.1117C7.47312 12.9258 6.66146 11.9675 6.66146 10.8342C6.66146 9.45583 7.78313 8.33417 9.16146 8.33417V7.50083C9.16146 7.04083 9.53479 6.6675 9.99479 6.6675C10.4548 6.6675 10.8281 7.04083 10.8281 7.50083V8.33417H11.0515C11.9406 8.33417 12.7706 8.81333 13.2165 9.58417C13.4465 9.9825 13.3106 10.4917 12.9123 10.7225C12.5148 10.9533 12.0048 10.8175 11.774 10.4183C11.6248 10.1608 11.3481 10.0017 11.0515 10.0017H9.16146C8.70229 10.0017 8.32813 10.3758 8.32813 10.835C8.32813 11.15 8.55396 11.4167 8.86479 11.4683V11.4675Z" fill="white"/>
</g>
<defs>
<clipPath id="clip0_907_11634">
<rect width="20" height="20" fill="white"/>
</clipPath>
</defs>
</svg>
