<svg width="49" height="59" viewBox="0 0 49 59" fill="none" xmlns="http://www.w3.org/2000/svg">
<g clip-path="url(#clip0_1294_7010)">
<mask id="mask0_1294_7010" style="mask-type:luminance" maskUnits="userSpaceOnUse" x="0" y="0" width="49" height="59">
<path d="M49 0H0V59H49V0Z" fill="white"/>
</mask>
<g mask="url(#mask0_1294_7010)">
<path d="M45.386 44.712L45.4164 32.1207C45.4204 30.845 44.9362 29.642 44.054 28.7312C43.1717 27.8225 42.0008 27.3203 40.7589 27.3182C39.9668 27.3161 39.2193 27.5178 38.5639 27.8755C38.336 27.4284 38.0413 27.0146 37.6837 26.6465C36.7518 25.6858 35.5151 25.1545 34.2023 25.1524C33.1914 25.1503 32.2251 25.4602 31.4067 26.0383C31.2456 25.8012 31.0613 25.5777 30.8597 25.3687C29.9278 24.409 28.691 23.8787 27.3773 23.8756C26.7067 23.8746 26.0676 24.0108 25.4841 24.2593L25.5074 14.0906C25.5105 12.7421 24.9989 11.4705 24.0681 10.5098C23.1362 9.54903 21.9004 9.01876 20.5866 9.01564C19.2729 9.01252 18.0341 9.53759 17.0982 10.4931C16.1622 11.4497 15.6446 12.7192 15.6426 14.0667L15.5899 36.1768L14.8424 34.8397C13.9044 33.1626 12.3972 31.9866 10.5982 31.5291C8.84184 31.0831 6.98313 31.3649 5.3655 32.3204C4.54504 32.8028 3.95754 33.5878 3.71039 34.5288C3.46324 35.4697 3.58681 36.4492 4.05782 37.2893L12.1673 51.7916C13.4415 54.0707 15.1787 55.8653 17.2369 57.0922C19.2952 58.3191 21.6755 58.9772 24.2362 58.9835L31.4006 59.0032C35.119 59.0115 38.6247 57.5289 41.2705 54.8245C43.9172 52.1212 45.3799 48.531 45.388 44.7141L45.386 44.712ZM39.1251 52.613C37.0537 54.7278 34.3117 55.8892 31.4056 55.8819L24.2413 55.8622C20.2352 55.8518 16.7943 53.8014 14.8008 50.2361L6.6904 35.7328C6.60126 35.5727 6.62152 35.4178 6.64279 35.3387C6.66305 35.2608 6.7218 35.1152 6.87779 35.0216C7.81474 34.4695 8.87628 34.3032 9.86692 34.5548C10.2062 34.6421 10.5284 34.7752 10.8251 34.953C11.3893 35.2888 11.8634 35.7796 12.2057 36.391L15.7773 42.775C16.1197 43.3874 16.8196 43.6868 17.4841 43.5059C18.1485 43.325 18.6125 42.7084 18.6145 42.0024L18.6813 14.0719C18.6813 13.5562 18.8819 13.0696 19.2425 12.7015C19.6031 12.3335 20.0782 12.1307 20.5806 12.1318C21.082 12.1338 21.557 12.3387 21.9156 12.7088C22.2742 13.079 22.4717 13.5666 22.4697 14.0813L22.419 35.7328C22.417 36.3099 22.7219 36.8152 23.1767 37.0855C23.3995 37.2186 23.6578 37.2945 23.9354 37.2955C24.7741 37.2966 25.4568 36.601 25.4578 35.739L25.472 28.9787C25.472 28.962 25.474 28.9464 25.474 28.9298C25.476 27.8589 26.3269 26.9896 27.3712 26.9928C27.8736 26.9928 28.3476 27.1986 28.7072 27.5677C29.0648 27.9368 29.2613 28.4245 29.2613 28.9412L29.2451 35.7484C29.2441 36.3265 29.549 36.8308 30.0028 37.1011C30.2266 37.2342 30.4849 37.3101 30.7614 37.3101C31.6011 37.3122 32.2818 36.6155 32.2849 35.7546L32.297 30.2243C32.297 30.218 32.297 30.2128 32.297 30.2076C32.299 29.693 32.4986 29.2053 32.8592 28.8373C33.2198 28.4692 33.6948 28.2664 34.1973 28.2675C34.6997 28.2685 35.1727 28.4733 35.5313 28.8435C35.8898 29.2136 36.0874 29.7013 36.0863 30.2139L36.0803 32.0916L36.0732 35.763C36.0722 36.341 36.3771 36.8453 36.8308 37.1157C37.0547 37.2487 37.313 37.3246 37.5895 37.3257C38.4282 37.3267 39.1109 36.6311 39.113 35.7702L39.1211 32.0854C39.1322 31.1715 39.8615 30.4312 40.7559 30.4333C41.1874 30.4343 41.5956 30.61 41.9035 30.9282C42.2125 31.2474 42.3827 31.6653 42.3796 32.1093L42.3492 44.7006C42.3432 47.6846 41.1986 50.494 39.1271 52.6088L39.1251 52.613Z" fill="white"/>
<path d="M12.4484 1.8425C14.847 0.936885 17.3296 0.324478 19.867 0.00943743C20.6095 -0.0830994 21.2618 0.51683 21.2618 1.28416C21.2618 2.07124 20.6895 2.72939 19.9288 2.83129C17.6963 3.12969 15.5114 3.67868 13.3975 4.47616C10.3081 5.64066 7.4405 7.30737 4.86363 9.43467L6.95531 9.43675C7.30781 9.43779 7.64005 9.57816 7.88821 9.83497C8.13739 10.0907 8.27413 10.4318 8.27413 10.7936V10.8934C8.27211 11.6389 7.68056 12.2451 6.9543 12.2451H6.95329L1.3174 12.2388C0.95275 12.2378 0.600254 12.0808 0.352088 11.8053C0.103923 11.5308 -0.0237051 11.1586 0.0036437 10.7843L0.418941 5.01578C0.472626 4.27133 1.1057 3.71091 1.83095 3.76498L1.89274 3.76913C2.20573 3.79305 2.50758 3.9147 2.73549 4.13512C3.02924 4.42001 3.17611 4.81407 3.14775 5.22165L2.99176 7.37807C5.84009 4.99707 9.01863 3.13593 12.4484 1.84146V1.8425Z" fill="white"/>
<path d="M49.0005 12.1338C49.0076 12.5091 48.8617 12.873 48.5994 13.134C48.3532 13.3794 48.022 13.5156 47.6806 13.5156C47.6584 13.5156 47.6361 13.5156 47.6128 13.5156L41.985 13.2151C41.2597 13.1756 40.6996 12.5382 40.7361 11.7928L40.7411 11.6929C40.7594 11.3321 40.9133 10.9994 41.1757 10.7572C41.437 10.5149 41.7763 10.3912 42.1278 10.4099L44.2195 10.5222C41.8918 8.38139 39.2663 6.62839 36.4028 5.30688C34.0245 4.20788 31.5489 3.43743 29.0024 2.9997C28.2741 2.87493 27.7383 2.23341 27.7383 1.47544C27.7383 0.677964 28.4311 0.0624384 29.1989 0.188247C32.0665 0.657169 34.852 1.51183 37.5251 2.746C40.7057 4.21515 43.6178 6.17194 46.1927 8.56958L46.1491 6.409C46.141 6.04821 46.2717 5.7051 46.5158 5.44309C46.7599 5.18211 47.0891 5.03447 47.4416 5.02719L47.5388 5.02511C48.2611 5.01055 48.8688 5.60528 48.884 6.35078L49.0005 12.1348V12.1338Z" fill="white"/>
</g>
</g>
<defs>
<clipPath id="clip0_1294_7010">
<rect width="49" height="59" fill="white"/>
</clipPath>
</defs>
</svg>
