<svg xmlns="http://www.w3.org/2000/svg" width="25" height="25" viewBox="0 0 25 25" fill="none">
  <g clip-path="url(#clip0_1045_9869)">
    <path d="M0 12.5C0 14.9723 0.733112 17.389 2.10663 19.4446C3.48015 21.5002 5.43238 23.1024 7.71646 24.0485C10.0005 24.9946 12.5139 25.2421 14.9386 24.7598C17.3634 24.2775 19.5907 23.087 21.3388 21.3388C23.087 19.5907 24.2775 17.3634 24.7598 14.9386C25.2421 12.5139 24.9946 10.0005 24.0485 7.71646C23.1024 5.43238 21.5002 3.48015 19.4446 2.10663C17.389 0.733112 14.9723 0 12.5 0C9.18589 0.00358446 6.00855 1.3217 3.66512 3.66512C1.3217 6.00855 0.00358446 9.18589 0 12.5ZM16.6667 12.5C16.6674 13.2625 16.3888 13.9989 15.8833 14.5698C15.5802 14.9104 15.2854 15.2333 15.074 15.4448L12.1323 18.4375C12.0381 18.5415 11.9239 18.6255 11.7964 18.6842C11.669 18.743 11.531 18.7754 11.3907 18.7796C11.2505 18.7837 11.1108 18.7594 10.9801 18.7082C10.8495 18.6571 10.7305 18.58 10.6304 18.4817C10.5302 18.3834 10.451 18.2658 10.3974 18.1361C10.3438 18.0064 10.317 17.8672 10.3185 17.7269C10.3201 17.5866 10.3499 17.448 10.4064 17.3195C10.4628 17.191 10.5446 17.0753 10.6469 16.9792L13.5938 13.9792C13.7885 13.7833 14.0531 13.4917 14.3229 13.1885C14.4908 12.9982 14.5834 12.7532 14.5834 12.4995C14.5834 12.2457 14.4908 12.0007 14.3229 11.8104C14.0542 11.5083 13.7896 11.2167 13.601 11.0271L10.6469 8.02083C10.5446 7.92475 10.4628 7.80898 10.4064 7.68049C10.3499 7.552 10.3201 7.41343 10.3185 7.2731C10.317 7.13278 10.3438 6.99359 10.3974 6.86388C10.451 6.73418 10.5302 6.61665 10.6304 6.51833C10.7305 6.42002 10.8495 6.34295 10.9801 6.29176C11.1108 6.24057 11.2505 6.21631 11.3907 6.22043C11.531 6.22456 11.669 6.25698 11.7964 6.31576C11.9239 6.37455 12.0381 6.45847 12.1323 6.5625L15.0792 9.56146C15.2875 9.76979 15.5792 10.0896 15.8802 10.4292C16.3873 10.9997 16.6671 11.7367 16.6667 12.5Z" fill="white"/>
  </g>
  <defs>
    <clipPath id="clip0_1045_9869">
      <rect width="25" height="25" fill="white"/>
    </clipPath>
  </defs>
</svg>