<svg width="40" height="38" viewBox="0 0 40 38" fill="none" xmlns="http://www.w3.org/2000/svg">
<g clip-path="url(#clip0_21258_13758)">
<path d="M4.62545 -0.0353617C4.69119 -0.0361672 4.75694 -0.0369728 4.82467 -0.0378028C4.8965 -0.0372019 4.96834 -0.036601 5.04234 -0.0359819C5.11896 -0.0364883 5.19557 -0.0369948 5.2745 -0.0375166C5.53194 -0.0388537 5.78932 -0.0380989 6.04675 -0.0373515C6.23102 -0.037866 6.41529 -0.0385035 6.59955 -0.0392552C7.10058 -0.0408994 7.60158 -0.0406801 8.10261 -0.0400339C8.41539 -0.0396814 8.72816 -0.0399208 9.04094 -0.0403232C9.09284 -0.0403889 9.14475 -0.0404547 9.19823 -0.0405224C9.30367 -0.0406574 9.40911 -0.0407932 9.51455 -0.0409299C10.5035 -0.042139 11.4925 -0.0415026 12.4815 -0.0402747C13.3865 -0.0392028 14.2916 -0.0402698 15.1967 -0.0423725C16.1258 -0.0445148 17.0549 -0.0453161 17.984 -0.0446196C18.089 -0.044545 18.1941 -0.0444725 18.2992 -0.0444021C18.3767 -0.04435 18.3767 -0.04435 18.4558 -0.0442968C18.8202 -0.0441389 19.1847 -0.044875 19.5491 -0.0459166C20.0396 -0.0472511 20.53 -0.0468256 21.0204 -0.0450271C21.2007 -0.0446607 21.3809 -0.0449196 21.5612 -0.04584C21.8068 -0.0469948 22.0522 -0.0459178 22.2977 -0.0442598C22.4055 -0.0455543 22.4055 -0.0455543 22.5154 -0.046875C22.9925 -0.0403021 22.9925 -0.0403021 23.2457 0.161295C23.3688 0.386683 23.3962 0.520944 23.3951 0.772606C23.3958 0.893916 23.3958 0.893916 23.3964 1.01768C23.3947 1.14969 23.3947 1.14969 23.393 1.28437C23.3931 1.37759 23.3931 1.47081 23.3932 1.56686C23.3932 1.8219 23.3914 2.0769 23.3892 2.33194C23.3873 2.59868 23.3871 2.86542 23.3867 3.13217C23.3858 3.63703 23.3832 4.14187 23.3801 4.64672C23.3766 5.22158 23.3748 5.79645 23.3733 6.37132C23.37 7.55363 23.3645 8.73592 23.3575 9.91821C23.4361 9.91781 23.4361 9.91781 23.5163 9.9174C24.791 9.91095 26.0657 9.90613 27.3405 9.9031C27.957 9.9016 28.5734 9.89955 29.1899 9.89621C29.7272 9.8933 30.2645 9.89142 30.8018 9.89077C31.0863 9.89039 31.3708 9.88949 31.6553 9.88737C31.9729 9.88502 32.2905 9.88496 32.6081 9.8851C32.7024 9.88405 32.7967 9.883 32.8938 9.88192C33.5271 9.88485 33.5271 9.88485 33.8438 10.0479C34.0648 10.306 34.0704 10.5407 34.0691 10.864C34.0689 10.9741 34.0689 10.9741 34.0688 11.0864C34.0683 11.167 34.0678 11.2475 34.0672 11.3304C34.067 11.4161 34.0668 11.5017 34.0666 11.59C34.0659 11.8277 34.0649 12.0655 34.0637 12.3033C34.0626 12.5597 34.0619 12.8162 34.0612 13.0726C34.0603 13.4022 34.0594 13.7319 34.0583 14.0615C34.0555 14.8788 34.0543 15.6961 34.0539 16.5134C34.0539 16.5725 34.0539 16.6316 34.0538 16.6925C34.0536 17.1792 34.0534 17.6659 34.0533 18.1525C34.0532 18.5909 34.053 19.0293 34.0527 19.4677C34.0527 19.5302 34.0527 19.5927 34.0526 19.6571C34.052 20.67 34.0485 21.6829 34.044 22.6959C34.0396 23.7358 34.0383 24.7757 34.0401 25.8157C34.0411 26.4572 34.0395 27.0986 34.0345 27.74C34.0314 28.1797 34.0314 28.6192 34.0339 29.0589C34.0352 29.3126 34.0352 29.5661 34.0314 29.8197C34.028 30.0949 34.0298 30.3697 34.033 30.6449C34.0308 30.7249 34.0285 30.8049 34.0262 30.8874C34.0322 31.118 34.0464 31.2872 34.1388 31.5015C34.3402 31.6704 34.5382 31.7847 34.7781 31.901C35.6486 32.3398 36.2223 33.2599 36.5167 34.1129C36.9203 35.4968 36.9203 35.4968 36.6388 36.0224C36.7188 36.0212 36.7987 36.0201 36.8811 36.0189C37.1797 36.0149 37.4784 36.0124 37.777 36.0104C37.9059 36.0093 38.0348 36.0078 38.1637 36.0059C38.3497 36.0032 38.5356 36.002 38.7216 36.001C38.7786 35.9999 38.8356 35.9988 38.8943 35.9976C39.2914 35.9975 39.5675 36.0673 39.92 36.2411C40.0099 36.4088 40.0163 36.5193 40.0226 36.706C40.0255 36.7622 40.0284 36.8184 40.0314 36.8763C39.9835 37.1168 39.8944 37.1875 39.6857 37.3349C39.4583 37.3635 39.2605 37.3741 39.0332 37.3716C38.9664 37.372 38.8997 37.3724 38.8309 37.3729C38.6057 37.3739 38.3806 37.3729 38.1554 37.3719C37.9929 37.3722 37.8304 37.3727 37.668 37.3733C37.2203 37.3745 36.7727 37.3739 36.3251 37.373C35.8428 37.3723 35.3605 37.3734 34.8783 37.3742C33.9877 37.3754 33.0971 37.3753 32.2065 37.3745C31.3838 37.3737 30.5612 37.3736 29.7385 37.3739C29.684 37.3739 29.6295 37.3739 29.5733 37.374C29.352 37.3741 29.1307 37.3742 28.9094 37.3743C26.8324 37.3751 24.7554 37.3743 22.6785 37.3728C20.8323 37.3714 18.9861 37.3715 17.1399 37.3729C15.0668 37.3745 12.9937 37.3751 10.9205 37.3742C10.6996 37.3741 10.4787 37.374 10.2578 37.3739C10.2034 37.3739 10.149 37.3739 10.093 37.3738C9.27074 37.3735 8.44849 37.3739 7.62625 37.3746C6.69153 37.3755 5.75682 37.3752 4.82211 37.3737C4.34486 37.3729 3.86762 37.3726 3.39037 37.3736C2.95397 37.3744 2.51759 37.374 2.08119 37.3724C1.92284 37.3721 1.76449 37.3722 1.60614 37.373C1.39179 37.3738 1.17753 37.3729 0.963183 37.3716C0.869792 37.3726 0.869792 37.3726 0.774514 37.3736C0.496162 37.3701 0.340962 37.3564 0.116231 37.1969C-0.056721 36.9718 -0.0456177 36.8108 -0.032348 36.5419C-0.00183047 36.387 -0.00183048 36.387 0.134888 36.2047C0.405467 36.0363 0.646464 36.0132 0.967026 36.0141C1.06788 36.0141 1.06788 36.0141 1.17076 36.0141C1.24263 36.0145 1.3145 36.0149 1.38855 36.0153C1.49973 36.0154 1.49973 36.0154 1.61316 36.0156C1.84958 36.016 2.08598 36.0169 2.32239 36.0178C2.48281 36.0182 2.64323 36.0185 2.80365 36.0188C3.19662 36.0196 3.58958 36.0209 3.98254 36.0224C3.98243 35.9469 3.98231 35.8714 3.98218 35.7936C3.97698 32.4677 3.97216 29.1417 3.96931 25.8158C3.96925 25.7403 3.96925 25.7403 3.96918 25.6633C3.96825 24.5696 3.96738 23.4759 3.96659 22.3822C3.9662 21.8459 3.96579 21.3096 3.96538 20.7733C3.96534 20.7199 3.9653 20.6665 3.96525 20.6115C3.96392 18.8806 3.96157 17.1497 3.9587 15.4188C3.95576 13.6406 3.95383 11.8623 3.9532 10.0841C3.95311 9.83311 3.953 9.58212 3.9529 9.33114C3.95287 9.28174 3.95285 9.23234 3.95283 9.18144C3.95246 8.38525 3.95101 7.58906 3.94916 6.79287C3.94732 5.99304 3.94664 5.19321 3.94708 4.39337C3.94728 3.95976 3.94696 3.52615 3.94529 3.09254C3.94378 2.69601 3.94369 2.29951 3.94476 1.90298C3.9449 1.7591 3.94449 1.61523 3.94352 1.47136C3.94227 1.27657 3.94293 1.08188 3.94409 0.887097C3.94286 0.802263 3.94286 0.802263 3.9416 0.715716C3.94499 0.465298 3.96294 0.318873 4.12055 0.112568C4.31088 -0.0085298 4.39808 -0.0350131 4.62545 -0.0353617ZM5.38879 1.31405C5.38879 12.7678 5.38879 24.2215 5.38879 36.0224C5.59504 36.0224 5.80129 36.0224 6.01379 36.0224C6.03927 35.9485 6.06475 35.8746 6.091 35.7985C6.12547 35.6999 6.15996 35.6014 6.19446 35.5028C6.21946 35.4301 6.21946 35.4301 6.24497 35.3559C6.32452 35.1298 6.39911 34.9368 6.53168 34.7318C6.70002 34.3535 6.68067 33.9717 6.68762 33.566C6.6916 33.4016 6.69586 33.2373 6.70044 33.073C6.7025 32.9643 6.7025 32.9643 6.7046 32.8534C6.71692 32.6682 6.71692 32.6682 6.79504 32.4495C7.40782 32.346 7.40782 32.346 7.72766 32.454C7.92901 32.6305 7.98018 32.7851 8.04504 33.0328C8.23553 32.9621 8.4256 32.8909 8.6145 32.8166C9.09278 32.6307 9.57404 32.4942 10.0763 32.3765C10.0949 32.2958 10.0949 32.2958 10.1138 32.2133C10.2093 31.8259 10.3067 31.4954 10.5206 31.1506C10.8355 30.5559 10.728 29.8422 10.6986 29.1967C10.7012 29.0285 10.7279 28.8912 10.7794 28.7307C10.903 28.7164 11.0268 28.7029 11.1505 28.6897C11.2194 28.6821 11.2883 28.6745 11.3593 28.6666C11.5607 28.6578 11.5607 28.6578 11.8732 28.7307C11.9247 28.9232 11.9763 29.1157 12.0294 29.314C12.2327 29.2395 12.4336 29.1625 12.6331 29.0793C13.8004 28.5977 14.9464 28.5132 16.17 28.8765C16.2367 28.896 16.3034 28.9155 16.3721 28.9355C16.8524 29.0946 17.2315 29.3388 17.6349 29.6271C17.801 29.7526 17.801 29.7526 17.9669 29.8245C17.9671 29.7832 17.9672 29.7419 17.9673 29.6994C17.9754 27.2553 17.9838 24.8112 17.9928 22.3672C17.9939 22.0739 17.9949 21.7806 17.996 21.4874C17.9962 21.429 17.9964 21.3706 17.9967 21.3105C18.0001 20.3643 18.0033 19.4181 18.0063 18.4719C18.0095 17.5015 18.013 16.5311 18.0167 15.5607C18.019 14.9616 18.021 14.3625 18.0228 13.7634C18.024 13.353 18.0255 12.9425 18.0273 12.5321C18.0283 12.295 18.0291 12.058 18.0297 11.8209C18.0303 11.5643 18.0314 11.3076 18.0327 11.051C18.0328 10.9756 18.0328 10.9002 18.0329 10.8225C18.0333 10.754 18.0338 10.6855 18.0342 10.6149C18.0344 10.5556 18.0346 10.4963 18.0348 10.4353C18.045 10.2828 18.045 10.2828 18.1232 10.064C19.3621 9.77495 20.6745 9.94469 21.9513 9.91821C21.9513 7.07884 21.9513 4.23946 21.9513 1.31405C16.4857 1.31405 11.02 1.31405 5.38879 1.31405ZM19.3732 11.2307C19.3732 17.7276 19.3732 24.2245 19.3732 30.9182C19.7599 30.7979 20.1466 30.6776 20.545 30.5536C20.8284 30.5229 21.0623 30.5037 21.3409 30.5126C21.4071 30.5138 21.4733 30.5149 21.5415 30.5161C22.3092 30.542 22.9396 30.756 23.5892 31.1333C23.8992 31.2826 24.1433 31.2987 24.4757 31.2144C25.613 30.9889 26.5189 31.1258 27.5064 31.7206C27.7177 31.8608 27.9215 32.0058 28.1232 32.1578C28.175 32.1968 28.2269 32.2358 28.2803 32.276C28.3854 32.3567 28.489 32.4393 28.5919 32.5224C28.9995 32.2422 29.3194 32.0194 29.4171 31.538C29.4314 31.4289 29.4438 31.3195 29.4513 31.2099C29.5618 31.1936 29.6725 31.1786 29.7833 31.1643C29.8758 31.1516 29.8758 31.1516 29.9701 31.1387C30.1822 31.1367 30.2813 31.1932 30.4669 31.2828C30.764 31.2601 31.0478 31.2171 31.3409 31.1689C31.7761 31.1223 32.2164 31.137 32.6544 31.137C32.6544 24.5679 32.6544 17.9988 32.6544 11.2307C28.2716 11.2307 23.8888 11.2307 19.3732 11.2307ZM12.0071 31.1062C11.5832 31.6651 11.4277 32.2368 11.3321 32.9052C11.3014 33.1074 11.272 33.2853 11.163 33.4643C10.9233 33.591 10.6626 33.6066 10.3937 33.6389C9.52074 33.7644 8.71139 34.0702 8.12317 34.7099C7.79943 35.1467 7.59257 35.4938 7.49817 36.0224C12.113 36.0224 16.7279 36.0224 21.4825 36.0224C21.4568 35.878 21.431 35.7336 21.4044 35.5849C21.2903 34.2501 21.5852 33.2065 22.4982 32.1578C22.4982 32.1097 22.4982 32.0615 22.4982 32.012C21.8057 31.7491 21.0948 31.6675 20.3741 31.898C19.9893 32.0612 19.7006 32.3072 19.3985 32.5793C18.901 33.0226 18.901 33.0226 18.6597 33.0556C18.6083 33.0481 18.5569 33.0405 18.504 33.0328C18.4523 33.0268 18.4005 33.0208 18.3472 33.0146C18.1434 32.9382 18.0784 32.8432 17.9669 32.6682C17.9037 32.4848 17.9037 32.4848 17.8546 32.2854C17.619 31.4427 17.1368 30.785 16.3409 30.303C14.8431 29.5355 13.0842 29.881 12.0071 31.1062ZM29.5392 33.3928C29.3288 33.6339 29.1515 33.8887 28.9859 34.1582C28.9044 34.2724 28.9044 34.2724 28.7482 34.3453C28.5195 34.3659 28.3455 34.3802 28.1232 34.3453C27.9323 34.1881 27.8331 34.0194 27.7127 33.8121C27.3288 33.1716 26.8389 32.7637 26.0919 32.5224C25.2793 32.3337 24.4697 32.5185 23.7482 32.887C23.5153 33.0495 23.5153 33.0495 23.3575 33.2515C23.3233 33.2915 23.2891 33.3314 23.2538 33.3726C22.904 33.7994 22.7874 34.1872 22.7814 34.7281C22.7792 34.8172 22.7769 34.9063 22.7747 34.9981C22.8068 35.3773 22.8068 35.3773 23.1232 36.0224C27.1193 36.0224 31.1154 36.0224 35.2325 36.0224C35.4396 35.4425 35.2626 34.7188 35.0211 34.1653C34.5972 33.3909 33.9095 32.8336 33.045 32.5224C31.7422 32.1996 30.4688 32.4409 29.5392 33.3928Z" fill="white"/>
<path d="M7.57942 28.585C7.78086 28.6476 7.86457 28.69 7.9773 28.8582C8.06087 29.0519 8.06838 29.1991 8.06893 29.4075C8.06923 29.5177 8.06923 29.5177 8.06954 29.63C8.06893 29.7062 8.06833 29.7825 8.06771 29.861C8.06831 29.9372 8.06891 30.0135 8.06954 30.092C8.06934 30.1654 8.06913 30.2388 8.06893 30.3144C8.06875 30.3813 8.06857 30.4482 8.06839 30.5171C8.04675 30.7123 8.00644 30.8274 7.89192 30.9912C7.64441 31.1452 7.49097 31.1612 7.19918 31.1778C6.90844 31.1067 6.81456 31.003 6.64192 30.7725C6.58571 30.4662 6.59099 30.1663 6.59798 29.8564C6.59712 29.7736 6.59627 29.6907 6.59539 29.6054C6.60117 28.9952 6.60117 28.9952 6.79117 28.7824C7.06246 28.5755 7.23132 28.5655 7.57942 28.585Z" fill="white"/>
<path d="M11.4797 24.8242C11.7705 24.8953 11.8643 24.999 12.037 25.2295C12.0932 25.5358 12.0879 25.8356 12.0809 26.1455C12.0818 26.2284 12.0826 26.3113 12.0835 26.3966C12.0777 27.0068 12.0777 27.0068 11.8877 27.2196C11.6165 27.4265 11.4476 27.4365 11.0995 27.417C10.898 27.3544 10.8143 27.312 10.7016 27.1437C10.618 26.9501 10.6105 26.8029 10.61 26.5944C10.6098 26.521 10.6096 26.4476 10.6094 26.372C10.61 26.2958 10.6106 26.2195 10.6112 26.141C10.6106 26.0648 10.61 25.9885 10.6094 25.91C10.6096 25.8366 10.6098 25.7632 10.61 25.6875C10.6102 25.6207 10.6103 25.5538 10.6105 25.4849C10.6322 25.2896 10.6725 25.1746 10.787 25.0108C11.0345 24.8568 11.1879 24.8408 11.4797 24.8242Z" fill="white"/>
<path d="M7.6601 24.8649C7.85004 25.0013 7.94453 25.1042 8.05073 25.3024C8.06962 25.5785 8.06519 25.8553 8.06537 26.1319C8.06633 26.2087 8.06729 26.2856 8.06827 26.3649C8.0685 26.476 8.0685 26.476 8.06873 26.5893C8.06905 26.6571 8.06937 26.7249 8.0697 26.7948C8.04969 26.9896 8.0054 27.1063 7.89448 27.2712C7.64229 27.4393 7.41669 27.4406 7.11323 27.417C6.85208 27.329 6.80486 27.277 6.64448 27.0524C6.606 26.7528 6.61193 26.4516 6.6103 26.1501C6.60773 26.0672 6.60516 25.9843 6.60251 25.8989C6.59831 25.2912 6.59831 25.2912 6.82209 24.9923C7.14566 24.7989 7.28134 24.8144 7.6601 24.8649Z" fill="white"/>
<path d="M30.3851 12.4686C30.546 12.5837 30.6074 12.6648 30.6976 12.8331C30.7228 13.1198 30.723 13.407 30.7269 13.6945C30.7298 13.7742 30.7327 13.854 30.7358 13.9362C30.7427 14.5235 30.7427 14.5235 30.52 14.8181C30.2249 14.9976 30.2249 14.9976 29.9945 14.9933C29.9445 14.9942 29.8946 14.9952 29.8431 14.9961C29.563 14.912 29.4624 14.8085 29.2914 14.5831C29.2392 14.2889 29.2475 14.001 29.2572 13.7036C29.2576 13.6242 29.2581 13.5448 29.2586 13.463C29.2695 12.8014 29.2695 12.8014 29.4476 12.5415C29.7703 12.3608 30.0263 12.3879 30.3851 12.4686Z" fill="white"/>
<path d="M11.7416 9.97385C11.8784 10.0604 11.8784 10.0604 12.0346 10.2792C12.0731 10.5788 12.0671 10.88 12.0688 11.1815C12.0714 11.2644 12.0739 11.3473 12.0766 11.4328C12.0808 12.0404 12.0808 12.0404 11.857 12.3394C11.5334 12.5328 11.3977 12.5172 11.019 12.4667C10.829 12.3303 10.7345 12.2274 10.6284 12.0292C10.6095 11.7531 10.6139 11.4764 10.6137 11.1998C10.6127 11.1229 10.6118 11.046 10.6108 10.9668C10.6107 10.8927 10.6105 10.8186 10.6103 10.7423C10.61 10.6745 10.6097 10.6067 10.6094 10.5369C10.6294 10.342 10.6737 10.2253 10.7846 10.0604C11.0798 9.86366 11.4057 9.86064 11.7416 9.97385Z" fill="white"/>
<path d="M7.57942 9.91698C7.78086 9.97965 7.86457 10.022 7.9773 10.1903C8.06087 10.3839 8.06838 10.5311 8.06893 10.7396C8.06923 10.8497 8.06923 10.8497 8.06954 10.962C8.06893 11.0383 8.06833 11.1145 8.06771 11.193C8.06831 11.2693 8.06891 11.3455 8.06954 11.424C8.06934 11.4974 8.06913 11.5708 8.06893 11.6465C8.06875 11.7134 8.06857 11.7802 8.06839 11.8491C8.04675 12.0444 8.00644 12.1594 7.89192 12.3232C7.64441 12.4772 7.49097 12.4932 7.19918 12.5098C6.90844 12.4387 6.81456 12.335 6.64192 12.1045C6.58571 11.7983 6.59099 11.4984 6.59798 11.1885C6.59712 11.1056 6.59627 11.0228 6.59539 10.9374C6.60117 10.3272 6.60117 10.3272 6.79117 10.1144C7.06246 9.90752 7.23132 9.89749 7.57942 9.91698Z" fill="white"/>
<path d="M11.4797 6.15625C11.7705 6.22732 11.8643 6.33106 12.037 6.56156C12.0932 6.86778 12.0879 7.16767 12.0809 7.47758C12.0818 7.56044 12.0826 7.64329 12.0835 7.72866C12.0777 8.33883 12.0777 8.33883 11.8877 8.55166C11.6165 8.75853 11.4476 8.76856 11.0995 8.74906C10.898 8.68639 10.8143 8.64406 10.7016 8.47577C10.618 8.28214 10.6105 8.13496 10.61 7.92647C10.6098 7.85306 10.6096 7.77965 10.6094 7.70402C10.61 7.62779 10.6106 7.55156 10.6112 7.47302C10.6106 7.39679 10.61 7.32056 10.6094 7.24202C10.6096 7.16862 10.6098 7.09521 10.61 7.01957C10.6102 6.9527 10.6103 6.88582 10.6105 6.81691C10.6322 6.62167 10.6725 6.50666 10.787 6.34281C11.0345 6.1888 11.1879 6.1728 11.4797 6.15625Z" fill="white"/>
<path d="M7.6601 6.19697C7.85004 6.33333 7.94453 6.43623 8.05073 6.63447C8.06962 6.91056 8.06519 7.1873 8.06537 7.46389C8.06633 7.54078 8.06729 7.61767 8.06827 7.69688C8.0685 7.80799 8.0685 7.80799 8.06873 7.92133C8.06905 7.98914 8.06937 8.05694 8.0697 8.1268C8.04969 8.32163 8.0054 8.43836 7.89448 8.60322C7.64229 8.77134 7.41669 8.77265 7.11323 8.74905C6.85208 8.66103 6.80486 8.60901 6.64448 8.38447C6.606 8.08486 6.61193 7.78365 6.6103 7.48212C6.60773 7.39922 6.60516 7.31632 6.60251 7.2309C6.59831 6.62322 6.59831 6.62322 6.82209 6.32429C7.14566 6.13088 7.28134 6.14646 7.6601 6.19697Z" fill="white"/>
<path d="M26.4271 27.3945C26.6235 27.532 26.6498 27.6324 26.72 27.8548C26.7428 28.1102 26.7418 28.3642 26.7396 28.6204C26.7402 28.6888 26.7408 28.7571 26.7414 28.8275C26.7394 29.4752 26.7394 29.4752 26.5638 29.7506C26.3163 29.9046 26.1628 29.9206 25.8711 29.9372C25.5803 29.8661 25.4864 29.7624 25.3138 29.5319C25.2576 29.2257 25.2629 28.9258 25.2699 28.6159C25.269 28.533 25.2681 28.4502 25.2673 28.3648C25.273 27.7546 25.273 27.7546 25.463 27.5418C25.7688 27.3086 26.0473 27.2862 26.4271 27.3945Z" fill="white"/>
<path d="M15.4605 24.8242C15.7513 24.8953 15.8451 24.999 16.0178 25.2295C16.074 25.5358 16.0687 25.8356 16.0617 26.1455C16.0626 26.2284 16.0634 26.3113 16.0643 26.3966C16.0585 27.0068 16.0585 27.0068 15.8685 27.2196C15.5988 27.4253 15.4279 27.4488 15.0803 27.417C14.8195 27.2602 14.7104 27.1834 14.6115 26.9066C14.5936 26.6547 14.5971 26.4025 14.5969 26.1501C14.5959 26.0811 14.595 26.0121 14.594 25.941C14.5925 25.2836 14.5925 25.2836 14.7678 25.0108C15.0153 24.8568 15.1687 24.8408 15.4605 24.8242Z" fill="white"/>
<path d="M30.3121 23.6257C30.502 23.762 30.5965 23.865 30.7027 24.0632C30.7216 24.3393 30.7172 24.616 30.7174 24.8926C30.7183 24.9695 30.7193 25.0464 30.7203 25.1256C30.7205 25.2367 30.7205 25.2367 30.7207 25.35C30.721 25.4179 30.7214 25.4857 30.7217 25.5555C30.7017 25.7503 30.6574 25.8671 30.5465 26.0319C30.2943 26.2001 30.0687 26.2014 29.7652 26.1778C29.5637 26.1151 29.48 26.0729 29.3675 25.9043C29.2304 25.5878 29.2709 25.2431 29.2721 24.9063C29.2708 24.8307 29.2695 24.755 29.2682 24.6771C29.2678 23.98 29.2678 23.98 29.5308 23.6986C29.7802 23.5822 30.0414 23.5882 30.3121 23.6257Z" fill="white"/>
<path d="M11.6376 21.1468C11.8507 21.2736 11.8507 21.2736 12.0283 21.5114C12.0844 21.8176 12.0792 22.1175 12.0722 22.4274C12.0731 22.5103 12.0739 22.5931 12.0748 22.6785C12.069 23.2863 12.069 23.2863 11.886 23.5018C11.6471 23.6761 11.4695 23.694 11.1689 23.6989C10.8897 23.5831 10.793 23.5008 10.622 23.2614C10.5879 22.986 10.5967 22.709 10.5976 22.432C10.5963 22.356 10.5951 22.2801 10.5938 22.2018C10.5933 21.5005 10.5933 21.5005 10.8564 21.2197C11.1031 21.1046 11.3725 21.0871 11.6376 21.1468Z" fill="white"/>
<path d="M11.7982 17.4992C12.1431 17.8327 12.0698 18.2244 12.0668 18.6613C12.0691 18.7799 12.0691 18.7799 12.0715 18.901C12.0711 19.4785 12.0711 19.4785 11.8885 19.7738C11.6711 19.9437 11.5337 19.973 11.2513 19.9783C11.008 19.9255 10.8963 19.8714 10.7341 19.6941C10.5724 19.3547 10.5924 19.033 10.597 18.6658C10.5961 18.594 10.5952 18.5222 10.5943 18.4482C10.5972 17.7885 10.5972 17.7885 10.8607 17.4992C11.1987 17.2976 11.4381 17.3622 11.7982 17.4992Z" fill="white"/>
<path d="M7.81263 17.4983C8.13414 17.8351 8.08167 18.2398 8.07631 18.665C8.07721 18.7368 8.07812 18.8086 8.07905 18.8826C8.07613 19.5544 8.07613 19.5544 7.81263 19.8317C7.52834 19.9447 7.35335 19.9979 7.05091 19.9274C6.87356 19.8308 6.76645 19.7638 6.64076 19.6129C6.59002 19.3007 6.60458 18.985 6.60658 18.6695C6.60502 18.5826 6.60346 18.4956 6.60185 18.4059C6.6019 18.3223 6.60195 18.2387 6.602 18.1526C6.60186 18.0761 6.60171 17.9996 6.60156 17.9207C6.65015 17.6683 6.74242 17.5843 6.95326 17.4254C7.25375 17.29 7.51535 17.3873 7.81263 17.4983Z" fill="white"/>
<path d="M11.7201 13.7094C11.9314 13.8622 12.0214 13.9486 12.0743 14.1957C12.0771 14.4332 12.079 14.6704 12.0765 14.9079C12.0784 14.9905 12.0803 15.0731 12.0822 15.1581C12.0811 15.7594 12.0811 15.7594 11.8544 16.0612C11.5331 16.2538 11.3933 16.2331 11.017 16.1885C10.7642 16.0615 10.7182 16.0083 10.6264 15.751C10.6043 15.4749 10.6047 15.1984 10.6019 14.9216C10.5997 14.8456 10.5974 14.7697 10.5951 14.6914C10.5901 14.1324 10.5901 14.1324 10.7695 13.8432C11.086 13.5931 11.3306 13.6264 11.7201 13.7094Z" fill="white"/>
<path d="M15.5486 9.91644C15.9105 10.0816 15.9105 10.0816 16.0174 10.281C16.0427 10.5798 16.0427 10.8792 16.0467 11.1788C16.0496 11.262 16.0525 11.3453 16.0555 11.431C16.0624 12.0436 16.0624 12.0436 15.8401 12.3415C15.5162 12.5344 15.3806 12.519 15.0018 12.4685C14.7698 12.3076 14.7027 12.2143 14.6111 11.9581C14.5913 11.7063 14.5931 11.4541 14.5916 11.2016C14.59 11.1326 14.5884 11.0636 14.5867 10.9925C14.5829 10.3498 14.5829 10.3498 14.8455 10.0623C15.1196 9.89171 15.2261 9.88633 15.5486 9.91644Z" fill="white"/>
<path d="M15.4605 6.15625C15.7513 6.22732 15.8451 6.33106 16.0178 6.56156C16.074 6.86778 16.0687 7.16767 16.0617 7.47758C16.0626 7.56044 16.0634 7.64329 16.0643 7.72866C16.0585 8.33883 16.0585 8.33883 15.8685 8.55166C15.5988 8.75737 15.4279 8.78087 15.0803 8.74906C14.8195 8.59223 14.7104 8.51543 14.6115 8.23865C14.5936 7.98677 14.5971 7.73452 14.5969 7.48214C14.5959 7.41315 14.595 7.34415 14.594 7.27307C14.5925 6.61566 14.5925 6.61566 14.7678 6.34281C15.0153 6.1888 15.1687 6.1728 15.4605 6.15625Z" fill="white"/>
<path d="M11.6376 2.47886C11.8507 2.60561 11.8507 2.60561 12.0283 2.84344C12.0844 3.14967 12.0792 3.44955 12.0722 3.75946C12.0731 3.84232 12.0739 3.92517 12.0748 4.01054C12.069 4.61835 12.069 4.61835 11.886 4.83382C11.6471 5.00811 11.4695 5.02602 11.1689 5.03094C10.8897 4.91512 10.793 4.83288 10.622 4.59344C10.5879 4.31803 10.5967 4.04107 10.5976 3.76402C10.5963 3.68807 10.5951 3.61212 10.5938 3.53387C10.5933 2.83257 10.5933 2.83257 10.8564 2.55178C11.1031 2.43664 11.3725 2.41912 11.6376 2.47886Z" fill="white"/>
<path d="M15.3388 21.1202C15.399 21.1166 15.4592 21.1131 15.5213 21.1094C15.7001 21.1475 15.7001 21.1475 15.8765 21.2743C16.09 21.6474 16.0578 22.012 16.0517 22.4281C16.0529 22.511 16.0541 22.5939 16.0553 22.6792C16.0549 22.7589 16.0545 22.8385 16.0541 22.9206C16.0538 22.9931 16.0534 23.0657 16.053 23.1404C16.0016 23.3879 15.9108 23.4731 15.7001 23.6267C15.3952 23.7043 15.2268 23.7286 14.9335 23.613C14.7094 23.4397 14.6198 23.2934 14.5849 23.0225C14.5827 22.8258 14.5812 22.6293 14.5819 22.4327C14.5801 22.3306 14.5801 22.3306 14.5781 22.2265C14.5778 21.8376 14.6014 21.5542 14.8407 21.2205C15.0194 21.1371 15.1398 21.1282 15.3388 21.1202Z" fill="white"/>
<path d="M7.65897 21.1463C7.8489 21.2826 7.94339 21.3855 8.04959 21.5838C8.07049 21.8461 8.06768 22.1092 8.06912 22.3722C8.07073 22.445 8.07234 22.5178 8.074 22.5928C8.07783 23.2623 8.07783 23.2623 7.81522 23.5525C7.60631 23.7057 7.49937 23.6982 7.22928 23.6892C6.92351 23.6179 6.83556 23.5609 6.64334 23.3338C6.57924 23.0343 6.59625 22.7316 6.5994 22.4269C6.59753 22.3443 6.59567 22.2617 6.59375 22.1766C6.59489 21.5753 6.59489 21.5753 6.82156 21.2739C7.14457 21.0798 7.28037 21.0958 7.65897 21.1463Z" fill="white"/>
<path d="M26.1658 19.8745C26.4032 19.9197 26.5066 20.0157 26.6443 20.1978C26.7947 20.4785 26.7403 20.8232 26.7419 21.132C26.7436 21.2048 26.7452 21.2776 26.7468 21.3526C26.7507 22.0284 26.7507 22.0284 26.488 22.3124C26.259 22.4395 26.1248 22.4592 25.8582 22.4491C25.5873 22.3738 25.4922 22.298 25.3162 22.0936C25.2757 21.899 25.2757 21.899 25.2747 21.6792C25.2743 21.5995 25.2739 21.5199 25.2734 21.4378C25.2746 21.3549 25.2759 21.2721 25.2771 21.1867C25.2759 21.1041 25.2747 21.0216 25.2734 20.9365C25.2765 20.3395 25.2765 20.3395 25.4529 20.0337C25.7039 19.8515 25.8585 19.8589 26.1658 19.8745Z" fill="white"/>
<path d="M15.7049 13.7095C15.9161 13.8627 16.0064 13.9481 16.0578 14.1958C16.0582 14.2683 16.0585 14.3408 16.0589 14.4156C16.0593 14.4952 16.0597 14.5749 16.0601 14.6569C16.0589 14.7398 16.0577 14.8227 16.0564 14.908C16.0577 14.9906 16.0589 15.0732 16.0601 15.1582C16.0571 15.7552 16.0571 15.7552 15.8807 16.061C15.6297 16.2432 15.4751 16.236 15.1678 16.22C14.9278 16.1747 14.8259 16.083 14.6893 15.897C14.5741 15.5745 14.5936 15.2595 14.5916 14.9217C14.59 14.8527 14.5884 14.7837 14.5867 14.7126C14.5829 14.0779 14.5829 14.0779 14.8455 13.7824C15.1232 13.5787 15.3757 13.6327 15.7049 13.7095Z" fill="white"/>
<path d="M7.73567 13.7068C7.93759 13.845 7.96713 13.9174 8.04817 14.1443C8.06815 14.4083 8.06624 14.6727 8.0677 14.9373C8.06931 15.0097 8.07092 15.0822 8.07258 15.1569C8.07644 15.8286 8.07644 15.8286 7.81379 16.113C7.56708 16.2282 7.29764 16.2457 7.03254 16.186C6.81953 16.0592 6.81953 16.0592 6.64192 15.8214C6.58574 15.5151 6.59098 15.2153 6.59797 14.9054C6.59712 14.8225 6.59626 14.7396 6.59538 14.6543C6.60115 14.0457 6.60115 14.0457 6.78628 13.8313C7.10747 13.5935 7.34907 13.6295 7.73567 13.7068Z" fill="white"/>
<path d="M15.3388 2.45223C15.399 2.44866 15.4592 2.44509 15.5213 2.44141C15.7001 2.47957 15.7001 2.47957 15.8765 2.60632C16.09 2.9794 16.0578 3.34408 16.0517 3.76017C16.0529 3.84303 16.0541 3.92588 16.0553 4.01125C16.0549 4.09091 16.0545 4.17057 16.0541 4.25264C16.0538 4.32517 16.0534 4.39769 16.053 4.47241C16.0016 4.71997 15.9108 4.80518 15.7001 4.95874C15.3952 5.03635 15.2268 5.06063 14.9335 4.94507C14.7094 4.77176 14.6198 4.62543 14.5849 4.35451C14.5827 4.15788 14.5812 3.96137 14.5819 3.76473C14.5801 3.66265 14.5801 3.66265 14.5781 3.55851C14.5778 3.16959 14.6014 2.88621 14.8407 2.55249C15.0194 2.4691 15.1398 2.46025 15.3388 2.45223Z" fill="white"/>
<path d="M7.65897 2.47829C7.8489 2.61465 7.94339 2.71755 8.04959 2.91579C8.07049 3.17816 8.06768 3.44118 8.06912 3.7042C8.07073 3.777 8.07234 3.84979 8.074 3.9248C8.07783 4.59438 8.07783 4.59438 7.81522 4.88454C7.60631 5.03774 7.49937 5.03026 7.22928 5.02126C6.92351 4.94991 6.83556 4.89297 6.64334 4.66579C6.57924 4.36636 6.59625 4.06362 6.5994 3.75889C6.59753 3.67631 6.59567 3.59374 6.59375 3.50866C6.59489 2.9073 6.59489 2.9073 6.82156 2.60589C7.14457 2.41184 7.28037 2.42781 7.65897 2.47829Z" fill="white"/>
<path d="M30.4135 27.3985C30.5844 27.5124 30.6281 27.5998 30.7065 27.7813C30.7267 27.9637 30.7267 27.9637 30.7272 28.1664C30.7275 28.2765 30.7275 28.2765 30.7278 28.3889C30.7272 28.4651 30.7266 28.5413 30.726 28.6198C30.7266 28.6961 30.7272 28.7723 30.7278 28.8508C30.7276 28.9243 30.7274 28.9977 30.7272 29.0733C30.7271 29.1402 30.7269 29.2071 30.7267 29.276C30.7051 29.4712 30.6647 29.5862 30.5502 29.7501C30.2637 29.9284 30.0241 29.9486 29.6909 29.8959C29.5009 29.7595 29.4064 29.6566 29.3002 29.4584C29.2813 29.1823 29.2858 28.9056 29.2856 28.629C29.2846 28.5521 29.2837 28.4752 29.2827 28.396C29.2825 28.3219 29.2824 28.2478 29.2822 28.1715C29.2819 28.1037 29.2816 28.0359 29.2812 27.9661C29.3013 27.7712 29.3456 27.6545 29.4565 27.4896C29.752 27.2926 30.0752 27.2932 30.4135 27.3985Z" fill="white"/>
<path d="M22.2643 27.3425C22.6237 27.5467 22.6237 27.5467 22.7036 27.7704C22.7567 28.0502 22.7475 28.3305 22.7477 28.614C22.7487 28.6757 22.7497 28.7374 22.7506 28.801C22.7516 29.1908 22.7434 29.5089 22.445 29.808C22.1829 29.9337 22.0081 29.9327 21.7175 29.8946C21.5078 29.767 21.5078 29.767 21.3268 29.53C21.2684 29.2255 21.2723 28.9272 21.278 28.6186C21.2765 28.5363 21.275 28.4541 21.2734 28.3694C21.2772 27.7719 21.2772 27.7719 21.5081 27.4704C21.7851 27.3012 21.9391 27.2938 22.2643 27.3425Z" fill="white"/>
<path d="M26.3308 23.6267C26.5628 23.7877 26.63 23.8809 26.7215 24.1371C26.7413 24.389 26.7395 24.6412 26.741 24.8937C26.7426 24.9626 26.7442 25.0316 26.7459 25.1027C26.7497 25.7374 26.7497 25.7374 26.4871 26.033C26.2782 26.1862 26.1712 26.1787 25.9012 26.1697C25.5954 26.0983 25.5074 26.0414 25.3152 25.8142C25.2511 25.5148 25.2681 25.2121 25.2713 24.9073C25.2694 24.8247 25.2675 24.7422 25.2656 24.6571C25.2668 24.0557 25.2668 24.0557 25.4934 23.7543C25.8164 23.5603 25.9522 23.5762 26.3308 23.6267Z" fill="white"/>
<path d="M22.3453 23.6257C22.5989 23.7957 22.678 23.9297 22.7359 24.209C22.7527 24.4382 22.7503 24.6675 22.7505 24.8972C22.7515 24.9589 22.7524 25.0206 22.7534 25.0841C22.7542 25.4056 22.7511 25.6707 22.5796 25.959C22.4006 26.1065 22.2734 26.1739 22.0328 26.1849C21.7862 26.1675 21.6098 26.1469 21.4302 25.9818C21.2288 25.6441 21.2897 25.2426 21.2906 24.8653C21.2884 24.7786 21.2861 24.6919 21.2839 24.6026C21.2837 24.5194 21.2835 24.4361 21.2832 24.3503C21.2827 24.2742 21.2821 24.1982 21.2816 24.1199C21.4049 23.6003 21.8707 23.5694 22.3453 23.6257Z" fill="white"/>
<path d="M29.9991 19.8622C30.0491 19.8613 30.099 19.8603 30.1505 19.8594C30.4301 19.9434 30.531 20.0478 30.7022 20.2724C30.7583 20.565 30.7532 20.8509 30.7462 21.1474C30.747 21.2261 30.7479 21.3049 30.7488 21.3861C30.7431 21.9566 30.7431 21.9566 30.5576 22.2551C30.3406 22.4256 30.2034 22.4545 29.921 22.4599C29.6046 22.3843 29.4651 22.28 29.296 22.0224C29.2457 21.734 29.2562 21.4438 29.2569 21.1519C29.2547 21.0728 29.2525 20.9937 29.2502 20.9123C29.2487 20.3346 29.2487 20.3346 29.4742 20.038C29.7681 19.8579 29.7681 19.8579 29.9991 19.8622Z" fill="white"/>
<path d="M30.47 16.2618C30.815 16.5943 30.7446 16.9878 30.7435 17.4239C30.7457 17.503 30.7479 17.5821 30.7502 17.6636C30.7517 18.2413 30.7517 18.2413 30.5262 18.5379C30.2323 18.718 30.2323 18.718 30.0013 18.7137C29.9513 18.7146 29.9014 18.7155 29.8499 18.7165C29.5703 18.6325 29.4694 18.528 29.2982 18.3035C29.2421 18.0109 29.2472 17.725 29.2542 17.4285C29.2534 17.3497 29.2525 17.271 29.2516 17.1898C29.2573 16.6168 29.2573 16.6168 29.4483 16.3208C29.7965 16.0379 30.0488 16.1117 30.47 16.2618Z" fill="white"/>
<path d="M26.4075 12.4685C26.6095 12.6067 26.639 12.6791 26.72 12.906C26.7399 13.1563 26.7381 13.407 26.7396 13.658C26.7412 13.7263 26.7428 13.7947 26.7445 13.8652C26.7468 14.256 26.7272 14.5394 26.4857 14.8748C26.239 14.9899 25.9695 15.0074 25.7044 14.9477C25.4914 14.8209 25.4914 14.8209 25.3138 14.5831C25.2576 14.2769 25.2629 13.977 25.2698 13.6671C25.269 13.5842 25.2681 13.5014 25.2673 13.416C25.273 12.8074 25.273 12.8074 25.4582 12.593C25.7793 12.3552 26.0209 12.3912 26.4075 12.4685Z" fill="white"/>
<path d="M22.4177 12.4691C22.6258 12.6571 22.7202 12.8516 22.7416 13.1246C22.7435 13.3026 22.7447 13.4806 22.7449 13.6586C22.7458 13.72 22.7468 13.7814 22.7478 13.8447C22.7486 14.1901 22.7335 14.4834 22.574 14.8025C22.3349 14.9512 22.2666 14.9713 21.9929 14.9757C21.9334 14.9777 21.8739 14.9798 21.8126 14.9819C21.5651 14.9347 21.4815 14.8387 21.324 14.6566C21.2835 14.4541 21.2835 14.4541 21.2825 14.2237C21.2821 14.1404 21.2817 14.0571 21.2812 13.9713C21.2825 13.8847 21.2837 13.798 21.2849 13.7087C21.2837 13.6221 21.2825 13.5354 21.2812 13.4461C21.2817 13.3628 21.2821 13.2796 21.2825 13.1938C21.2828 13.1177 21.2832 13.0417 21.2835 12.9633C21.3337 12.712 21.4264 12.6277 21.6365 12.4691C21.8904 12.3507 22.1521 12.4026 22.4177 12.4691Z" fill="white"/>
<path d="M19.4485 6.16016C19.6966 6.21402 19.8244 6.3232 20.0057 6.488C20.0538 6.69051 20.0538 6.69051 20.0521 6.92094C20.0519 7.00422 20.0517 7.0875 20.0515 7.1733C20.0482 7.30329 20.0482 7.30329 20.0448 7.43591C20.0451 7.56591 20.0451 7.56591 20.0454 7.69853C20.0365 8.43166 20.0365 8.43166 19.7714 8.6755C19.4302 8.75254 19.2478 8.78547 18.9218 8.66638C18.6905 8.47591 18.6125 8.3001 18.5847 8.01152C18.5785 7.83157 18.5782 7.65241 18.58 7.47237C18.5794 7.41099 18.5787 7.34961 18.5781 7.28638C18.5794 6.90052 18.6218 6.61653 18.8436 6.28292C19.0384 6.16776 19.2218 6.16638 19.4485 6.16016Z" fill="white"/>
<path d="M26.488 16.26C26.8095 16.5968 26.7571 17.0015 26.7517 17.4267C26.7526 17.4985 26.7535 17.5703 26.7545 17.6443C26.7516 18.3054 26.7516 18.3054 26.488 18.5934C26.3084 18.6772 26.19 18.6832 25.99 18.6891C25.9298 18.6918 25.8695 18.6945 25.8075 18.6973C25.5565 18.6538 25.4751 18.5586 25.3162 18.3746C25.2757 18.1721 25.2757 18.1721 25.2747 17.9417C25.2743 17.8584 25.2739 17.7751 25.2734 17.6893C25.2746 17.6027 25.2759 17.516 25.2771 17.4267C25.2759 17.34 25.2747 17.2534 25.2734 17.1641C25.2738 17.0808 25.2742 16.9975 25.2747 16.9117C25.275 16.8357 25.2754 16.7597 25.2757 16.6813C25.3258 16.4303 25.419 16.3455 25.6287 16.1871C25.9292 16.0517 26.1908 16.1491 26.488 16.26Z" fill="white"/>
<path d="M22.1736 19.878C22.3396 19.9064 22.3396 19.9064 22.5349 20.034C22.7838 20.3824 22.7471 20.7686 22.7498 21.1734C22.7514 21.2345 22.753 21.2956 22.7546 21.3585C22.7572 21.7315 22.7215 21.991 22.4958 22.3127C22.267 22.4455 22.135 22.4597 21.866 22.4494C21.5945 22.3739 21.4997 22.2994 21.324 22.0939C21.2835 21.8914 21.2835 21.8914 21.2825 21.661C21.2821 21.5777 21.2817 21.4944 21.2812 21.4086C21.2825 21.322 21.2837 21.2353 21.2849 21.146C21.2837 21.0594 21.2825 20.9727 21.2812 20.8834C21.2817 20.8001 21.2821 20.7169 21.2825 20.6311C21.2828 20.555 21.2832 20.479 21.2835 20.4006C21.3785 19.9249 21.719 19.8584 22.1736 19.878Z" fill="white"/>
<path d="M22.4958 16.2612C22.762 16.6284 22.766 16.9598 22.7595 17.3869C22.7604 17.4467 22.7613 17.5065 22.7623 17.5682C22.7602 17.9634 22.6979 18.2455 22.4958 18.5946C22.3162 18.6784 22.1978 18.6844 21.9978 18.6903C21.9376 18.693 21.8774 18.6957 21.8153 18.6985C21.5643 18.655 21.4829 18.5598 21.324 18.3758C21.2835 18.1733 21.2835 18.1733 21.2825 17.9429C21.2821 17.8596 21.2817 17.7763 21.2812 17.6905C21.2825 17.6039 21.2837 17.5172 21.2849 17.4279C21.2837 17.3412 21.2825 17.2546 21.2812 17.1653C21.2817 17.082 21.2821 16.9987 21.2825 16.9129C21.2828 16.8369 21.2832 16.7608 21.2835 16.6825C21.3337 16.4315 21.4268 16.3467 21.6365 16.1883C21.9374 16.0527 22.1997 16.1456 22.4958 16.2612Z" fill="white"/>
<path d="M15.7782 17.5008C15.9674 17.6312 16.0084 17.6935 16.0442 17.9138C16.0467 18.1636 16.0484 18.4131 16.0468 18.6629C16.0491 18.7934 16.0491 18.7934 16.0515 18.9265C16.0515 19.0101 16.0514 19.0937 16.0514 19.1799C16.0516 19.2946 16.0516 19.2946 16.0518 19.4117C16.0031 19.6649 15.9128 19.7488 15.7001 19.9071C15.4261 20.0107 15.3086 19.9797 15.0214 19.8979C14.7626 19.7612 14.7626 19.7612 14.6698 19.6157C14.5784 19.3002 14.5807 18.9974 14.5819 18.672C14.5801 18.5757 14.5801 18.5757 14.5781 18.4773C14.5778 18.0987 14.6073 17.8251 14.8407 17.5008C15.1974 17.3232 15.4164 17.3432 15.7782 17.5008Z" fill="white"/>
<path d="M19.3368 2.44568C19.3963 2.44427 19.4558 2.44286 19.5172 2.44141C19.7632 2.49196 19.8484 2.58761 20.0057 2.76925C20.0462 2.97176 20.0462 2.97176 20.0472 3.20219C20.0476 3.28547 20.048 3.36875 20.0485 3.45455C20.0473 3.54121 20.046 3.62787 20.0448 3.71716C20.046 3.80383 20.0472 3.89049 20.0485 3.97978C20.0481 4.06306 20.0477 4.14633 20.0472 4.23214C20.0469 4.30818 20.0465 4.38422 20.0462 4.46256C19.9958 4.71504 19.9071 4.79986 19.6932 4.95675C19.4037 5.04485 19.2611 5.04083 18.9706 4.95219C18.6976 4.77268 18.6783 4.67388 18.5995 4.37341C18.5784 4.1527 18.5776 3.93406 18.58 3.71261C18.5794 3.65503 18.5787 3.59746 18.5781 3.53815C18.5795 3.16193 18.6108 2.87547 18.861 2.56616C19.0274 2.45199 19.1316 2.446 19.3368 2.44568Z" fill="white"/>
</g>
<defs>
<clipPath id="clip0_21258_13758">
<rect width="40" height="37.3333" fill="white"/>
</clipPath>
</defs>
</svg>
