<svg width="14" height="14" viewBox="0 0 14 14" fill="none" xmlns="http://www.w3.org/2000/svg">
<path d="M12.3147 10.3758C12.3147 10.5678 12.2721 10.7652 12.1814 10.9572C12.0907 11.1492 11.9734 11.3305 11.8187 11.5012C11.5574 11.7892 11.2694 11.9972 10.9441 12.1305C10.6241 12.2638 10.2774 12.3332 9.90406 12.3332C9.36006 12.3332 8.77873 12.2052 8.1654 11.9438C7.55206 11.6825 6.93873 11.3305 6.33073 10.8878C5.7174 10.4398 5.13606 9.94384 4.5814 9.3945C4.03206 8.83984 3.53606 8.2585 3.0934 7.6505C2.65606 7.0425 2.30406 6.4345 2.04806 5.83184C1.79206 5.22384 1.66406 4.6425 1.66406 4.08784C1.66406 3.72517 1.72806 3.3785 1.85606 3.0585C1.98406 2.73317 2.18673 2.4345 2.4694 2.16784C2.81073 1.83184 3.18406 1.6665 3.57873 1.6665C3.72806 1.6665 3.8774 1.6985 4.01073 1.7625C4.1494 1.8265 4.27206 1.9225 4.36806 2.06117L5.6054 3.80517C5.7014 3.9385 5.77073 4.06117 5.81873 4.1785C5.86673 4.2905 5.8934 4.4025 5.8934 4.50384C5.8934 4.63184 5.85606 4.75984 5.7814 4.8825C5.71206 5.00517 5.61073 5.13317 5.48273 5.26117L5.0774 5.6825C5.01873 5.74117 4.99206 5.8105 4.99206 5.89584C4.99206 5.9385 4.9974 5.97584 5.00806 6.0185C5.02406 6.06117 5.04006 6.09317 5.05073 6.12517C5.14673 6.30117 5.31206 6.5305 5.54673 6.80784C5.78673 7.08517 6.04273 7.36784 6.32006 7.6505C6.60806 7.93317 6.8854 8.1945 7.16806 8.4345C7.4454 8.66917 7.67473 8.82917 7.85606 8.92517C7.88273 8.93584 7.91473 8.95184 7.95206 8.96784C7.99473 8.98384 8.0374 8.98917 8.0854 8.98917C8.17606 8.98917 8.2454 8.95717 8.30406 8.8985L8.7094 8.4985C8.84273 8.36517 8.97073 8.26384 9.0934 8.19984C9.21606 8.12517 9.33873 8.08784 9.47206 8.08784C9.5734 8.08784 9.68006 8.10917 9.7974 8.15717C9.91473 8.20517 10.0374 8.2745 10.1707 8.36517L11.9361 9.6185C12.0747 9.7145 12.1707 9.8265 12.2294 9.95984C12.2827 10.0932 12.3147 10.2265 12.3147 10.3758Z" fill="black"/>
</svg>
