<svg width="40" height="39" viewBox="0 0 40 39" fill="none" xmlns="http://www.w3.org/2000/svg">
<g opacity="0.8" clip-path="url(#clip0_21258_13723)">
<path d="M14.2778 -0.0209841C14.3287 -0.0213263 14.3796 -0.0216685 14.432 -0.022021C14.6015 -0.0229723 14.771 -0.0228538 14.9404 -0.0227287C15.0624 -0.023181 15.1843 -0.023695 15.3063 -0.024266C15.6369 -0.0255981 15.9675 -0.0259542 16.2981 -0.0260507C16.5049 -0.0261582 16.7117 -0.0264809 16.9185 -0.026881C17.6407 -0.0282777 18.3629 -0.0288952 19.0852 -0.0287763C19.7571 -0.0286856 20.4291 -0.0302782 21.1011 -0.0326647C21.679 -0.0346435 22.2569 -0.0354497 22.8348 -0.0353533C23.1795 -0.0353149 23.5242 -0.0357396 23.8689 -0.0373438C24.1934 -0.0388126 24.5179 -0.0388135 24.8423 -0.0377189C24.9609 -0.0375617 25.0795 -0.037913 25.1981 -0.0388306C26.129 -0.0455625 26.846 0.0919828 27.5769 0.67477C28.1254 1.20799 28.362 1.84552 28.3908 2.5858C28.3808 3.0864 28.2677 3.47527 28.049 3.9263C27.9934 4.04151 27.9934 4.04151 27.9367 4.15905C26.9878 5.98256 25.2832 7.42633 23.4397 8.38202C23.3881 8.38202 23.3365 8.38202 23.2834 8.38202C23.2834 8.43187 23.2834 8.48171 23.2834 8.53307C23.3836 8.55186 23.4838 8.57064 23.5871 8.59C23.9967 8.67851 24.3692 8.81955 24.7531 8.98147C24.8238 9.01112 24.8944 9.04077 24.9672 9.07132C26.1509 9.57864 27.2568 10.1874 28.2834 10.9497C28.3287 10.9828 28.3739 11.0159 28.4206 11.05C29.9189 12.1465 31.358 13.4323 32.5022 14.8768C32.5643 14.9498 32.6264 15.0228 32.6904 15.0981C36.2366 19.2807 38.8248 25.0757 38.3438 30.5609C38.2993 30.9296 38.2228 31.2831 38.1272 31.6424C38.1142 31.692 38.1012 31.7416 38.0878 31.7927C37.4633 34.1114 35.8662 36.1646 33.743 37.3947C32.3501 38.1754 30.8141 38.6773 29.1965 38.677C29.1155 38.6773 29.0344 38.6775 28.951 38.6778C28.6795 38.6787 28.408 38.679 28.1366 38.6792C27.9419 38.6797 27.7472 38.6802 27.5524 38.6808C26.9681 38.6822 26.3837 38.683 25.7993 38.6837C25.5235 38.684 25.2477 38.6844 24.9718 38.6848C24.0537 38.6861 23.1356 38.6872 22.2175 38.6877C21.9795 38.6879 21.7414 38.688 21.5034 38.6882C21.4443 38.6882 21.3851 38.6882 21.3241 38.6883C20.3678 38.6889 19.4115 38.6908 18.4552 38.6933C17.4713 38.6958 16.4873 38.6971 15.5034 38.6974C14.9518 38.6975 14.4003 38.6982 13.8487 38.7001C13.329 38.702 12.8092 38.7022 12.2895 38.7014C12.0998 38.7014 11.91 38.7019 11.7203 38.7029C8.88162 38.7176 6.539 37.9186 4.45528 36.0227C4.40905 35.9828 4.36283 35.943 4.3152 35.902C2.73707 34.4852 1.72363 32.1971 1.63292 30.1344C1.60225 28.8574 1.65599 27.6156 1.87715 26.356C1.88848 26.289 1.89981 26.2221 1.91149 26.1531C2.24647 24.2515 2.93199 22.2934 3.81826 20.566C3.9167 20.3736 4.01188 20.1799 4.10707 19.986C5.02776 18.1338 6.19467 16.3624 7.58028 14.8013C7.64231 14.7275 7.70435 14.6537 7.76827 14.5777C8.82986 13.3264 10.049 12.1233 11.4084 11.1763C11.5001 11.1085 11.5915 11.0404 11.6828 10.9722C12.9311 10.0473 15.0708 8.53307 16.7209 8.53307C16.7209 8.48322 16.7209 8.43338 16.7209 8.38202C16.6668 8.36324 16.6127 8.34445 16.557 8.32509C14.3887 7.42517 12.5962 5.47228 11.7209 3.39765C11.5146 2.69109 11.5943 1.98694 11.9184 1.32997C12.4074 0.488584 13.2731 -0.0181812 14.2778 -0.0209841ZM13.5959 1.96275C13.4165 2.20668 13.3628 2.35328 13.3566 2.65188C13.7203 4.3218 15.4078 5.63941 16.8 6.51768C17.4397 6.91074 18.1035 7.24856 18.7912 7.55602C18.8547 7.58489 18.9181 7.61377 18.9835 7.64352C19.5453 7.88608 20.0256 8.02425 20.6201 7.81149C20.7551 7.75489 20.8893 7.69639 21.0227 7.63626C21.0941 7.6052 21.1656 7.57413 21.2392 7.54213C23.4364 6.56993 25.5417 5.15894 26.5799 2.97462C26.6764 2.69652 26.6555 2.46741 26.5647 2.18932C26.3592 1.94238 26.165 1.77772 25.8615 1.66067C25.6354 1.63756 25.6354 1.63756 25.3827 1.64047C25.2354 1.63951 25.2354 1.63951 25.085 1.63852C24.9764 1.63858 24.8677 1.63864 24.759 1.63873C24.6444 1.63828 24.5298 1.63776 24.4151 1.63719C24.1039 1.63586 23.7927 1.6355 23.4815 1.63541C23.287 1.6353 23.0924 1.63498 22.8979 1.63458C22.219 1.63318 21.5401 1.63256 20.8612 1.63268C20.2288 1.63277 19.5964 1.63118 18.9641 1.62879C18.4208 1.62682 17.8775 1.62601 17.3343 1.62611C17.0099 1.62614 16.6856 1.62572 16.3613 1.62411C16.0561 1.62265 15.751 1.62264 15.4458 1.62374C15.334 1.6239 15.2223 1.62354 15.1105 1.62263C14.296 1.61011 14.296 1.61011 13.5959 1.96275ZM11.9553 12.8378C11.9108 12.873 11.8663 12.9082 11.8205 12.9445C10.8558 13.7106 9.93246 14.5408 9.16221 15.4937C8.98607 15.7081 8.80344 15.9157 8.6194 16.1238C8.21019 16.5939 7.85121 17.0917 7.50215 17.605C7.47186 17.6492 7.44157 17.6935 7.41036 17.739C6.90569 18.4766 6.43825 19.2266 6.01778 20.0122C5.96509 20.1081 5.9124 20.204 5.8597 20.2999C4.13019 23.4957 2.56823 27.8791 3.64294 31.4988C4.0096 32.6181 4.57097 33.6448 5.39278 34.5122C5.453 34.5766 5.51322 34.6409 5.57527 34.7072C6.59911 35.7498 8.00113 36.5322 9.45528 36.8534C9.51018 36.866 9.56507 36.8785 9.62163 36.8915C10.4866 37.0607 11.3652 37.0262 12.2436 37.0252C12.431 37.0255 12.6185 37.0259 12.806 37.0263C13.2606 37.0272 13.7152 37.0274 14.1698 37.0273C14.5398 37.0271 14.9097 37.0273 15.2797 37.0276C15.359 37.0276 15.359 37.0276 15.4398 37.0277C15.5472 37.0278 15.6546 37.0279 15.762 37.028C16.7672 37.0288 17.7724 37.0286 18.7775 37.0282C19.6946 37.0278 20.6116 37.0286 21.5287 37.0301C22.473 37.0315 23.4173 37.0322 24.3616 37.0319C24.8906 37.0317 25.4197 37.0319 25.9488 37.033C26.4467 37.0339 26.9445 37.0338 27.4424 37.0328C27.6243 37.0326 27.8062 37.0328 27.9881 37.0335C30.5374 37.0416 32.563 36.4391 34.4309 34.7105C35.9371 33.2053 36.6751 31.2145 36.6664 29.1384C36.606 26.3717 35.7963 23.5471 34.5334 21.0695C34.4834 20.9689 34.4335 20.8683 34.3836 20.7677C34.2305 20.4628 34.071 20.1614 33.9084 19.8612C33.8796 19.8079 33.8509 19.7546 33.8212 19.6996C33.3184 18.7758 32.7397 17.9155 32.1115 17.0669C32.0621 17 32.0621 17 32.0117 16.9318C30.8875 15.4214 29.5562 13.9936 28.049 12.8378C27.9874 12.7882 27.9258 12.7387 27.8623 12.6876C27.3028 12.2408 26.7073 11.8548 26.0959 11.4784C26.0135 11.427 25.9311 11.3756 25.8463 11.3226C21.2028 8.58747 15.9843 9.60786 11.9553 12.8378Z" fill="white"/>
<path d="M20.238 12.8383C20.5238 12.9923 20.681 13.1029 20.863 13.3669C20.8765 13.5752 20.8812 13.7756 20.8783 13.9838C20.8781 14.0438 20.8779 14.1038 20.8776 14.1656C20.8768 14.3573 20.8748 14.5488 20.8728 14.7404C20.872 14.8704 20.8713 15.0003 20.8707 15.1303C20.869 15.4487 20.8663 15.7672 20.863 16.0856C20.9532 16.0833 20.9532 16.0833 21.0453 16.0809C22.8913 16.0387 24.357 16.1208 25.7639 17.4105C26.1233 17.7867 26.5068 18.2218 26.5466 18.7525C26.4719 19.1076 26.3633 19.2332 26.0974 19.4841C25.8419 19.6076 25.5914 19.6093 25.3162 19.5596C24.9813 19.3765 24.7642 19.1066 24.5496 18.8044C24.1207 18.2292 23.4367 17.9655 22.738 17.8226C22.3373 17.7898 21.9373 17.7888 21.5353 17.7899C21.4198 17.7895 21.3042 17.7891 21.1887 17.7887C20.9475 17.788 20.7063 17.7882 20.4652 17.7889C20.1589 17.7898 19.8527 17.7883 19.5465 17.7861C19.308 17.7847 19.0696 17.7847 18.8312 17.7851C18.7184 17.7852 18.6057 17.7847 18.4929 17.7838C17.5584 17.777 16.6389 17.8461 15.9412 18.5023C15.8896 18.5023 15.838 18.5023 15.7849 18.5023C15.7633 18.5451 15.7416 18.588 15.7193 18.6321C15.5967 18.8651 15.4608 19.0902 15.3256 19.3165C15.0475 19.8487 15.085 20.5614 15.2051 21.1346C15.4515 21.8157 15.9601 22.3486 16.6253 22.661C16.9119 22.7763 17.2015 22.828 17.5064 22.8781C17.6109 22.8963 17.6109 22.8963 17.7174 22.9149C18.8823 23.1141 20.0535 23.283 21.2231 23.4542C21.49 23.4933 21.7568 23.5335 22.0235 23.5743C22.1704 23.5964 22.3175 23.6175 22.4646 23.6386C23.908 23.861 25.1159 24.3967 26.0001 25.5541C26.6665 26.5616 26.893 27.7562 26.6383 28.9254C26.4863 29.5446 26.2385 30.0587 25.863 30.5856C25.8067 30.6651 25.7503 30.7445 25.6921 30.8264C24.785 31.7032 23.7312 32.2483 22.4423 32.2619C22.2528 32.2609 22.0633 32.2591 21.8738 32.2565C21.7764 32.2559 21.6789 32.2552 21.5785 32.2545C21.34 32.2527 21.1015 32.2502 20.863 32.2471C20.8655 32.3677 20.8655 32.3677 20.868 32.4907C20.8737 32.7898 20.8773 33.0888 20.8802 33.3879C20.8818 33.5172 20.8839 33.6465 20.8866 33.7758C20.8904 33.962 20.8922 34.1481 20.8936 34.3343C20.8952 34.3918 20.8968 34.4493 20.8985 34.5086C20.8986 34.791 20.8747 34.9485 20.714 35.1879C20.4813 35.4094 20.3375 35.482 20.0134 35.5228C19.7033 35.4868 19.5431 35.3789 19.3005 35.1924C19.1032 34.9063 19.1245 34.68 19.129 34.349C19.1293 34.289 19.1295 34.229 19.1297 34.1671C19.1306 33.9755 19.1325 33.7839 19.1345 33.5923C19.1353 33.4624 19.136 33.3324 19.1367 33.2025C19.1384 32.884 19.1411 32.5656 19.1443 32.2471C19.0842 32.2487 19.024 32.2503 18.9621 32.2519C17.116 32.2941 15.6504 32.212 14.2435 30.9222C13.884 30.546 13.5005 30.111 13.4607 29.5803C13.5354 29.2252 13.6441 29.0995 13.9099 28.8487C14.1655 28.7251 14.4159 28.7234 14.6912 28.7731C15.0261 28.9563 15.2432 29.2262 15.4578 29.5284C15.8865 30.1032 16.5707 30.368 17.2693 30.5101C17.6769 30.543 18.0832 30.5439 18.4918 30.5429C18.6093 30.5432 18.7268 30.5436 18.8443 30.5441C19.0895 30.5447 19.3347 30.5446 19.5799 30.5438C19.8915 30.5429 20.2032 30.5445 20.5149 30.5467C20.7572 30.5481 20.9996 30.548 21.242 30.5476C21.3568 30.5476 21.4716 30.548 21.5864 30.549C22.5214 30.5556 23.364 30.4735 24.0662 29.8304C24.1177 29.8304 24.1693 29.8304 24.2224 29.8304C24.2441 29.7876 24.2657 29.7448 24.288 29.7006C24.4106 29.4676 24.5466 29.2426 24.6817 29.0162C24.9599 28.4841 24.9223 27.7713 24.8023 27.1981C24.5602 26.529 24.0545 25.9829 23.3976 25.6743C23.0292 25.5333 22.6429 25.4784 22.2537 25.4148C22.1157 25.3912 22.1157 25.3912 21.975 25.3671C20.839 25.1753 19.6987 25.0072 18.5583 24.8421C16.8068 24.5876 15.3498 24.3179 14.1443 22.958C13.6611 22.3255 13.3431 21.5552 13.2849 20.7679C13.28 20.705 13.2751 20.642 13.27 20.5771C13.2248 19.5285 13.5326 18.6056 14.1443 17.7471C14.2007 17.6677 14.2571 17.5882 14.3152 17.5064C15.2223 16.6295 16.2762 16.0844 17.565 16.0709C17.7545 16.0719 17.944 16.0737 18.1336 16.0762C18.231 16.0769 18.3284 16.0776 18.4288 16.0783C18.6673 16.08 18.9058 16.0825 19.1443 16.0856C19.1418 15.9651 19.1418 15.9651 19.1393 15.8421C19.1337 15.543 19.1301 15.2439 19.1271 14.9448C19.1256 14.8155 19.1234 14.6862 19.1207 14.557C19.1169 14.3708 19.1152 14.1847 19.1138 13.9985C19.1122 13.941 19.1106 13.8835 19.1089 13.8242C19.1088 13.5417 19.1327 13.3842 19.2933 13.1448C19.5908 12.8618 19.8185 12.7896 20.238 12.8383Z" fill="white"/>
</g>
<defs>
<clipPath id="clip0_21258_13723">
<rect width="40" height="38.6667" fill="white"/>
</clipPath>
</defs>
</svg>
