<svg width="28" height="28" viewBox="0 0 28 28" fill="none" xmlns="http://www.w3.org/2000/svg">
<path d="M27.2829 22.4452C27.2829 22.9252 27.1763 23.4185 26.9496 23.8985C26.7229 24.3785 26.4296 24.8319 26.0429 25.2585C25.3896 25.9785 24.6696 26.4985 23.8563 26.8319C23.0562 27.1652 22.1896 27.3385 21.2563 27.3385C19.8963 27.3385 18.4429 27.0185 16.9096 26.3652C15.3763 25.7119 13.8429 24.8319 12.3229 23.7252C10.7896 22.6052 9.33625 21.3652 7.94958 19.9919C6.57625 18.6052 5.33625 17.1519 4.22958 15.6319C3.13625 14.1119 2.25625 12.5919 1.61625 11.0852C0.97625 9.56521 0.65625 8.11187 0.65625 6.72521C0.65625 5.81854 0.81625 4.95187 1.13625 4.15188C1.45625 3.33854 1.96292 2.59187 2.66958 1.92521C3.52292 1.08521 4.45625 0.671875 5.44292 0.671875C5.81625 0.671875 6.18958 0.751875 6.52292 0.911875C6.86958 1.07188 7.17625 1.31187 7.41625 1.65854L10.5096 6.01854C10.7496 6.35187 10.9229 6.65854 11.0429 6.95187C11.1629 7.23187 11.2296 7.51187 11.2296 7.76521C11.2296 8.08521 11.1363 8.40521 10.9496 8.71187C10.7763 9.01854 10.5229 9.33854 10.2029 9.65854L9.18958 10.7119C9.04292 10.8585 8.97625 11.0319 8.97625 11.2452C8.97625 11.3519 8.98958 11.4452 9.01625 11.5519C9.05625 11.6585 9.09625 11.7385 9.12292 11.8185C9.36292 12.2585 9.77625 12.8319 10.3629 13.5252C10.9629 14.2185 11.6029 14.9252 12.2962 15.6319C13.0162 16.3385 13.7096 16.9919 14.4163 17.5919C15.1096 18.1785 15.6829 18.5785 16.1362 18.8185C16.2029 18.8452 16.2829 18.8852 16.3763 18.9252C16.4829 18.9652 16.5896 18.9785 16.7096 18.9785C16.9363 18.9785 17.1096 18.8985 17.2563 18.7519L18.2696 17.7519C18.6029 17.4185 18.9229 17.1652 19.2296 17.0052C19.5363 16.8185 19.8429 16.7252 20.1763 16.7252C20.4296 16.7252 20.6963 16.7785 20.9896 16.8985C21.2829 17.0185 21.5896 17.1919 21.9229 17.4185L26.3363 20.5519C26.6829 20.7919 26.9229 21.0719 27.0696 21.4052C27.2029 21.7385 27.2829 22.0719 27.2829 22.4452Z" fill="white"/>
</svg>
