<svg width="32" height="32" viewBox="0 0 32 32" fill="none" xmlns="http://www.w3.org/2000/svg">
<path d="M31.9737 15.0564C31.4298 5.77658 22.9989 -1.37525 13.2881 0.224715C6.60098 1.32869 1.24168 6.75254 0.201817 13.4404C-0.406104 17.3123 0.393828 20.9762 2.1376 24.0002L0.713763 29.2961C0.393804 30.496 1.49763 31.584 2.68148 31.248L7.89682 29.8081C10.2645 31.2 13.0322 32 15.9918 32C25.0146 32 32.5016 24.0482 31.9737 15.0564ZM23.8148 21.9522C23.6708 22.2402 23.4948 22.5122 23.2708 22.7682C22.8709 23.2002 22.4389 23.5202 21.959 23.7122C21.479 23.9202 20.9511 24.0162 20.3912 24.0162C19.5753 24.0162 18.6954 23.8242 17.7835 23.4242C16.8556 23.0242 15.9438 22.4962 15.0319 21.8402C14.1041 21.1682 13.2401 20.4163 12.4082 19.6003C11.5764 18.7683 10.8404 17.8883 10.1685 16.9763C9.51258 16.0643 8.98468 15.1524 8.60073 14.2404C8.21678 13.3284 8.02483 12.4484 8.02483 11.6165C8.02483 11.0725 8.1208 10.5445 8.31278 10.0645C8.50476 9.5685 8.80874 9.12052 9.24069 8.72053C9.75262 8.20854 10.3125 7.96854 10.9044 7.96854C11.1284 7.96854 11.3523 8.01653 11.5603 8.11253C11.7683 8.20853 11.9603 8.35252 12.1043 8.56052L13.96 11.1844C14.104 11.3924 14.216 11.5684 14.28 11.7444C14.36 11.9204 14.392 12.0804 14.392 12.2404C14.392 12.4324 14.328 12.6244 14.216 12.8164C14.104 13.0084 13.96 13.2004 13.768 13.3924L13.1601 14.0324C13.0641 14.1284 13.0322 14.2244 13.0322 14.3524C13.0322 14.4164 13.0481 14.4804 13.0641 14.5444C13.0961 14.6084 13.1122 14.6564 13.1282 14.7044C13.2722 14.9764 13.5281 15.3123 13.88 15.7283C14.248 16.1443 14.632 16.5763 15.0479 16.9923C15.4799 17.4243 15.8958 17.8083 16.3278 18.1763C16.7437 18.5283 17.0956 18.7683 17.3676 18.9123C17.4156 18.9283 17.4636 18.9603 17.5116 18.9763C17.5756 19.0083 17.6396 19.0083 17.7196 19.0083C17.8636 19.0083 17.9596 18.9603 18.0556 18.8643L18.6634 18.2563C18.8714 18.0483 19.0634 17.9043 19.2394 17.8083C19.4314 17.6963 19.6073 17.6323 19.8153 17.6323C19.9753 17.6323 20.1353 17.6643 20.3112 17.7443C20.4872 17.8243 20.6791 17.9203 20.8711 18.0643L23.5268 19.9523C23.7348 20.0963 23.8787 20.2723 23.9747 20.4643C24.0547 20.6723 24.1027 20.8642 24.1027 21.0882C24.0067 21.3602 23.9428 21.6642 23.8148 21.9522Z" fill="white"/>
<path d="M23.8148 21.9522C23.6708 22.2402 23.4948 22.5122 23.2708 22.7682C22.8709 23.2002 22.4389 23.5202 21.959 23.7122C21.479 23.9202 20.9511 24.0162 20.3912 24.0162C19.5753 24.0162 18.6954 23.8242 17.7835 23.4242C16.8556 23.0242 15.9438 22.4962 15.0319 21.8402C14.1041 21.1682 13.2401 20.4163 12.4082 19.6003C11.5764 18.7683 10.8404 17.8883 10.1685 16.9763C9.51258 16.0643 8.98468 15.1524 8.60073 14.2404C8.21678 13.3284 8.02483 12.4484 8.02483 11.6165C8.02483 11.0725 8.1208 10.5445 8.31278 10.0645C8.50476 9.5685 8.80874 9.12052 9.24069 8.72053C9.75262 8.20854 10.3125 7.96854 10.9044 7.96854C11.1284 7.96854 11.3523 8.01653 11.5603 8.11253C11.7683 8.20853 11.9603 8.35252 12.1043 8.56052L13.96 11.1844C14.104 11.3924 14.216 11.5684 14.28 11.7444C14.36 11.9204 14.392 12.0804 14.392 12.2404C14.392 12.4324 14.328 12.6244 14.216 12.8164C14.104 13.0084 13.96 13.2004 13.768 13.3924L13.1601 14.0324C13.0641 14.1284 13.0322 14.2244 13.0322 14.3524C13.0322 14.4164 13.0481 14.4804 13.0641 14.5444C13.0961 14.6084 13.1122 14.6564 13.1282 14.7044C13.2722 14.9764 13.5281 15.3123 13.88 15.7283C14.248 16.1443 14.632 16.5763 15.0479 16.9923C15.4799 17.4243 15.8958 17.8083 16.3278 18.1763C16.7437 18.5283 17.0956 18.7683 17.3676 18.9123C17.4156 18.9283 17.4636 18.9603 17.5116 18.9763C17.5756 19.0083 17.6396 19.0083 17.7196 19.0083C17.8636 19.0083 17.9596 18.9603 18.0556 18.8643L18.6634 18.2563C18.8714 18.0483 19.0634 17.9043 19.2394 17.8083C19.4314 17.6963 19.6073 17.6323 19.8153 17.6323C19.9753 17.6323 20.1353 17.6643 20.3112 17.7443C20.4872 17.8243 20.6791 17.9203 20.8711 18.0643L23.5268 19.9523C23.7348 20.0963 23.8787 20.2723 23.9747 20.4643C24.0547 20.6723 24.1027 20.8642 24.1027 21.0882C24.0067 21.3602 23.9428 21.6642 23.8148 21.9522Z" fill="black"/>
</svg>
