<svg width="40" height="39" viewBox="0 0 40 39" fill="none" xmlns="http://www.w3.org/2000/svg">
<g opacity="0.8">
<path d="M37.6193 16.712C38.1886 17.1589 38.6849 17.8089 38.7678 18.5293C38.8448 19.896 38.4014 20.658 37.5608 21.7288C37.3413 22.0102 37.1282 22.2958 36.9147 22.5813C36.8301 22.6938 36.7454 22.8063 36.6608 22.9188C36.6189 22.9745 36.577 23.0302 36.5338 23.0876C35.7298 24.1566 34.9258 25.2256 34.1217 26.2946C34.0798 26.3503 34.0379 26.4061 33.9947 26.4635C33.9103 26.5757 33.8258 26.6879 33.7412 26.8C33.5258 27.0857 33.3119 27.3722 33.1006 27.6607C31.8248 29.3956 30.309 30.7617 28.0632 31.1733C27.8174 31.2076 27.5857 31.2182 27.3374 31.2191C27.1969 31.2199 27.1969 31.2199 27.0536 31.2206C26.9011 31.2209 26.9011 31.2209 26.7455 31.2212C26.6365 31.2217 26.5275 31.2222 26.4185 31.2228C26.1844 31.2239 25.9502 31.2247 25.7161 31.2255C25.3453 31.2266 24.9746 31.2284 24.6039 31.2303C23.5498 31.2357 22.4957 31.2402 21.4417 31.244C20.8591 31.2461 20.2765 31.2488 19.6939 31.252C19.3259 31.254 18.9579 31.2553 18.5898 31.2562C18.3602 31.2569 18.1306 31.2582 17.9009 31.2597C17.7448 31.2605 17.5886 31.2606 17.4325 31.2606C16.7209 31.2661 16.0356 31.2733 15.4694 31.7333C15.4694 32.0122 15.5728 32.162 15.7038 32.4085C15.8741 32.8545 15.8178 33.3647 15.6429 33.8008C15.2487 34.5573 14.369 35.2118 13.7533 35.808C13.6401 35.9179 13.5274 36.0282 13.4151 36.1388C13.251 36.3005 13.0856 36.461 12.9199 36.6212C12.8703 36.6706 12.8206 36.7199 12.7695 36.7708C12.4595 37.067 12.2335 37.2184 11.7975 37.2846C11.5387 37.2143 11.5387 37.2143 11.3288 37.0596C11.1919 36.781 11.1389 36.626 11.2468 36.3318C11.4699 35.987 11.7556 35.7292 12.0593 35.449C12.19 35.3261 12.3206 35.2031 12.4512 35.0801C12.6569 34.8877 12.863 34.6955 13.0695 34.5038C13.2691 34.318 13.4675 34.1311 13.6658 33.944C13.7279 33.887 13.79 33.83 13.8539 33.7713C14.0865 33.5511 14.2692 33.3658 14.4102 33.0815C14.3166 32.4784 13.4803 31.9114 13.0498 31.496C12.9727 31.4214 12.8956 31.3468 12.8186 31.2722C12.5679 31.0295 12.3169 30.7873 12.0658 30.5451C11.9789 30.4613 11.8921 30.3775 11.8052 30.2937C11.4442 29.9455 11.0831 29.5973 10.7217 29.2494C10.2052 28.7522 9.68935 28.2544 9.17443 27.7557C8.81125 27.4041 8.44732 27.0532 8.08283 26.7028C7.86549 26.4938 7.64849 26.2845 7.43228 26.0745C7.22927 25.8773 7.02536 25.681 6.82071 25.4854C6.71019 25.3793 6.60064 25.2723 6.49112 25.1652C6.42487 25.1022 6.35863 25.0393 6.29037 24.9744C6.23333 24.9193 6.17628 24.8643 6.11751 24.8076C5.89887 24.6542 5.7377 24.6233 5.46937 24.6067C5.30103 24.6891 5.30103 24.6891 5.16523 24.8287C5.08563 24.902 5.08563 24.902 5.00442 24.9767C4.9516 25.0279 4.89879 25.0791 4.84437 25.1318C4.79487 25.178 4.74537 25.2242 4.69437 25.2717C4.54191 25.4148 4.39176 25.5599 4.24196 25.7056C4.18772 25.758 4.13349 25.8103 4.07761 25.8643C3.90657 26.0294 3.73579 26.1948 3.56508 26.3602C3.33845 26.5798 3.11157 26.7992 2.88454 27.0184C2.80666 27.0941 2.80666 27.0941 2.72721 27.1714C2.67919 27.2177 2.63116 27.2641 2.58169 27.3118C2.53951 27.3527 2.49733 27.3936 2.45387 27.4358C2.23026 27.6331 2.01509 27.6333 1.71754 27.6276C1.56312 27.6074 1.56312 27.6074 1.36781 27.4949C1.23568 27.2834 1.19224 27.1142 1.20536 26.8668C1.26138 26.6693 1.34738 26.5731 1.49145 26.4229C1.54113 26.3707 1.59081 26.3186 1.642 26.2648C1.71897 26.1867 1.71897 26.1867 1.7975 26.1071C1.84399 26.0599 1.89049 26.0127 1.93839 25.964C2.08208 25.8204 2.22721 25.6782 2.37306 25.5365C2.42611 25.485 2.47916 25.4334 2.53381 25.3803C2.64518 25.2724 2.75666 25.1645 2.86825 25.0568C2.98131 24.9473 3.09402 24.8376 3.20638 24.7275C3.37055 24.5666 3.53574 24.4068 3.70119 24.2472C3.7752 24.1741 3.7752 24.1741 3.8507 24.0996C4.34979 23.6226 4.8789 23.288 5.59297 23.2508C6.07006 23.2649 6.45409 23.4234 6.87562 23.6315C6.92041 23.5873 6.9652 23.5431 7.01135 23.4976C8.47728 22.0565 10.1312 20.4802 12.3777 20.3957C12.4821 20.395 12.5866 20.3947 12.691 20.3947C12.7777 20.3943 12.7777 20.3943 12.8661 20.3939C13.0594 20.3931 13.2527 20.3928 13.4459 20.3925C13.5847 20.392 13.7234 20.3915 13.8622 20.391C14.3176 20.3894 14.7729 20.3886 15.2283 20.3879C15.3853 20.3876 15.5423 20.3873 15.6993 20.387C16.4371 20.3855 17.1749 20.3845 17.9127 20.3838C18.7632 20.3831 19.6136 20.3811 20.4641 20.3781C21.1222 20.3758 21.7803 20.3747 22.4385 20.3745C22.8312 20.3743 23.2239 20.3736 23.6166 20.3717C23.9863 20.37 24.356 20.3697 24.7258 20.3704C24.861 20.3705 24.9962 20.37 25.1314 20.369C26.2211 20.3611 27.0677 20.4959 27.8913 21.2309C28.0914 21.4513 28.0914 21.4513 28.2038 21.606C28.5614 21.499 28.7531 21.3251 29.0094 21.0668C29.2996 20.776 29.5977 20.5068 29.9151 20.2435C30.1914 20.0108 30.4568 19.7672 30.7233 19.5243C31.1812 19.1086 31.6417 18.6963 32.1079 18.2892C32.2847 18.134 32.4588 17.9762 32.6322 17.8174C34.0522 16.5191 35.7292 15.443 37.6193 16.712ZM34.0875 18.3053C33.9777 18.4066 33.8678 18.5079 33.7579 18.6092C33.704 18.6593 33.65 18.7095 33.5944 18.7611C33.3712 18.9672 33.1438 19.1686 32.9157 19.3696C32.833 19.4427 32.7502 19.5159 32.6676 19.5891C32.5859 19.6613 32.5042 19.7334 32.4225 19.8056C31.887 20.2791 31.3528 20.7537 30.8209 21.2309C30.4422 21.5706 30.0633 21.9101 29.6832 22.2484C29.6433 22.2841 29.6033 22.3198 29.5621 22.3566C29.244 22.6392 29.244 22.6392 29.0881 22.7475C28.8567 22.9103 28.7586 22.9948 28.6987 23.2687C28.6998 23.3544 28.7008 23.4401 28.7018 23.5283C28.6733 24.348 28.4188 24.9937 27.8131 25.5819C27.1348 26.1362 26.4703 26.3674 25.5857 26.3612C25.5151 26.3616 25.4445 26.362 25.3718 26.3624C25.1408 26.3634 24.9099 26.3628 24.679 26.362C24.5176 26.3622 24.3563 26.3624 24.195 26.3627C23.8581 26.363 23.5212 26.3625 23.1844 26.3614C22.7522 26.3602 22.3201 26.3609 21.8879 26.3623C21.5553 26.3631 21.2228 26.3628 20.8902 26.3622C20.7308 26.3621 20.5714 26.3623 20.412 26.3628C20.1898 26.3634 19.9677 26.3625 19.7455 26.3612C19.6795 26.3617 19.6136 26.3621 19.5456 26.3626C19.0959 26.3579 19.0959 26.3579 18.9292 26.2269C18.8042 26.0777 18.7972 25.9966 18.7995 25.807C18.7988 25.7559 18.7982 25.7049 18.7976 25.6523C18.8404 25.4524 18.8888 25.4012 19.0631 25.2819C19.2749 25.2594 19.4691 25.2506 19.681 25.2518C19.7754 25.251 19.7754 25.251 19.8716 25.2502C20.08 25.2487 20.2884 25.2488 20.4968 25.2488C20.642 25.2479 20.7871 25.2469 20.9322 25.2458C21.3149 25.243 21.6976 25.2415 22.0804 25.2404C22.6913 25.2385 23.3022 25.2355 23.9131 25.2312C24.1259 25.23 24.3386 25.2297 24.5514 25.2295C24.6833 25.2288 24.8152 25.228 24.9471 25.2272C25.0056 25.2274 25.064 25.2276 25.1243 25.2278C25.8145 25.2214 26.4213 25.1206 26.9248 24.6337C27.3556 24.1751 27.459 23.7979 27.4472 23.182C27.3911 22.6698 27.1266 22.3085 26.7194 21.9811C26.2106 21.6344 25.7123 21.5969 25.0937 21.596C25.0431 21.5958 24.9925 21.5957 24.9403 21.5955C24.7722 21.595 24.604 21.5951 24.4359 21.5951C24.3147 21.5949 24.1935 21.5947 24.0723 21.5944C23.7439 21.5937 23.4156 21.5935 23.0872 21.5935C22.8815 21.5934 22.6758 21.5933 22.4701 21.5931C21.7509 21.5924 21.0317 21.5921 20.3125 21.5921C19.6448 21.5922 18.9772 21.5914 18.3095 21.5902C17.7343 21.5892 17.1591 21.5888 16.5839 21.5889C16.2413 21.5889 15.8987 21.5887 15.556 21.5879C15.233 21.5871 14.91 21.5871 14.587 21.5877C14.4695 21.5878 14.352 21.5876 14.2345 21.5871C12.1429 21.5795 10.5618 21.9699 9.04602 23.4042C8.65644 23.7757 8.27272 24.1526 7.89125 24.5317C7.99796 24.7611 8.11866 24.9187 8.30356 25.0957C8.35637 25.1466 8.40917 25.1975 8.46357 25.25C8.52145 25.305 8.57933 25.36 8.63897 25.4167C8.69995 25.4753 8.76093 25.5339 8.82376 25.5942C9.02546 25.7878 9.2277 25.9808 9.42995 26.1739C9.56988 26.308 9.70979 26.4421 9.84966 26.5762C10.1803 26.8932 10.5113 27.2098 10.8424 27.5263C11.2194 27.8866 11.596 28.2474 11.9726 28.6083C12.7471 29.3504 13.5221 30.0919 14.2975 30.8331C14.6046 30.7183 14.8575 30.5842 15.1291 30.4068C15.7535 30.0717 16.2885 30.0504 16.9933 30.0529C17.0991 30.0525 17.2049 30.0519 17.3107 30.0513C17.5377 30.0502 17.7646 30.0498 17.9916 30.0499C18.3517 30.05 18.7117 30.0485 19.0718 30.0468C19.7722 30.0438 20.4727 30.0424 21.1731 30.0411C22.0624 30.0395 22.9516 30.0369 23.8409 30.0331C24.1396 30.0319 24.4383 30.0309 24.737 30.0308C27.0266 30.0299 29.0559 30.0128 30.7916 28.3857C31.2264 27.9616 31.5788 27.4945 31.9267 27.0038C32.1212 26.7328 32.3237 26.4672 32.525 26.2008C32.6118 26.0856 32.6986 25.9703 32.7854 25.855C32.8287 25.7975 32.8721 25.7399 32.9168 25.6805C33.1297 25.3977 33.3425 25.1147 33.5553 24.8318C33.6399 24.7192 33.7246 24.6067 33.8092 24.4942C33.8511 24.4385 33.893 24.3828 33.9362 24.3254C35.3327 22.4687 35.3327 22.4687 35.4598 22.2997C35.5439 22.1879 35.6279 22.0761 35.712 21.9642C35.9315 21.672 36.1517 21.3803 36.373 21.0894C36.4187 21.0291 36.4644 20.9688 36.5116 20.9067C36.5985 20.7921 36.6857 20.6776 36.7731 20.5633C37.2659 19.9124 37.5461 19.4404 37.4225 18.6053C37.2367 18.1308 36.8551 17.7622 36.3791 17.5469C36.1611 17.4764 35.987 17.4551 35.7575 17.452C35.6885 17.4498 35.6195 17.4477 35.5484 17.4455C34.9324 17.536 34.5183 17.8983 34.0875 18.3053Z" fill="white"/>
<path d="M18.5481 2.60759C18.928 2.88843 19.2706 3.20647 19.6136 3.52735C19.6889 3.59146 19.6889 3.59146 19.7658 3.65687C20.2766 4.10276 20.712 4.73664 21.0198 5.32776C21.0832 5.32766 21.1467 5.32757 21.2121 5.32747C22.7568 5.32527 24.3015 5.32598 25.8463 5.3299C26.5933 5.33172 27.3403 5.33257 28.0873 5.33111C28.7386 5.32985 29.3898 5.33042 30.041 5.33319C30.3857 5.33459 30.7304 5.33508 31.0751 5.33337C31.3999 5.33178 31.7245 5.33266 32.0493 5.3354C32.1682 5.33598 32.2871 5.33566 32.406 5.33438C33.4149 5.3243 33.4149 5.3243 33.8098 5.65085C33.8978 5.74112 33.9838 5.83326 34.0667 5.9279C34.1256 5.9813 34.1845 6.0347 34.2451 6.08972C34.2921 6.13474 34.339 6.17976 34.3874 6.22615C34.4418 6.2782 34.4963 6.33024 34.5524 6.38386C34.6369 6.46523 34.6369 6.46523 34.7231 6.54825C34.7827 6.60543 34.8424 6.66261 34.9038 6.72153C35.0286 6.84127 35.1532 6.96112 35.2778 7.08105C35.4691 7.26519 35.6609 7.44893 35.8527 7.63263C35.9743 7.74938 36.0958 7.86616 36.2173 7.98296C36.3034 8.06547 36.3034 8.06547 36.3913 8.14965C36.4441 8.20051 36.4968 8.25137 36.5511 8.30378C36.5976 8.3485 36.6441 8.39323 36.6921 8.43931C36.8941 8.65099 36.92 8.8542 36.9159 9.13899C36.8702 9.34386 36.7912 9.43158 36.6437 9.58485C36.5939 9.63693 36.544 9.689 36.4927 9.74266C36.227 10.0096 35.9585 10.2734 35.6862 10.5341C35.6267 10.5914 35.5672 10.6486 35.5058 10.7076C35.3811 10.8274 35.2563 10.9471 35.1314 11.0667C34.9396 11.2505 34.7483 11.4346 34.5569 11.6188C34.4354 11.7355 34.3137 11.8522 34.1921 11.9688C34.1348 12.024 34.0775 12.0792 34.0185 12.136C33.9655 12.1866 33.9126 12.2372 33.858 12.2894C33.8114 12.3341 33.7648 12.3787 33.7168 12.4247C33.4966 12.6186 33.2851 12.6443 32.9885 12.6387C32.6417 12.5695 32.4312 12.3153 32.1917 12.0793C32.115 12.0063 32.0382 11.9334 31.9613 11.8607C31.7499 11.6601 31.5407 11.4575 31.3323 11.2541C31.0875 11.3581 30.9246 11.4785 30.7384 11.6623C30.6873 11.7123 30.6361 11.7622 30.5834 11.8137C30.5308 11.8657 30.4783 11.9178 30.4241 11.9715C30.3191 12.0749 30.2139 12.1781 30.1086 12.2812C30.0623 12.327 30.016 12.3728 29.9683 12.42C29.7491 12.6192 29.5379 12.6444 29.2385 12.6387C28.8917 12.5695 28.6812 12.3153 28.4417 12.0793C28.365 12.0063 28.2882 11.9334 28.2113 11.8607C27.9999 11.6601 27.7907 11.4575 27.5823 11.2541C27.3375 11.3581 27.1746 11.4785 26.9884 11.6623C26.9373 11.7123 26.8861 11.7622 26.8334 11.8137C26.7808 11.8657 26.7283 11.9178 26.6741 11.9715C26.5691 12.0749 26.4639 12.1781 26.3586 12.2812C26.3123 12.327 26.266 12.3728 26.2183 12.42C25.9812 12.6355 25.8001 12.6106 25.4833 12.6032C25.387 12.6013 25.2908 12.5994 25.1916 12.5974C25.14 12.5963 25.0883 12.5953 25.0351 12.5941C24.7035 12.5881 24.3718 12.5872 24.0401 12.5855C23.749 12.5837 23.4581 12.5801 23.1671 12.5723C21.9633 12.4858 21.9633 12.4858 20.8501 12.7796C20.5669 13.0528 20.4479 13.3716 20.3167 13.7297C19.1742 15.3001 17.2373 16.358 15.3158 16.7365C13.9946 16.9592 12.5287 16.9197 11.2542 16.5053C11.1804 16.4818 11.1804 16.4818 11.1051 16.4578C9.92556 16.0733 8.93145 15.4725 8.05106 14.6299C7.95045 14.5339 7.95045 14.5339 7.84781 14.4359C7.78598 14.3761 7.72414 14.3164 7.66043 14.2548C7.59457 14.1913 7.59457 14.1913 7.52738 14.1264C5.92186 12.468 5.55671 10.3176 5.61518 8.13885C5.64416 7.5997 5.76198 7.11265 5.94168 6.60305C5.95801 6.55581 5.97434 6.50857 5.99116 6.4599C6.40662 5.28493 7.0696 4.33013 7.97293 3.45233C8.02319 3.39867 8.07344 3.345 8.12522 3.2897C10.7145 0.587678 15.5676 0.527526 18.5481 2.60759ZM9.06668 4.20251C9.01734 4.2438 8.96799 4.28509 8.91715 4.32763C7.74452 5.36878 7.00355 6.97864 6.92771 8.49577C6.87126 10.469 7.44849 12.1527 8.86405 13.6139C10.2672 14.9349 12.0019 15.5535 13.9533 15.5535C15.199 15.5377 16.1947 15.2212 17.2698 14.6299C17.3363 14.5936 17.4027 14.5574 17.4712 14.52C18.593 13.8516 19.5463 12.7885 20.0823 11.6292C20.0823 11.5797 20.0823 11.5302 20.0823 11.4792C20.1441 11.4819 20.2058 11.4846 20.2695 11.4874C20.8599 11.5119 21.4497 11.528 22.0407 11.5353C22.3444 11.5394 22.6473 11.5463 22.9507 11.5607C24.5084 11.6569 24.5084 11.6569 25.865 11.0297C26.2511 10.6909 26.5865 10.3106 26.9032 9.91155C27.0919 9.68646 27.17 9.68163 27.4749 9.64125C27.9237 9.64976 28.143 9.90956 28.4417 10.2039C28.5184 10.2769 28.5952 10.3497 28.6721 10.4225C28.8834 10.6231 29.0926 10.8256 29.3011 11.0291C29.5459 10.9251 29.7087 10.8047 29.8949 10.6209C29.9461 10.5709 29.9972 10.521 30.05 10.4695C30.1025 10.4174 30.1551 10.3654 30.2093 10.3117C30.3143 10.2083 30.4194 10.105 30.5248 10.002C30.5711 9.95618 30.6174 9.91038 30.6651 9.8632C30.8842 9.66395 31.0955 9.63879 31.3949 9.64447C31.7417 9.71367 31.9522 9.96787 32.1917 10.2039C32.2684 10.2769 32.3452 10.3497 32.4221 10.4225C32.6334 10.6231 32.8426 10.8256 33.0511 11.0291C33.364 10.9088 33.5727 10.6974 33.8042 10.4705C33.8454 10.4308 33.8866 10.391 33.929 10.3501C34.0599 10.2236 34.1902 10.0965 34.3206 9.96945C34.4095 9.88336 34.4984 9.7973 34.5873 9.71128C34.8048 9.50078 35.0218 9.28983 35.2386 9.07862C34.8235 8.14344 33.6132 6.9349 32.6443 6.53123C31.8037 6.27236 30.8857 6.33231 30.0155 6.36732C29.6647 6.37904 29.3139 6.378 28.963 6.37847C28.3022 6.38123 27.6423 6.39497 26.9818 6.41296C26.2284 6.43293 25.475 6.4402 24.7213 6.44656C23.1746 6.45988 21.6285 6.48865 20.0823 6.52804C20.0588 6.47037 20.0353 6.41269 20.0111 6.35328C19.3302 4.74875 17.9454 3.60252 16.3323 2.90377C13.8242 1.9234 11.0499 2.47216 9.06668 4.20251Z" fill="white"/>
<path d="M12.9996 6.41475C13.6873 6.8904 14.2042 7.51949 14.3732 8.3271C14.4777 9.25861 14.3947 10.0817 13.8117 10.8589C13.2794 11.4655 12.6306 11.9327 11.7895 12.0197C10.7808 12.0869 9.93955 11.9694 9.14399 11.3257C8.47852 10.7157 8.12299 10.0669 8.08641 9.17965C8.07429 8.24087 8.29439 7.51896 8.98256 6.82676C10.0591 5.83992 11.7251 5.65164 12.9996 6.41475ZM9.72047 8.01971C9.3982 8.46883 9.39536 8.92344 9.45131 9.45236C9.58985 9.95083 9.95495 10.2906 10.3888 10.5776C10.8575 10.7982 11.3953 10.8101 11.8976 10.6814C12.3764 10.4784 12.7513 10.0969 12.9804 9.64811C13.1293 9.19754 13.1282 8.66446 12.9279 8.22864C12.6556 7.78304 12.2299 7.43317 11.7169 7.27687C10.8236 7.17511 10.2968 7.3724 9.72047 8.01971Z" fill="white"/>
</g>
</svg>
