<svg width="40" height="39" viewBox="0 0 40 39" fill="none" xmlns="http://www.w3.org/2000/svg">
<g opacity="0.8" clip-path="url(#clip0_21258_13731)">
<path d="M18.2179 0.49633C18.6167 0.754765 18.948 1.06041 19.2863 1.38717C19.3846 1.48077 19.3846 1.48077 19.4849 1.57625C19.6997 1.78115 19.9136 1.98687 20.1275 2.19267C20.2396 2.30005 20.3517 2.40737 20.4638 2.51468C20.8158 2.85164 21.1672 3.18917 21.5182 3.52708C21.8785 3.87389 22.2398 4.21973 22.6015 4.5651C22.9138 4.8633 23.2255 5.16208 23.5367 5.46134C23.7218 5.63934 23.9072 5.81705 24.0931 5.99434C24.3006 6.19246 24.507 6.39153 24.7133 6.59086C24.7738 6.64821 24.8343 6.70556 24.8966 6.76465C25.6685 7.51583 26.1646 8.30094 26.2036 9.36759C26.1803 10.2618 25.8683 10.9291 25.2264 11.5618C24.7695 11.9776 24.1714 12.3883 23.5101 12.3742C23.4545 12.3691 23.3989 12.3639 23.3416 12.3586C22.5881 12.2827 22.5881 12.2827 21.9137 12.5444C21.7244 12.7303 21.5582 12.9144 21.4038 13.1278C21.4556 13.1678 21.5075 13.2079 21.5609 13.2491C22.1486 13.7253 22.5273 14.1885 22.6538 14.9282C22.698 15.4701 22.5764 16.0153 22.2436 16.4613C22.1985 16.5248 22.1534 16.5882 22.1069 16.6536C22.2037 16.9325 22.3159 16.995 22.5561 17.174C22.902 17.4386 23.23 17.7132 23.5522 18.0039C23.9241 18.3384 24.3073 18.6519 24.7049 18.9583C24.9816 19.1787 25.244 19.4128 25.507 19.648C25.7579 19.8708 26.0152 20.0818 26.2817 20.2872C26.655 20.5755 27.0045 20.8821 27.3539 21.1963C27.683 21.4906 28.026 21.7636 28.3767 22.0339C28.6535 22.2544 28.9158 22.4885 29.1789 22.7236C29.4298 22.9465 29.6871 23.1575 29.9536 23.3629C30.3268 23.6511 30.6764 23.9578 31.0258 24.272C31.3549 24.5662 31.6978 24.8393 32.0486 25.1096C32.3254 25.33 32.5877 25.5642 32.8508 25.7993C33.1017 26.0222 33.359 26.2331 33.6255 26.4385C33.9987 26.7268 34.3483 27.0335 34.6976 27.3476C35.0268 27.6419 35.3697 27.915 35.7205 28.1853C35.9975 28.4059 36.26 28.6402 36.5232 28.8755C36.7689 29.0938 37.0208 29.2999 37.2827 29.5001C38.5216 30.465 39.7114 31.4957 39.9975 33.0822C40.0674 33.9854 40.0728 34.8697 39.685 35.7078C39.6537 35.7772 39.6224 35.8466 39.5901 35.9182C39.0249 37.0287 38.0055 37.8527 36.7944 38.2583C35.593 38.6045 34.2255 38.5124 33.1005 37.989C32.163 37.4821 31.4645 36.7207 30.8029 35.9187C30.5959 35.6766 30.3768 35.4485 30.1538 35.2201C29.8054 34.863 29.4789 34.4951 29.1598 34.1134C28.9648 33.8876 28.7602 33.6719 28.5522 33.4573C28.2187 33.1131 27.9071 32.757 27.6001 32.3906C27.4038 32.164 27.1988 31.9476 26.9897 31.7319C26.6562 31.3877 26.3446 31.0316 26.0376 30.6652C25.8413 30.4386 25.6363 30.2222 25.4272 30.0065C25.0937 29.6624 24.7821 29.3063 24.4751 28.9399C24.2788 28.7132 24.0738 28.4968 23.8647 28.2811C23.5312 27.937 23.2196 27.5809 22.9126 27.2145C22.7163 26.9878 22.5113 26.7715 22.3022 26.5557C21.9687 26.2116 21.6571 25.8555 21.3501 25.4891C21.1538 25.2624 20.9488 25.0461 20.7397 24.8304C20.4062 24.4862 20.0946 24.1301 19.7876 23.7637C19.5913 23.5371 19.3863 23.3207 19.1772 23.105C18.8383 22.7551 18.5193 22.3939 18.2071 22.0216C17.9779 21.7513 17.739 21.4898 17.4975 21.2296C17.4309 21.2619 17.4309 21.2619 17.3629 21.2949C16.5261 21.6933 15.8688 21.8882 14.9466 21.597C14.3834 21.3901 14.048 20.9862 13.6694 20.5544C13.3173 20.7893 12.9398 21.0429 12.8562 21.4667C12.8437 21.713 12.8556 21.9551 12.8694 22.2012C12.9087 22.9151 12.7123 23.4601 12.2393 24.0169C11.6154 24.6685 10.9307 25.0722 9.99966 25.1498C8.86374 25.1888 8.07335 24.7846 7.23592 24.0747C7.05847 23.913 6.88495 23.7484 6.71251 23.5818C6.64761 23.52 6.5827 23.4582 6.51583 23.3945C6.30403 23.1925 6.0931 22.9897 5.88223 22.7867C5.77151 22.6807 5.6608 22.5746 5.55004 22.4686C5.20274 22.1362 4.85605 21.8032 4.50975 21.4698C4.15426 21.1276 3.79778 20.7864 3.4408 20.4456C3.13241 20.1512 2.82465 19.8561 2.51736 19.5606C2.33466 19.3849 2.15167 19.2095 1.96822 19.0346C1.76372 18.8393 1.56024 18.6431 1.35698 18.4467C1.29719 18.39 1.2374 18.3333 1.1758 18.2749C0.518139 17.6347 -0.0240094 16.8603 -0.0390625 15.9375C-0.0382694 15.8814 -0.0374763 15.8253 -0.0366592 15.7674C-0.0360676 15.7084 -0.0354759 15.6494 -0.0348663 15.5886C-0.0100648 14.7422 0.310567 14.1081 0.925865 13.5099C1.4476 13.0463 2.01926 12.7502 2.7319 12.6777C2.82325 12.6851 2.91461 12.6925 3.00874 12.7001C3.6182 12.7465 3.99117 12.7401 4.48219 12.3497C4.65045 12.1995 4.81025 12.0426 4.97005 11.8842C5.06081 11.7986 5.15182 11.7134 5.24308 11.6284C5.48841 11.3982 5.72966 11.1645 5.97017 10.9297C6.22333 10.6836 6.47954 10.4404 6.73527 10.1968C7.16407 9.78719 7.59019 9.37517 8.01487 8.96166C8.50465 8.48483 8.99877 8.01249 9.49539 7.54224C9.92303 7.13707 10.3482 6.7296 10.7713 6.32014C11.0235 6.07616 11.2764 5.83304 11.5316 5.59199C11.7715 5.3651 12.0081 5.13543 12.2426 4.90336C12.3287 4.81912 12.4159 4.73586 12.5042 4.65374C12.9199 4.26596 13.2377 3.93078 13.2519 3.35368C13.247 3.20144 13.2343 3.0495 13.2211 2.89772C13.164 2.13751 13.5519 1.48681 14.0228 0.902441C15.0972 -0.24498 16.932 -0.29815 18.2179 0.49633ZM15.1886 2.04615C14.8924 2.38512 14.8196 2.72387 14.8462 3.15997C14.9074 3.78913 15.4515 4.20859 15.891 4.62929C15.9574 4.69338 16.0237 4.75748 16.0921 4.82351C16.2732 4.9983 16.4547 5.17276 16.6364 5.34702C16.7884 5.49286 16.9401 5.63892 17.0918 5.78498C17.4499 6.1296 17.8083 6.47383 18.167 6.81781C18.5365 7.17212 18.9052 7.52711 19.2736 7.88245C19.5906 8.18816 19.9081 8.49342 20.2259 8.79835C20.4154 8.98019 20.6048 9.1622 20.7937 9.34463C21.0044 9.5479 21.2159 9.75045 21.4275 9.95283C21.4896 10.013 21.5518 10.0733 21.6157 10.1353C22.0283 10.5277 22.3879 10.8329 22.9956 10.8398C23.5457 10.8247 23.8745 10.6147 24.2456 10.2397C24.4986 9.86584 24.6068 9.52457 24.5288 9.0769C24.3066 8.4982 23.9464 8.08891 23.4941 7.66219C23.3984 7.56964 23.3984 7.56964 23.3007 7.47522C23.0912 7.27316 22.8803 7.07247 22.6693 6.87182C22.5224 6.7309 22.3756 6.58991 22.2288 6.44885C21.9218 6.15407 21.6141 5.86003 21.3058 5.56645C20.9506 5.22815 20.5965 4.8888 20.243 4.54885C19.9013 4.22027 19.559 3.89233 19.2163 3.56472C19.0712 3.42594 18.9262 3.28701 18.7815 3.14794C18.5788 2.95351 18.3755 2.75983 18.1719 2.56634C18.1126 2.50924 18.0534 2.45214 17.9924 2.39332C17.1392 1.58702 16.1818 1.14343 15.1886 2.04615ZM13.9919 5.30725C13.9274 5.36921 13.863 5.43117 13.7966 5.495C13.7608 5.52931 13.725 5.56362 13.6881 5.59897C13.5672 5.7149 13.4466 5.8311 13.3261 5.9473C13.2399 6.03009 13.1536 6.11287 13.0674 6.19563C12.8325 6.42112 12.5979 6.64685 12.3633 6.87262C12.1185 7.10823 11.8733 7.34363 11.6283 7.57906C11.1638 8.02525 10.6996 8.47163 10.2354 8.91807C9.70713 9.42618 9.17862 9.93408 8.65008 10.442C7.56252 11.487 6.47524 12.5324 5.38815 13.5779C5.72853 13.9688 6.08626 14.3336 6.46233 14.6929C6.52107 14.7493 6.57981 14.8057 6.64033 14.8638C6.8329 15.0487 7.02574 15.2333 7.21859 15.4178C7.35281 15.5466 7.48701 15.6753 7.6212 15.8041C7.97319 16.1418 8.32542 16.4793 8.6777 16.8167C9.03762 17.1616 9.39732 17.5066 9.75704 17.8516C10.462 18.5277 11.1672 19.2036 11.8725 19.8793C12.1527 19.7651 12.3318 19.6068 12.5459 19.4008C12.618 19.3318 12.69 19.2628 12.7643 19.1917C12.8436 19.115 12.9229 19.0383 13.0022 18.9616C13.0861 18.881 13.1701 18.8004 13.254 18.7199C13.4818 18.5012 13.7091 18.2821 13.9363 18.0629C14.1738 17.8339 14.4118 17.6052 14.6498 17.3766C15.1002 16.9436 15.5503 16.5102 16.0002 16.0766C16.5125 15.5831 17.0252 15.0899 17.538 14.5968C18.5927 13.5825 19.6469 12.5676 20.7006 11.5524C20.5935 11.3219 20.4715 11.1637 20.2859 10.9856C20.2325 10.9341 20.1792 10.8825 20.1242 10.8294C20.0657 10.7737 20.0073 10.7179 19.947 10.6605C19.8854 10.6012 19.8238 10.5419 19.7603 10.4808C19.5564 10.2848 19.352 10.0893 19.1476 9.89387C19.0061 9.7581 18.8646 9.62229 18.7232 9.48646C18.4268 9.20196 18.1301 8.9177 17.8332 8.63365C17.4896 8.30484 17.1463 7.97564 16.8033 7.64622C16.4735 7.32953 16.1435 7.01306 15.8134 6.6967C15.6728 6.5619 15.5322 6.42706 15.3917 6.29218C15.1958 6.10428 14.9997 5.91664 14.8036 5.72906C14.7449 5.67272 14.6863 5.61637 14.6258 5.55832C14.5727 5.50762 14.5196 5.45693 14.4649 5.4047C14.3953 5.33807 14.3953 5.33807 14.3243 5.2701C14.1574 5.1248 14.163 5.15376 13.9919 5.30725ZM1.82156 14.9329C1.63998 15.1835 1.62375 15.4046 1.61861 15.7018C1.61559 15.8058 1.61559 15.8058 1.61251 15.9119C1.73532 16.9494 3.22651 17.9701 3.94985 18.6688C4.01546 18.7322 4.08107 18.7955 4.14867 18.8609C4.4953 19.1957 4.8422 19.5303 5.1893 19.8646C5.47527 20.1402 5.76066 20.4164 6.04555 20.693C6.39147 21.0288 6.73834 21.3638 7.08592 21.698C7.21753 21.8249 7.34881 21.9521 7.47975 22.0796C7.66308 22.2581 7.84761 22.4352 8.03247 22.6122C8.08554 22.6644 8.13861 22.7166 8.19328 22.7703C8.62119 23.176 9.15029 23.5624 9.77291 23.5973C10.2456 23.5314 10.6091 23.3808 10.9253 23.03C11.1588 22.7134 11.2718 22.5028 11.2817 22.111C11.2848 22.0441 11.2879 21.9772 11.2912 21.9082C11.1727 21.2876 10.6386 20.8368 10.1914 20.409C10.1253 20.3449 10.0591 20.2808 9.99103 20.2147C9.81101 20.0404 9.63046 19.8666 9.44961 19.6931C9.29817 19.5477 9.14707 19.4019 8.99596 19.2562C8.63934 18.9123 8.28208 18.5691 7.92444 18.2262C7.55644 17.8733 7.1896 17.5194 6.82331 17.1649C6.50771 16.8595 6.19136 16.5549 5.87442 16.2509C5.68558 16.0697 5.49705 15.8883 5.30926 15.7061C5.09968 15.5032 4.88889 15.3015 4.67775 15.1001C4.61633 15.0401 4.5549 14.9802 4.49162 14.9184C4.07068 14.5203 3.72188 14.2968 3.12252 14.2249C2.52729 14.2963 2.20546 14.4895 1.82156 14.9329ZM19.2727 15.0787C19.2337 15.1165 19.1947 15.1542 19.1545 15.1931C19.1121 15.2336 19.0696 15.2742 19.0258 15.3159C18.8867 15.4489 18.7481 15.5823 18.6096 15.7159C18.5126 15.8089 18.4155 15.902 18.3184 15.995C18.1157 16.1894 17.9132 16.3842 17.7109 16.5791C17.4517 16.8289 17.1918 17.0779 16.9317 17.3268C16.7315 17.5185 16.5316 17.7107 16.3318 17.9029C16.2361 17.9949 16.1403 18.0868 16.0443 18.1785C15.9104 18.3067 15.7771 18.4354 15.6438 18.5641C15.6042 18.6019 15.5646 18.6396 15.5238 18.6785C15.3322 18.8646 15.1674 19.0301 15.0756 19.2791C15.0864 19.5675 15.1104 19.7456 15.2856 19.9824C15.5175 20.1389 15.6504 20.1793 15.935 20.1793C16.3261 19.9923 16.6274 19.7723 16.9347 19.4736C16.9971 19.4143 16.9971 19.4143 17.0608 19.3537C17.1968 19.2241 17.3319 19.0937 17.467 18.9633C17.562 18.8722 17.657 18.7812 17.752 18.6903C17.9504 18.5001 18.1484 18.3095 18.3461 18.1186C18.599 17.8745 18.8529 17.6314 19.1071 17.3886C19.3033 17.2011 19.4988 17.0131 19.6942 16.8249C19.7876 16.735 19.8812 16.6454 19.9749 16.5559C20.106 16.4306 20.2363 16.3046 20.3664 16.1784C20.4049 16.142 20.4434 16.1055 20.483 16.0679C20.7227 15.8334 20.8832 15.6073 21.0131 15.3033C21.0076 15.0352 20.9685 14.8989 20.8081 14.6797C20.1818 14.2524 19.7409 14.6345 19.2727 15.0787ZM20.5674 18.1148C20.4786 18.2001 20.3902 18.2858 20.3021 18.3719C20.2555 18.4169 20.2089 18.4618 20.1609 18.5081C20.0117 18.6523 19.863 18.7969 19.7143 18.9416C19.6134 19.0392 19.5125 19.1368 19.4116 19.2343C19.1638 19.4739 18.9165 19.714 18.6694 19.9543C18.8186 20.261 19.0297 20.4982 19.2602 20.7513C19.3022 20.798 19.3443 20.8446 19.3876 20.8927C19.6868 21.2237 19.9924 21.549 20.2993 21.8734C20.4748 22.0641 20.6418 22.2598 20.8081 22.458C21.0957 22.7996 21.3981 23.1227 21.7095 23.444C22.0049 23.7506 22.2785 24.0712 22.5512 24.3967C22.7475 24.6233 22.9525 24.8397 23.1616 25.0554C23.4951 25.3996 23.8067 25.7556 24.1137 26.1221C24.31 26.3487 24.515 26.5651 24.7241 26.7808C25.0569 27.1242 25.3679 27.4793 25.6741 27.8451C25.9169 28.1254 26.1731 28.3925 26.4328 28.6584C26.5969 28.8272 26.7386 28.9884 26.8725 29.1813C27.1384 29.071 27.311 28.9286 27.5145 28.7319C27.5786 28.6704 27.6427 28.6088 27.7088 28.5454C27.8115 28.4456 27.8115 28.4456 27.9162 28.3438C27.9869 28.2758 28.0575 28.2077 28.1303 28.1376C28.3177 27.9571 28.5045 27.7762 28.6913 27.5952C28.8822 27.4104 29.0735 27.226 29.2648 27.0416C29.6397 26.68 30.0141 26.318 30.3881 25.9556C30.3156 25.8726 30.2428 25.7898 30.1699 25.7071C30.1294 25.6609 30.0888 25.6148 30.0471 25.5673C29.8473 25.3532 29.6223 25.1727 29.3921 24.9898C29.295 24.9114 29.1981 24.833 29.1012 24.7545C29.0542 24.7164 29.0071 24.6784 28.9587 24.6392C28.7757 24.4894 28.5979 24.3344 28.4204 24.1787C28.1632 23.9542 27.9002 23.7407 27.6294 23.5316C27.2533 23.2398 26.9001 22.9303 26.5474 22.6132C26.2183 22.3189 25.8753 22.0458 25.5246 21.7755C25.2478 21.5551 24.9855 21.3209 24.7224 21.0858C24.4715 20.8629 24.2142 20.652 23.9477 20.4466C23.6208 20.1941 23.3113 19.9294 23.0053 19.6542C22.6291 19.316 22.2424 18.997 21.8399 18.6875C21.5755 18.4797 21.3243 18.2594 21.0739 18.0364C20.8343 17.8508 20.7949 17.9147 20.5674 18.1148ZM31.4859 27.134C31.4238 27.194 31.3617 27.2539 31.2977 27.3157C31.2273 27.3833 31.1569 27.4509 31.0844 27.5205C31.0076 27.5951 30.9307 27.6697 30.8538 27.7443C30.7753 27.82 30.6967 27.8957 30.618 27.9713C30.4109 28.1708 30.2043 28.3707 29.9977 28.5707C29.7869 28.7746 29.5757 28.9781 29.3646 29.1816C28.9501 29.5812 28.5362 29.9812 28.1225 30.3816C28.26 30.6602 28.4342 30.8757 28.6401 31.113C28.7039 31.1869 28.7678 31.2608 28.8336 31.3369C28.8825 31.393 28.9315 31.449 28.9819 31.5068C29.4413 31.141 29.8623 30.7463 30.2829 30.34C30.3883 30.2385 30.3883 30.2385 30.496 30.135C30.6812 29.9568 30.8662 29.7785 31.0512 29.6001C31.2406 29.4174 31.4303 29.2349 31.62 29.0524C31.9908 28.6955 32.3615 28.3383 32.7319 27.9811C32.5955 27.6973 32.4293 27.5333 32.185 27.3247C32.1157 27.2647 32.0464 27.2048 31.9751 27.143C31.7466 26.9696 31.7058 26.9489 31.4859 27.134ZM33.8178 29.0958C33.7501 29.1611 33.6825 29.2264 33.6127 29.2937C33.5754 29.3295 33.538 29.3654 33.4995 29.4023C33.3757 29.5213 33.2525 29.6408 33.1292 29.7604C33.0437 29.8428 32.9581 29.9252 32.8724 30.0076C32.6468 30.2248 32.4216 30.4425 32.1966 30.6602C31.967 30.8822 31.7369 31.1038 31.5069 31.3254C31.0554 31.7606 30.6044 32.1962 30.1538 32.6321C30.3021 32.9367 30.5107 33.1728 30.7397 33.4244C30.7815 33.4709 30.8234 33.5173 30.8665 33.5652C31.186 33.9186 31.514 34.264 31.8438 34.6086C32.0316 34.8106 32.2089 35.0183 32.3852 35.2295C33.0282 35.9862 33.6231 36.5181 34.6069 36.833C35.6958 36.9017 36.5377 36.8097 37.3965 36.1031C38.0655 35.4672 38.3745 34.8148 38.3911 33.9167C38.3836 33.0616 38.1037 32.4278 37.4975 31.8069C37.0256 31.3622 36.519 30.9616 36.0049 30.5633C35.7479 30.3568 35.5016 30.1413 35.2563 29.9221C35.2134 29.8838 35.1706 29.8455 35.1264 29.806C35.0436 29.7319 34.9607 29.6578 34.8779 29.5837C34.7189 29.4419 34.5587 29.3015 34.3969 29.1626C34.3499 29.122 34.3029 29.0813 34.2544 29.0395C34.0552 28.8969 34.0001 28.9408 33.8178 29.0958Z" fill="white"/>
<path d="M4.20642 29.387C4.2663 29.3866 4.32619 29.3863 4.38788 29.3859C4.58777 29.385 4.78763 29.3851 4.98751 29.3852C5.13115 29.3848 5.27478 29.3843 5.41841 29.3837C5.80807 29.3824 6.19773 29.382 6.5874 29.3819C6.831 29.3818 7.07461 29.3815 7.31821 29.3811C8.16851 29.3797 9.01881 29.3791 9.86911 29.3792C10.661 29.3793 11.4529 29.3777 12.2447 29.3754C12.9252 29.3734 13.6057 29.3726 14.2862 29.3727C14.6923 29.3727 15.0985 29.3723 15.5046 29.3707C15.8867 29.3693 16.2688 29.3693 16.651 29.3703C16.7909 29.3705 16.9308 29.3702 17.0707 29.3692C18.4275 29.361 18.4275 29.361 18.9878 29.7071C19.0437 29.7405 19.0995 29.7739 19.1571 29.8083C19.7272 30.1649 20.1476 30.7253 20.3159 31.3575C20.3407 31.5782 20.3456 31.7966 20.3452 32.0185C20.3453 32.0784 20.3454 32.1382 20.3455 32.1998C20.3381 32.5983 20.2839 32.9107 20.0718 33.2607C19.985 33.3928 19.985 33.3928 20.0034 33.608C20.1411 33.7309 20.1411 33.7309 20.3208 33.8471C21.1072 34.4152 21.7021 35.2091 21.8784 36.1585C21.9059 36.4744 21.9109 36.7887 21.9126 37.1056C21.9152 37.1895 21.9178 37.2735 21.9204 37.36C21.921 37.441 21.9215 37.522 21.9221 37.6055C21.9231 37.6788 21.9242 37.752 21.9253 37.8275C21.8568 38.1292 21.7448 38.2229 21.4878 38.409C21.2064 38.465 20.9292 38.4596 20.6427 38.4566C20.5565 38.4572 20.4703 38.4578 20.3815 38.4584C20.0921 38.4599 19.8027 38.4587 19.5133 38.4575C19.3061 38.4581 19.0988 38.4587 18.8916 38.4595C18.3868 38.4612 17.882 38.4608 17.3772 38.4598C16.967 38.4589 16.5567 38.4588 16.1465 38.4592C16.0881 38.4593 16.0297 38.4593 15.9696 38.4594C15.851 38.4595 15.7324 38.4596 15.6138 38.4597C14.5017 38.4608 13.3895 38.4596 12.2774 38.4576C11.323 38.4559 10.3687 38.4562 9.4143 38.4579C8.30615 38.4599 7.198 38.4607 6.08985 38.4596C5.97169 38.4594 5.85354 38.4593 5.73538 38.4592C5.64818 38.4591 5.64818 38.4591 5.55921 38.459C5.14944 38.4587 4.73968 38.4593 4.3299 38.4601C3.83056 38.4612 3.33123 38.4609 2.83189 38.4589C2.57708 38.4579 2.32232 38.4577 2.06751 38.4588C1.79137 38.4598 1.51534 38.4585 1.23921 38.4566C1.15854 38.4575 1.07787 38.4583 0.994756 38.4592C0.624892 38.4543 0.451187 38.4505 0.149013 38.231C-0.0177189 38.0053 -0.0459116 37.8929 -0.0456924 37.6187C-0.0460827 37.5398 -0.0464729 37.461 -0.046875 37.3798C-0.0447727 37.297 -0.0426704 37.2143 -0.0405045 37.129C-0.0392078 37.0444 -0.0379112 36.9598 -0.0365753 36.8726C-0.0194194 36.2834 0.0299492 35.7879 0.315941 35.2583C0.367 35.1601 0.367 35.1601 0.41909 35.0599C0.79217 34.4071 1.31702 33.9423 1.95657 33.5329C1.92409 33.4719 1.92409 33.4719 1.89095 33.4096C1.86265 33.3559 1.83436 33.3022 1.8052 33.2469C1.7771 33.1939 1.749 33.1408 1.72005 33.0861C1.4477 32.5368 1.47481 31.7295 1.61935 31.1394C1.69252 30.9738 1.77461 30.8319 1.87844 30.6823C1.91067 30.6313 1.94289 30.5802 1.9761 30.5276C2.49952 29.7737 3.27258 29.383 4.20642 29.387ZM3.40188 31.3246C3.16992 31.6866 3.15808 31.9867 3.20657 32.4077C3.37793 32.7429 3.55712 32.926 3.90969 33.0828C4.22502 33.1599 4.52314 33.1675 4.84782 33.1679C4.902 33.1681 4.95618 33.1682 5.01201 33.1684C5.19306 33.1689 5.37411 33.1688 5.55516 33.1688C5.68518 33.169 5.8152 33.1692 5.94522 33.1695C6.29807 33.1702 6.65093 33.1704 7.00378 33.1704C7.22432 33.1705 7.44485 33.1706 7.66538 33.1708C8.43495 33.1715 9.20453 33.1718 9.97411 33.1718C10.6911 33.1717 11.4081 33.1725 12.1251 33.1737C12.7411 33.1747 13.357 33.1751 13.9729 33.175C14.3406 33.175 14.7083 33.1752 15.0761 33.176C15.4219 33.1767 15.7678 33.1767 16.1137 33.1762C16.2405 33.1761 16.3672 33.1763 16.494 33.1768C16.6674 33.1773 16.8408 33.177 17.0142 33.1764C17.1596 33.1765 17.1596 33.1765 17.3079 33.1765C17.722 33.1483 18.0316 33.0884 18.3482 32.825C18.6558 32.4789 18.7101 32.2884 18.7 31.8457C18.6636 31.5681 18.5561 31.4131 18.3628 31.2074C17.9549 30.9234 17.6156 30.898 17.1197 30.8968C17.0653 30.8966 17.011 30.8964 16.9551 30.8962C16.773 30.8955 16.591 30.8954 16.409 30.8953C16.2785 30.8949 16.148 30.8946 16.0175 30.8941C15.6628 30.8932 15.3082 30.8927 14.9535 30.8923C14.7318 30.8921 14.5101 30.8918 14.2884 30.8915C13.5944 30.8905 12.9004 30.8897 12.2065 30.8894C11.406 30.8891 10.6056 30.8878 9.8052 30.8856C9.18609 30.884 8.56699 30.8832 7.94788 30.8831C7.57832 30.8831 7.20877 30.8826 6.83921 30.8813C6.49133 30.88 6.14347 30.8799 5.79559 30.8805C5.66826 30.8806 5.54094 30.8803 5.41361 30.8795C4.32081 30.841 4.32081 30.841 3.40188 31.3246ZM2.13235 35.4801C1.73735 35.957 1.64407 36.2865 1.64407 36.9087C7.78 36.9087 13.9159 36.9087 20.2378 36.9087C20.2378 36.1966 20.0329 35.7564 19.528 35.2375C18.7468 34.5624 17.6622 34.6361 16.6801 34.6376C16.5415 34.6373 16.4028 34.6369 16.2641 34.6364C15.889 34.6354 15.5139 34.6354 15.1387 34.6356C14.8248 34.6356 14.5109 34.6353 14.197 34.6349C13.4559 34.6341 12.7149 34.6341 11.9739 34.6345C11.2111 34.635 10.4484 34.634 9.68571 34.6324C9.0293 34.6311 8.3729 34.6307 7.71649 34.6309C7.32514 34.631 6.9338 34.6309 6.54245 34.6298C6.17417 34.6289 5.80591 34.629 5.43764 34.63C5.30311 34.6302 5.16857 34.63 5.03404 34.6293C3.93666 34.6246 2.909 34.6462 2.13235 35.4801Z" fill="white"/>
<path d="M14.6126 7.57643C14.8279 7.7037 14.9014 7.79837 14.9717 8.03063C15.0356 8.38412 15.0218 8.56032 14.804 8.86294C14.5505 9.17353 14.2554 9.44913 13.9671 9.72964C13.8964 9.79858 13.8257 9.86752 13.7528 9.93855C13.6035 10.0839 13.4537 10.2288 13.3038 10.3736C13.1128 10.5583 12.9235 10.7445 12.7345 10.931C12.5525 11.11 12.3685 11.287 12.1849 11.4644C12.1177 11.5311 12.0506 11.5979 11.9814 11.6666C11.5947 12.0353 11.2708 12.2959 10.7063 12.3025C10.3634 12.211 10.2679 12.1248 10.0813 11.8336C9.98722 11.4948 10.0328 11.3525 10.1594 11.0272C10.3131 10.8335 10.3131 10.8335 10.5033 10.652C10.5745 10.5832 10.6457 10.5144 10.719 10.4435C10.7969 10.3702 10.8747 10.2969 10.9526 10.2237C11.0324 10.1473 11.1122 10.0709 11.1919 9.99438C11.3586 9.8348 11.5259 9.67585 11.6938 9.51737C11.9089 9.3142 12.1228 9.1099 12.3363 8.90516C12.5008 8.74756 12.6657 8.59037 12.8307 8.43332C12.9098 8.35809 12.9888 8.28278 13.0676 8.20738C13.1777 8.10233 13.2884 7.99784 13.3992 7.89338C13.462 7.83383 13.5249 7.77428 13.5896 7.71292C13.9057 7.44913 14.226 7.48289 14.6126 7.57643Z" fill="white"/>
<path d="M8.9038 12.8284C9.33649 13.0592 9.33649 13.0592 9.45067 13.2785C9.47779 13.6756 9.49079 13.9337 9.2163 14.2537C8.91975 14.4314 8.70322 14.4156 8.36669 14.3683C8.1187 14.3092 8.02226 14.2379 7.88817 14.0287C7.79478 13.7289 7.77492 13.5084 7.90282 13.2176C8.21065 12.8608 8.41013 12.7712 8.9038 12.8284Z" fill="white"/>
</g>
<defs>
<clipPath id="clip0_21258_13731">
<rect width="40" height="38.4085" fill="white"/>
</clipPath>
</defs>
</svg>
