<svg width="22" height="22" viewBox="0 0 22 22" fill="none" xmlns="http://www.w3.org/2000/svg">
<path d="M11 12.375C10.3201 12.375 9.65552 12.1734 9.09023 11.7957C8.52494 11.418 8.08434 10.8811 7.82417 10.253C7.56399 9.62486 7.49592 8.93369 7.62855 8.26688C7.76119 7.60007 8.08858 6.98757 8.56932 6.50682C9.05007 6.02608 9.66257 5.69869 10.3294 5.56605C10.9962 5.43342 11.6874 5.50149 12.3155 5.76167C12.9436 6.02184 13.4805 6.46244 13.8582 7.02773C14.2359 7.59302 14.4375 8.25763 14.4375 8.9375C14.4364 9.84885 14.0739 10.7226 13.4295 11.367C12.7851 12.0114 11.9113 12.3739 11 12.375ZM11 6.875C10.5921 6.875 10.1933 6.99597 9.85414 7.2226C9.51496 7.44923 9.25061 7.77134 9.0945 8.14822C8.93839 8.52509 8.89755 8.93979 8.97713 9.33988C9.05671 9.73996 9.25315 10.1075 9.54159 10.3959C9.83004 10.6844 10.1975 10.8808 10.5976 10.9604C10.9977 11.04 11.4124 10.9991 11.7893 10.843C12.1662 10.6869 12.4883 10.4225 12.7149 10.0834C12.9415 9.74419 13.0625 9.34543 13.0625 8.9375C13.062 8.39066 12.8445 7.86637 12.4578 7.4797C12.0711 7.09302 11.5468 6.87555 11 6.875Z" fill="black"/>
<path d="M11 20.625L5.20025 13.7851C5.11967 13.6824 5.03991 13.579 4.961 13.475C3.9708 12.1697 3.43566 10.5759 3.4375 8.9375C3.4375 6.9318 4.23427 5.00825 5.65251 3.59001C7.07075 2.17176 8.99431 1.375 11 1.375C13.0057 1.375 14.9293 2.17176 16.3475 3.59001C17.7657 5.00825 18.5625 6.9318 18.5625 8.9375C18.5641 10.5751 18.0292 12.1681 17.0397 13.4729L17.039 13.475C17.039 13.475 16.8328 13.7459 16.8018 13.7823L11 20.625ZM6.05894 12.6466C6.05894 12.6466 6.21913 12.8583 6.25557 12.9037L11 18.4993L15.7506 12.8961C15.7809 12.8583 15.9418 12.6452 15.9424 12.6445C16.7518 11.5783 17.1891 10.2761 17.1875 8.9375C17.1875 7.29647 16.5356 5.72266 15.3752 4.56228C14.2148 3.4019 12.641 2.75 11 2.75C9.35898 2.75 7.78516 3.4019 6.62478 4.56228C5.4644 5.72266 4.8125 7.29647 4.8125 8.9375C4.81081 10.277 5.24869 11.58 6.05894 12.6466Z" fill="black"/>
</svg>
