<svg width="40" height="39" viewBox="0 0 40 39" fill="none" xmlns="http://www.w3.org/2000/svg">
<g opacity="0.8" clip-path="url(#clip0_21258_13750)">
<path d="M24.9989 1.4254C25.0614 1.46891 25.124 1.51243 25.1884 1.55726C26.3179 2.38407 27.1901 3.36712 27.8358 4.58081C27.8603 4.62672 27.8848 4.67264 27.91 4.71994C28.0634 5.02128 28.1799 5.32747 28.289 5.64612C28.3167 5.72682 28.3445 5.80752 28.373 5.89066C28.3939 5.95197 28.4148 6.01329 28.4364 6.07646C28.4865 6.07657 28.5365 6.07668 28.5881 6.0768C29.8089 6.07958 31.0296 6.08401 32.2503 6.09026C32.8407 6.09324 33.431 6.09567 34.0214 6.09679C34.5362 6.09777 35.0509 6.0998 35.5657 6.10307C35.838 6.10476 36.1104 6.10594 36.3828 6.10586C36.6874 6.10579 36.992 6.10807 37.2967 6.11053C37.3862 6.11015 37.4757 6.10977 37.5679 6.10939C38.332 6.1189 38.91 6.31628 39.4679 6.82517C39.9675 7.36439 40.0757 7.93311 40.037 8.63789C39.96 9.22208 39.6947 9.67954 39.2176 10.0524C38.3747 10.6731 37.4064 10.5973 36.3954 10.5869C36.2672 10.5861 36.139 10.5854 36.0108 10.5848C35.6995 10.5832 35.3883 10.5806 35.077 10.5775C35.3045 11.4136 35.5321 12.2497 35.7596 13.0858C35.8653 13.4742 35.971 13.8626 36.0767 14.251C36.179 14.627 36.2813 15.003 36.3837 15.379C36.4224 15.5212 36.4611 15.6635 36.4998 15.8057C36.5367 15.9415 36.5737 16.0772 36.6106 16.213C36.6462 16.3436 36.6817 16.4743 36.7172 16.605C36.8059 16.9316 36.8958 17.258 36.9876 17.5839C37.0058 17.6491 37.024 17.7143 37.0428 17.7815C37.0774 17.905 37.1123 18.0285 37.1476 18.1518C37.2208 18.4141 37.2645 18.6308 37.2645 18.9044C37.3644 18.9026 37.3644 18.9026 37.4663 18.9008C37.7145 18.897 37.9628 18.8942 38.211 18.892C38.3182 18.8909 38.4255 18.8894 38.5327 18.8874C38.6872 18.8847 38.8418 18.8835 38.9964 18.8824C39.0892 18.8813 39.1821 18.8801 39.2778 18.8789C39.5548 18.9069 39.6997 18.9698 39.9207 19.1295C40.296 19.8501 40.024 21.1703 39.7953 21.9215C39.5041 22.7184 39.0906 23.4418 38.5145 24.0806C38.4678 24.1402 38.421 24.1997 38.3729 24.2611C37.4745 25.284 35.9845 26.0279 34.6082 26.1811C32.7778 26.3144 31.0378 26.046 29.5982 24.878C29.5499 24.8376 29.5017 24.7973 29.452 24.7558C29.4062 24.7224 29.3604 24.689 29.3131 24.6547C28.1278 23.7694 27.4668 22.2586 27.2288 20.8719C27.2065 20.6906 27.1938 20.5121 27.1864 20.3297C27.1823 20.2593 27.1783 20.1889 27.1742 20.1164C27.1605 19.7081 27.1632 19.3989 27.4207 19.0544C27.6932 18.8778 27.9367 18.887 28.2594 18.8898C28.3606 18.8902 28.4618 18.8907 28.5661 18.8912C28.6726 18.8925 28.7791 18.8937 28.8856 18.895C28.9933 18.8958 29.101 18.8965 29.2088 18.8971C29.4722 18.8989 29.7355 18.9013 29.9989 18.9044C30.0078 18.8209 30.0166 18.7374 30.0258 18.6514C30.075 18.2759 30.1706 17.9166 30.2711 17.5511C30.2908 17.4782 30.3105 17.4053 30.3308 17.3302C30.3955 17.0909 30.4609 16.8517 30.5262 16.6126C30.5715 16.4458 30.6167 16.279 30.6619 16.1122C30.7565 15.7635 30.8514 15.4149 30.9464 15.0663C31.0684 14.619 31.19 14.1717 31.3114 13.7242C31.4271 13.2976 31.5431 12.871 31.659 12.4444C31.6923 12.3221 31.6923 12.3221 31.7262 12.1973C31.7888 11.9672 31.8514 11.7372 31.9142 11.5072C31.942 11.4046 31.942 11.4046 31.9705 11.3C31.9876 11.2374 32.0047 11.1748 32.0223 11.1104C32.0371 11.056 32.0519 11.0017 32.0671 10.9457C32.1027 10.8218 32.144 10.6994 32.1864 10.5775C30.9231 10.5775 29.6598 10.5775 28.3582 10.5775C28.3325 10.7508 28.3067 10.9241 28.2801 11.1026C28.2079 11.2977 28.1335 11.4817 28.0457 11.6699C28.0215 11.722 27.9973 11.7741 27.9724 11.8277C27.0579 13.7343 25.4869 15.1937 23.4901 16.0444C23.4397 16.0659 23.3892 16.0874 23.3373 16.1095C22.9778 16.2564 22.6521 16.3358 22.2645 16.4288C22.2645 20.5878 22.2645 24.7468 22.2645 29.0317C24.3012 29.0317 26.3379 29.0317 28.4364 29.0317C29.1444 29.3717 29.1444 29.3717 29.325 29.6178C29.3791 29.6882 29.3791 29.6882 29.4343 29.7599C29.6732 30.1887 29.7086 30.6088 29.7016 31.0827C29.7013 31.169 29.7013 31.169 29.701 31.257C29.7001 31.4389 29.6981 31.6208 29.6961 31.8027C29.6954 31.9268 29.6946 32.0509 29.694 32.175C29.6923 32.4776 29.6896 32.7801 29.6864 33.0827C29.7659 33.0811 29.8455 33.0795 29.9275 33.0779C30.2251 33.0724 30.5227 33.069 30.8203 33.0662C30.9487 33.0647 31.077 33.0626 31.2053 33.06C31.3908 33.0564 31.5761 33.0547 31.7616 33.0534C31.8464 33.051 31.8464 33.051 31.933 33.0487C32.4287 33.0485 32.8276 33.202 33.2038 33.5137C33.2387 33.5556 33.2735 33.5975 33.3094 33.6406C33.3455 33.6823 33.3815 33.724 33.4187 33.7669C33.6177 34.0597 33.6903 34.3245 33.6934 34.672C33.6944 34.7476 33.6954 34.8232 33.6965 34.9011C33.6967 35.0223 33.6967 35.0223 33.697 35.1459C33.6975 35.2296 33.698 35.3133 33.6986 35.3995C33.6994 35.5761 33.6997 35.7527 33.6997 35.9293C33.7 36.1999 33.7029 36.4703 33.7058 36.7408C33.7063 36.9125 33.7066 37.0841 33.7068 37.2558C33.7079 37.3368 33.709 37.4177 33.7102 37.5011C33.7097 37.5765 33.7092 37.6519 33.7087 37.7295C33.7089 37.7957 33.7092 37.8618 33.7094 37.93C33.6567 38.1737 33.5586 38.2537 33.3582 38.4089C33.1485 38.4465 33.1485 38.4465 32.9034 38.4466C32.8099 38.4474 32.7164 38.4482 32.6201 38.449C32.5172 38.4484 32.4144 38.4477 32.3084 38.447C32.1982 38.4473 32.0879 38.4478 31.9777 38.4484C31.6743 38.4497 31.371 38.449 31.0677 38.4481C30.7407 38.4474 30.4137 38.4485 30.0867 38.4493C29.446 38.4506 28.8053 38.4504 28.1646 38.4495C27.644 38.4488 27.1234 38.4487 26.6028 38.449C26.5288 38.4491 26.4547 38.4491 26.3785 38.4492C26.2281 38.4493 26.0778 38.4494 25.9274 38.4495C24.5166 38.4503 23.1058 38.4493 21.695 38.4477C20.4838 38.4464 19.2726 38.4466 18.0614 38.448C16.6557 38.4496 15.2501 38.4503 13.8444 38.4493C13.6946 38.4492 13.5448 38.4491 13.395 38.449C13.3213 38.449 13.2475 38.449 13.1716 38.4489C12.6515 38.4486 12.1313 38.4491 11.6112 38.4498C10.9775 38.4506 10.3439 38.4504 9.71027 38.4488C9.38681 38.448 9.06338 38.4477 8.73992 38.4487C8.44403 38.4496 8.14817 38.4491 7.85228 38.4475C7.69409 38.447 7.53589 38.448 7.37769 38.449C7.28419 38.4482 7.19069 38.4475 7.09436 38.4466C6.97304 38.4466 6.97304 38.4466 6.84927 38.4465C6.58441 38.399 6.49174 38.3095 6.327 38.1088C6.28732 37.9315 6.28732 37.9315 6.28656 37.7331C6.28558 37.6584 6.28459 37.5838 6.28358 37.5069C6.28421 37.4266 6.28484 37.3464 6.28549 37.2637C6.28505 37.1391 6.28505 37.1391 6.28459 37.012C6.28438 36.8362 6.28495 36.6604 6.28626 36.4846C6.28792 36.2167 6.28628 35.9489 6.28427 35.681C6.28448 35.51 6.28488 35.3389 6.28549 35.1679C6.28486 35.0883 6.28423 35.0086 6.28358 34.9266C6.29086 34.3677 6.38504 33.966 6.77591 33.531C6.81952 33.4976 6.86313 33.4641 6.90805 33.4296C6.97316 33.3777 6.97316 33.3777 7.03958 33.3247C7.42001 33.0863 7.76841 33.0621 8.21329 33.068C8.27343 33.0682 8.33357 33.0684 8.39553 33.0687C8.58657 33.0695 8.77757 33.0714 8.9686 33.0733C9.09855 33.074 9.22851 33.0747 9.35846 33.0753C9.67611 33.077 9.99374 33.0796 10.3114 33.0827C10.3095 32.9687 10.3095 32.9687 10.3077 32.8524C10.3034 32.5676 10.3007 32.2828 10.2985 31.998C10.2973 31.8752 10.2957 31.7525 10.2937 31.6298C10.2702 30.1825 10.2702 30.1825 10.7166 29.5334C11.2671 28.7331 16.7038 29.0317 17.7332 29.0317C17.7332 24.8728 17.7332 20.7138 17.7332 16.4288C17.4497 16.3546 17.1661 16.2803 16.8739 16.2038C16.6511 16.1197 16.4393 16.0353 16.2245 15.9365C16.1681 15.9107 16.1117 15.8849 16.0537 15.8582C13.8793 14.8266 12.4602 13.0291 11.6395 10.8776C11.6137 10.8033 11.5879 10.729 11.5614 10.6525C10.3239 10.6278 9.08637 10.603 7.81137 10.5775C7.88419 10.8427 7.957 11.1078 8.03202 11.381C8.30897 12.3899 8.58525 13.399 8.86134 14.4081C8.95358 14.7452 9.04597 15.0822 9.13843 15.4193C9.25836 15.8566 9.37791 16.294 9.49716 16.7314C9.54184 16.8951 9.58666 17.0588 9.63162 17.2224C9.69407 17.4498 9.75605 17.6773 9.8179 17.9049C9.8364 17.9718 9.8549 18.0387 9.87396 18.1077C9.89055 18.1691 9.90714 18.2305 9.92424 18.2938C9.93875 18.3469 9.95325 18.4 9.9682 18.4546C9.99887 18.6043 9.99887 18.6043 9.99887 18.9044C10.0655 18.9032 10.132 18.9021 10.2007 18.9008C10.4489 18.897 10.6971 18.8942 10.9454 18.892C11.0526 18.8909 11.1598 18.8894 11.2671 18.8874C11.4216 18.8847 11.5762 18.8835 11.7307 18.8824C11.8236 18.8813 11.9165 18.8801 12.0122 18.8789C12.2899 18.907 12.4339 18.9687 12.6551 19.1295C13.0667 19.8556 12.7788 20.9872 12.5797 21.7401C12.0364 23.4318 10.9094 24.7492 9.2808 25.5938C7.82935 26.2978 5.98207 26.4279 4.42942 25.9856C3.60192 25.687 2.85728 25.3136 2.18637 24.7558C2.12273 24.7088 2.05908 24.6618 1.9935 24.6133C0.931006 23.7663 0.159927 22.3202 -0.00112708 21.0049C-0.0156549 20.7141 -0.019139 20.4239 -0.0206583 20.1328C-0.0230753 20.0162 -0.0230753 20.0162 -0.0255412 19.8972C-0.025944 19.8224 -0.0263468 19.7475 -0.0267619 19.6704C-0.0278571 19.5686 -0.0278571 19.5686 -0.0289744 19.4648C0.00458109 19.2415 0.0715536 19.1412 0.233248 18.9794C0.500241 18.894 0.704723 18.8959 0.986117 18.8971C1.13831 18.8974 1.13831 18.8974 1.29358 18.8978C1.40075 18.8984 1.50792 18.8991 1.61508 18.8997C1.72317 18.9001 1.83125 18.9004 1.93933 18.9007C2.20397 18.9016 2.46861 18.9029 2.73325 18.9044C2.74335 18.8164 2.75345 18.7284 2.76386 18.6378C2.80263 18.3413 2.8677 18.0585 2.94659 17.7692C2.96007 17.7193 2.97356 17.6694 2.98745 17.618C3.03183 17.4542 3.07678 17.2905 3.12174 17.1269C3.15344 17.0103 3.18511 16.8938 3.21675 16.7773C3.30028 16.47 3.3843 16.1628 3.46841 15.8557C3.55158 15.5516 3.63425 15.2474 3.71698 14.9431C4.11341 13.4867 4.51511 12.0316 4.92075 10.5775C4.84201 10.5783 4.76327 10.5791 4.68214 10.5799C4.38657 10.5826 4.09099 10.5843 3.79541 10.5857C3.66813 10.5865 3.54084 10.5875 3.41356 10.5888C1.43176 10.6087 1.43176 10.6087 0.623873 9.97736C0.0522074 9.33317 -0.0755912 8.69599 -0.0190562 7.87149C0.054605 7.2772 0.44296 6.88477 0.891512 6.50342C1.47397 6.13594 2.01396 6.11823 2.6922 6.11905C2.78831 6.11828 2.88441 6.11752 2.98342 6.11673C3.2452 6.11486 3.50695 6.11397 3.76873 6.11351C4.04296 6.11281 4.31718 6.11084 4.5914 6.10901C5.10989 6.10574 5.62837 6.1036 6.14687 6.10186C6.73749 6.09983 7.32811 6.09653 7.91872 6.09314C9.13293 6.08618 10.3471 6.0808 11.5614 6.07646C11.5932 5.98856 11.625 5.90065 11.6578 5.81008C11.7001 5.69378 11.7425 5.57749 11.7848 5.4612C11.8057 5.40337 11.8266 5.34555 11.8481 5.28597C11.9904 4.89617 12.1463 4.52854 12.367 4.1729C12.3969 4.1237 12.4267 4.07449 12.4574 4.0238C12.7397 3.5701 13.0634 3.16465 13.4364 2.77571C13.4738 2.73655 13.5113 2.6974 13.5499 2.65706C16.4339 -0.322871 21.4984 -1.0421 24.9989 1.4254ZM14.2957 3.82595C13.0024 5.32536 12.5059 7.23815 12.6551 9.15217C12.7597 9.93968 12.994 10.6899 13.3582 11.4027C13.3936 11.4726 13.4289 11.5425 13.4654 11.6146C13.736 12.1195 14.0718 12.545 14.452 12.978C14.5016 13.0403 14.5513 13.1026 14.6025 13.1668C15.6532 14.3752 17.4566 15.1851 19.0614 15.3786C21.2547 15.4995 23.1381 15.033 24.8426 13.6532C24.9075 13.6055 24.9723 13.5579 25.0392 13.5087C26.338 12.4674 27.1294 10.7392 27.3426 9.15217C27.4707 6.98086 26.8532 5.11009 25.3507 3.462C24.009 2.10284 22.1503 1.3064 20.1988 1.25393C17.8685 1.22791 15.8579 2.17114 14.2957 3.82595ZM1.44907 7.84875C1.28826 8.18228 1.28805 8.42826 1.40512 8.77708C1.60554 9.02017 1.7244 9.12934 2.03012 9.22719C2.15701 9.23392 2.28417 9.23634 2.41125 9.23621C2.52908 9.23636 2.52908 9.23636 2.64928 9.23652C2.73537 9.23625 2.82146 9.23598 2.91015 9.2357C3.00087 9.23571 3.09158 9.23573 3.18504 9.23574C3.4856 9.23568 3.78615 9.2351 4.0867 9.23451C4.29481 9.23437 4.50291 9.23426 4.71101 9.23419C5.20323 9.23396 5.69545 9.23334 6.18767 9.23259C6.74805 9.23175 7.30843 9.23134 7.8688 9.23096C9.02154 9.23018 10.1743 9.2288 11.327 9.22719C11.327 8.63305 11.327 8.03891 11.327 7.42677C10.1331 7.42169 8.93925 7.41755 7.74536 7.41511C7.191 7.41395 6.63664 7.41237 6.08229 7.4098C5.54736 7.40731 5.01245 7.40601 4.47753 7.40542C4.27338 7.40501 4.06923 7.40419 3.86508 7.40298C3.57928 7.40135 3.29352 7.40112 3.00772 7.40122C2.9232 7.40042 2.83868 7.39961 2.7516 7.39877C2.20512 7.40093 1.8374 7.44718 1.44907 7.84875ZM28.6707 7.42677C28.6707 8.02091 28.6707 8.61505 28.6707 9.22719C29.8762 9.23227 31.0816 9.23641 32.287 9.23885C32.8467 9.24001 33.4064 9.24159 33.9661 9.24417C34.454 9.24641 34.9418 9.24786 35.4297 9.24836C35.688 9.24866 35.9463 9.24946 36.2046 9.25098C36.493 9.25261 36.7814 9.25284 37.0699 9.25274C37.1981 9.25395 37.1982 9.25395 37.329 9.25519C37.8848 9.2596 37.8848 9.2596 38.3582 9.00214C38.5528 8.77489 38.6593 8.61812 38.7098 8.32698C38.6588 8.03329 38.558 7.87895 38.3582 7.65183C37.9229 7.36708 37.4968 7.39637 36.99 7.40122C36.9001 7.40119 36.8101 7.40116 36.7174 7.40113C36.4206 7.40128 36.1239 7.40303 35.8271 7.4048C35.6211 7.40522 35.4151 7.40554 35.2091 7.40576C34.7227 7.40646 34.2363 7.4083 33.7499 7.41057C33.1959 7.41308 32.642 7.41432 32.088 7.41545C30.9489 7.4178 29.8098 7.42192 28.6707 7.42677ZM6.327 10.6525C6.30535 10.7321 6.28371 10.8116 6.26141 10.8935C6.05575 11.6493 5.85007 12.4051 5.64439 13.1609C5.53868 13.5492 5.43299 13.9376 5.3273 14.326C5.22499 14.702 5.12266 15.078 5.02032 15.454C4.98161 15.5963 4.9429 15.7385 4.9042 15.8808C4.86726 16.0165 4.83031 16.1523 4.79336 16.288C4.75782 16.4186 4.72231 16.5492 4.68684 16.6798C4.59779 17.0074 4.50783 17.3346 4.41643 17.6616C4.3982 17.7271 4.37996 17.7927 4.36117 17.8602C4.3265 17.9847 4.2916 18.1091 4.25643 18.2334C4.19257 18.4632 4.1395 18.6654 4.1395 18.9044C5.60903 18.9044 7.07856 18.9044 8.59262 18.9044C8.49135 18.3695 8.38462 17.8517 8.24182 17.328C8.223 17.258 8.20418 17.188 8.18479 17.1159C8.1233 16.8876 8.06135 16.6594 7.99936 16.4312C7.95616 16.2714 7.91296 16.1117 7.86979 15.952C7.77964 15.6187 7.68925 15.2856 7.5987 14.9525C7.48259 14.5252 7.36718 14.0977 7.25195 13.6702C7.16313 13.341 7.07389 13.012 6.98453 12.6829C6.94178 12.5253 6.89917 12.3676 6.8567 12.2099C6.79749 11.9902 6.73772 11.7706 6.6778 11.5511C6.66034 11.4859 6.64289 11.4206 6.6249 11.3534C6.60848 11.2937 6.59206 11.234 6.57514 11.1725C6.55405 11.0947 6.55405 11.0947 6.53254 11.0154C6.48204 10.8551 6.48204 10.8551 6.327 10.6525ZM33.5926 10.6525C33.2147 12.0286 32.8375 13.4049 32.461 14.7814C32.4214 14.926 32.3818 15.0707 32.3423 15.2153C32.1968 15.747 32.0516 16.2787 31.9068 16.8106C31.8621 16.9748 31.8173 17.1389 31.7724 17.3031C31.71 17.5311 31.648 17.7591 31.5861 17.9872C31.5676 18.0545 31.5491 18.1218 31.53 18.1912C31.5134 18.2526 31.4969 18.3141 31.4798 18.3773C31.4653 18.4306 31.4507 18.4838 31.4358 18.5387C31.3971 18.6921 31.3971 18.6921 31.4051 18.9044C32.8747 18.9044 34.3442 18.9044 35.8582 18.9044C35.7294 18.219 35.7294 18.219 35.5651 17.5461C35.5524 17.4991 35.5396 17.4521 35.5265 17.4037C35.485 17.2509 35.4431 17.0982 35.4011 16.9455C35.3713 16.836 35.3415 16.7265 35.3117 16.617C35.2333 16.3294 35.1546 16.0418 35.0758 15.7543C35.0134 15.5261 34.9512 15.2978 34.889 15.0696C34.4876 13.596 34.0809 12.1238 33.6707 10.6525C33.645 10.6525 33.6192 10.6525 33.5926 10.6525ZM19.0614 16.6539C19.0614 20.7386 19.0614 24.8233 19.0614 29.0317C19.6801 29.0317 20.2989 29.0317 20.9364 29.0317C20.9364 24.947 20.9364 20.8624 20.9364 16.6539C20.3176 16.6539 19.6989 16.6539 19.0614 16.6539ZM1.327 20.2547C1.47639 21.8326 2.12523 22.9828 3.38755 23.9962C4.48641 24.7646 5.80157 25.0278 7.13663 24.8759C8.2549 24.6886 9.21582 24.191 9.99887 23.4054C10.0473 23.3613 10.0958 23.3171 10.1457 23.2715C10.9336 22.5014 11.4051 21.319 11.4051 20.2547C8.07934 20.2547 4.75356 20.2547 1.327 20.2547ZM28.5926 20.2547C28.7204 21.6046 29.1569 22.592 30.1551 23.5555C30.2013 23.6025 30.2476 23.6495 30.2952 23.6979C31.1682 24.5158 32.4295 24.8921 33.6219 24.9386C34.9749 24.9007 36.2534 24.3907 37.2105 23.4723C38.0772 22.5784 38.6707 21.4991 38.6707 20.2547C35.345 20.2547 32.0192 20.2547 28.5926 20.2547ZM11.7176 30.5321C11.7176 31.3738 11.7176 32.2155 11.7176 33.0827C17.1833 33.0827 22.6489 33.0827 28.2801 33.0827C28.2801 32.241 28.2801 31.3993 28.2801 30.5321C28.0211 30.2834 27.9449 30.2806 27.5954 30.2769C27.5336 30.2774 27.4718 30.2779 27.4082 30.2785C27.3424 30.2781 27.2767 30.2777 27.2089 30.2774C26.9878 30.2765 26.7667 30.2772 26.5455 30.2779C26.3873 30.2776 26.2291 30.2772 26.0709 30.2767C25.6405 30.2757 25.2102 30.2761 24.7799 30.2768C24.3302 30.2774 23.8805 30.2768 23.4308 30.2765C22.6755 30.2761 21.9202 30.2766 21.165 30.2777C20.2909 30.2789 19.4169 30.2785 18.5429 30.2773C17.7933 30.2763 17.0438 30.2761 16.2943 30.2767C15.8462 30.2771 15.3982 30.2771 14.9501 30.2764C14.5289 30.2757 14.1078 30.2762 13.6866 30.2775C13.5318 30.2778 13.3769 30.2777 13.222 30.2772C13.0112 30.2766 12.8004 30.2773 12.5896 30.2785C12.5278 30.278 12.466 30.2774 12.4024 30.2769C12.0528 30.2806 11.9766 30.2834 11.7176 30.5321ZM7.65512 34.658C7.65512 35.475 7.65512 36.2919 7.65512 37.1336C15.802 37.1336 23.9489 37.1336 32.3426 37.1336C32.3426 36.3167 32.3426 35.4997 32.3426 34.658C32.0222 34.3353 32.0222 34.3353 31.6168 34.3202C31.4904 34.319 31.4904 34.319 31.3615 34.3178C31.2689 34.3185 31.1764 34.3192 31.0811 34.3199C30.9828 34.3194 30.8845 34.3189 30.7832 34.3184C30.5102 34.3172 30.2372 34.3178 29.9641 34.3187C29.6697 34.3194 29.3753 34.3184 29.0809 34.3175C28.5041 34.3162 27.9274 34.3165 27.3506 34.3174C26.8819 34.318 26.4132 34.3181 25.9445 34.3178C25.8779 34.3178 25.8112 34.3177 25.7425 34.3177C25.6072 34.3176 25.4718 34.3175 25.3364 34.3174C24.0662 34.3165 22.796 34.3175 21.5258 34.3191C20.4354 34.3205 19.345 34.3202 18.2546 34.3188C16.9891 34.3172 15.7235 34.3166 14.4579 34.3175C14.323 34.3176 14.1881 34.3177 14.0532 34.3178C13.9537 34.3179 13.9537 34.3179 13.8521 34.3179C13.3839 34.3182 12.9156 34.3178 12.4474 34.3171C11.8769 34.3162 11.3065 34.3164 10.736 34.318C10.4449 34.3188 10.1537 34.3191 9.86251 34.3181C9.54719 34.3171 9.23193 34.3184 8.91661 34.3199C8.8241 34.3192 8.7316 34.3185 8.63629 34.3178C8.55205 34.3186 8.4678 34.3194 8.381 34.3202C8.30819 34.3202 8.23538 34.3203 8.16037 34.3203C7.91862 34.3498 7.91862 34.3498 7.65512 34.658Z" fill="white"/>
<path d="M19.5313 2.92578C19.8664 2.92578 20.2016 2.92578 20.5469 2.92578C20.5469 3.34663 20.5469 3.76747 20.5469 4.20107C20.7531 4.20107 20.9594 4.20107 21.1719 4.20107C21.4297 4.26144 21.4297 4.26144 21.665 4.34173C21.7437 4.36784 21.8223 4.39395 21.9034 4.42085C22.1094 4.50114 22.1094 4.50114 22.3438 4.65118C22.3082 4.75755 22.2724 4.8638 22.2363 4.97C22.2064 5.05877 22.2064 5.05877 22.1759 5.14934C22.1131 5.3163 22.0393 5.46956 21.9531 5.6264C21.9096 5.6119 21.8661 5.59739 21.8213 5.58245C20.697 5.20138 20.697 5.20138 19.541 5.34509C19.214 5.52094 19.0259 5.65675 18.9063 6.00149C18.8772 6.29702 18.8864 6.48409 19.0137 6.75635C19.431 7.20479 19.9882 7.42358 20.5497 7.66846C21.3789 8.03214 22.1249 8.38845 22.5146 9.22928C22.6912 9.84968 22.6942 10.6072 22.3691 11.1812C22.0396 11.6478 21.6521 12.0894 21.0938 12.3029C20.8875 12.3277 20.6813 12.3524 20.4688 12.378C20.4688 12.8483 20.4688 13.3187 20.4688 13.8033C19.744 13.8106 19.744 13.8106 19.5313 13.8033C19.4531 13.7283 19.4531 13.7283 19.4455 13.442C19.446 13.3233 19.447 13.2046 19.4482 13.0859C19.4486 13.0254 19.4489 12.965 19.4493 12.9026C19.4502 12.7527 19.4516 12.6029 19.4531 12.453C19.4011 12.451 19.349 12.4491 19.2953 12.4471C18.6127 12.4068 18.028 12.229 17.4219 11.9278C17.4583 11.5217 17.519 11.2373 17.7344 10.8776C17.9638 10.9495 18.1909 11.023 18.4155 11.1079C19.1068 11.3596 19.8931 11.5042 20.5957 11.2058C20.8757 11.0396 21.0362 10.8706 21.1719 10.5775C21.2314 10.2121 21.216 9.92314 21.0596 9.58356C20.531 9.03884 19.8096 8.75764 19.1125 8.46123C18.3923 8.14467 17.8475 7.76332 17.5586 7.02829C17.412 6.33643 17.5179 5.78003 17.8711 5.16223C18.2253 4.7371 18.601 4.44881 19.1406 4.27609C19.2695 4.27609 19.3984 4.27609 19.5313 4.27609C19.5313 3.83049 19.5313 3.38489 19.5313 2.92578Z" fill="white"/>
</g>
<defs>
<clipPath id="clip0_21258_13750">
<rect width="40" height="38.4088" fill="white"/>
</clipPath>
</defs>
</svg>
