<svg width="24" height="24" viewBox="0 0 24 24" fill="none" xmlns="http://www.w3.org/2000/svg">
<g id="telegram (2) 1" clip-path="url(#clip0_3350_9338)">
<g id="Artboard">
<path id="Vector" fill-rule="evenodd" clip-rule="evenodd" d="M12 0C5.373 0 0 5.373 0 12C0 18.627 5.373 24 12 24C18.627 24 24 18.627 24 12C24 5.373 18.627 0 12 0ZM17.562 8.161C17.382 10.058 16.6 14.663 16.203 16.788C16.035 17.688 15.703 17.989 15.383 18.018C14.686 18.082 14.157 17.557 13.482 17.115C12.426 16.423 11.829 15.992 10.804 15.316C9.619 14.535 10.387 14.106 11.062 13.405C11.239 13.221 14.309 10.428 14.369 10.175C14.376 10.143 14.384 10.025 14.313 9.963C14.242 9.901 14.139 9.922 14.065 9.939C13.959 9.963 12.272 11.078 9.003 13.284C8.524 13.613 8.09 13.773 7.701 13.765C7.273 13.756 6.449 13.523 5.836 13.323C5.085 13.079 4.487 12.949 4.539 12.535C4.566 12.319 4.863 12.098 5.431 11.872C8.929 10.348 11.262 9.343 12.429 8.857C15.762 7.471 16.454 7.23 16.906 7.222C17.472 7.214 17.608 7.681 17.562 8.161Z" fill="black"/>
</g>
</g>
<defs>
<clipPath id="clip0_3350_9338">
<rect width="24" height="24" fill="white"/>
</clipPath>
</defs>
</svg>
