<svg width="40" height="40" viewBox="0 0 40 40" fill="none" xmlns="http://www.w3.org/2000/svg">
<ellipse cx="20" cy="20.5" rx="10" ry="10.5" fill="#F1F1F1"/>
<path d="M5.00315 19.9538C4.87124 11.8351 11.8504 4.95591 20.0762 5.00021C28.1071 5.04335 35.036 11.7885 34.9999 20.0751C34.9648 28.2077 28.1059 35.0648 19.8673 34.9995C11.7033 34.9319 4.83156 28.0678 5.00315 19.9538ZM17.3436 26.2209C17.3646 26.3457 17.2526 26.5707 17.4603 26.6488C17.6424 26.7153 17.7802 26.5427 17.9051 26.4261C18.3883 25.9749 18.8938 25.5435 19.3385 25.0573C19.6887 24.6772 19.9478 24.7355 20.319 25.02C21.3369 25.8012 22.3757 26.5544 23.417 27.303C24.0998 27.7927 24.5842 27.6131 24.7967 26.7981C24.9333 26.2722 25.0301 25.737 25.1469 25.2054C25.8472 21.901 26.5476 18.5974 27.248 15.2946C27.4406 14.3781 26.9912 13.991 26.104 14.2814C25.9745 14.3233 25.8484 14.3758 25.7212 14.4248C23.0753 15.4438 20.4272 16.4633 17.7767 17.4831C15.818 18.2379 13.8604 18.9958 11.9041 19.7568C11.6228 19.8664 11.2668 19.9748 11.2831 20.3619C11.2994 20.749 11.6636 20.7653 11.9286 20.8516C12.8916 21.1594 13.8651 21.4346 14.8223 21.7564C14.9996 21.8273 15.1918 21.8523 15.3814 21.8293C15.5709 21.8063 15.7516 21.7359 15.9067 21.6247C18.4747 19.983 21.0661 18.3599 23.6492 16.7381C23.8453 16.6145 24.0356 16.4617 24.2831 16.4664C24.5305 16.4711 24.6146 16.583 24.4652 16.801C24.3801 16.9071 24.2834 17.0034 24.1768 17.0879C22.2018 18.8757 20.2272 20.6612 18.2529 22.4443C17.9751 22.6974 17.6004 22.8897 17.5666 23.341C17.4954 24.2889 17.4195 25.2357 17.3436 26.2209Z" fill="black"/>
</svg>
