<svg width="14" height="14" viewBox="0 0 14 14" fill="none" xmlns="http://www.w3.org/2000/svg">
<path d="M13.3832 6.62314C13.1657 2.91122 9.79329 0.050486 5.90899 0.690472C3.23414 1.13206 1.09042 3.3016 0.674477 5.97674C0.431308 7.52551 0.751281 8.99108 1.44879 10.2007L0.879255 12.319C0.751272 12.799 1.1928 13.2342 1.66634 13.0998L3.75248 12.5238C4.69955 13.0806 5.80661 13.4006 6.99046 13.4006C10.5996 13.4006 13.5944 10.2199 13.3832 6.62314ZM10.1197 9.38148C10.0621 9.49667 9.99166 9.60548 9.90207 9.70787C9.74209 9.88067 9.56931 10.0087 9.37733 10.0855C9.18536 10.1687 8.9742 10.2071 8.75023 10.2071C8.42387 10.2071 8.07191 10.1303 7.70716 9.97027C7.33601 9.81027 6.97127 9.59907 6.60652 9.33667C6.23537 9.06788 5.8898 8.76709 5.55705 8.44069C5.22429 8.1079 4.92991 7.7559 4.66115 7.39111C4.39878 7.02632 4.18762 6.66153 4.03404 6.29674C3.88046 5.93195 3.80368 5.57996 3.80368 5.24717C3.80368 5.02957 3.84207 4.81838 3.91886 4.62638C3.99565 4.42799 4.11725 4.24879 4.29002 4.0888C4.4948 3.884 4.71876 3.788 4.95552 3.788C5.04511 3.788 5.13468 3.8072 5.21787 3.8456C5.30106 3.884 5.37787 3.9416 5.43546 4.02479L6.17775 5.07436C6.23534 5.15756 6.28014 5.22796 6.30574 5.29836C6.33774 5.36876 6.35054 5.43276 6.35054 5.49675C6.35054 5.57355 6.32495 5.65036 6.28016 5.72716C6.23536 5.80396 6.17775 5.88075 6.10096 5.95754L5.85779 6.21354C5.8194 6.25194 5.80663 6.29034 5.80663 6.34154C5.80663 6.36714 5.813 6.39274 5.8194 6.41834C5.8322 6.44394 5.83862 6.46314 5.84502 6.48234C5.90261 6.59114 6.00498 6.72552 6.14576 6.89192C6.29294 7.05832 6.44655 7.23112 6.61293 7.39751C6.7857 7.57031 6.95208 7.7239 7.12485 7.8711C7.29123 8.01189 7.43199 8.10791 7.54078 8.1655C7.55997 8.17191 7.57919 8.18469 7.59839 8.19109C7.62398 8.20389 7.64958 8.2039 7.68158 8.2039C7.73917 8.2039 7.77758 8.18471 7.81597 8.14631L8.05911 7.90311C8.1423 7.81991 8.21912 7.76231 8.28951 7.72391C8.3663 7.67911 8.43668 7.6535 8.51987 7.6535C8.58386 7.6535 8.64785 7.66631 8.71824 7.69831C8.78863 7.73031 8.86541 7.76871 8.9422 7.82631L10.0045 8.58149C10.0877 8.63909 10.1452 8.70949 10.1836 8.78629C10.2156 8.86949 10.2348 8.94628 10.2348 9.03588C10.1964 9.14467 10.1709 9.26628 10.1197 9.38148Z" fill="black"/>
<path d="M10.1197 9.38148C10.0621 9.49667 9.99166 9.60548 9.90207 9.70787C9.74209 9.88067 9.56931 10.0087 9.37733 10.0855C9.18536 10.1687 8.9742 10.2071 8.75023 10.2071C8.42387 10.2071 8.07191 10.1303 7.70716 9.97027C7.33601 9.81027 6.97127 9.59907 6.60652 9.33667C6.23537 9.06788 5.8898 8.76709 5.55705 8.44069C5.22429 8.1079 4.92991 7.7559 4.66115 7.39111C4.39878 7.02632 4.18762 6.66153 4.03404 6.29674C3.88046 5.93195 3.80368 5.57996 3.80368 5.24717C3.80368 5.02957 3.84207 4.81838 3.91886 4.62638C3.99565 4.42799 4.11725 4.24879 4.29002 4.0888C4.4948 3.884 4.71876 3.788 4.95552 3.788C5.04511 3.788 5.13468 3.8072 5.21787 3.8456C5.30106 3.884 5.37787 3.9416 5.43546 4.02479L6.17775 5.07436C6.23534 5.15756 6.28014 5.22796 6.30574 5.29836C6.33774 5.36876 6.35054 5.43276 6.35054 5.49675C6.35054 5.57355 6.32495 5.65036 6.28016 5.72716C6.23536 5.80396 6.17775 5.88075 6.10096 5.95754L5.85779 6.21354C5.8194 6.25194 5.80663 6.29034 5.80663 6.34154C5.80663 6.36714 5.813 6.39274 5.8194 6.41834C5.8322 6.44394 5.83862 6.46314 5.84502 6.48234C5.90261 6.59114 6.00498 6.72552 6.14576 6.89192C6.29294 7.05832 6.44655 7.23112 6.61293 7.39751C6.7857 7.57031 6.95208 7.7239 7.12485 7.8711C7.29123 8.01189 7.43199 8.10791 7.54078 8.1655C7.55997 8.17191 7.57919 8.18469 7.59839 8.19109C7.62398 8.20389 7.64958 8.2039 7.68158 8.2039C7.73917 8.2039 7.77758 8.18471 7.81597 8.14631L8.05911 7.90311C8.1423 7.81991 8.21912 7.76231 8.28951 7.72391C8.3663 7.67911 8.43668 7.6535 8.51987 7.6535C8.58386 7.6535 8.64785 7.66631 8.71824 7.69831C8.78863 7.73031 8.86541 7.76871 8.9422 7.82631L10.0045 8.58149C10.0877 8.63909 10.1452 8.70949 10.1836 8.78629C10.2156 8.86949 10.2348 8.94628 10.2348 9.03588C10.1964 9.14467 10.1709 9.26628 10.1197 9.38148Z" fill="white"/>
</svg>
