<svg width="40" height="40" viewBox="0 0 40 40" fill="none" xmlns="http://www.w3.org/2000/svg">
<path d="M34.9753 19.1154C34.4654 10.4155 26.5614 3.7107 17.4576 5.21067C11.1884 6.24565 6.16408 11.3305 5.1892 17.6004C4.61928 21.2303 5.36921 24.6652 7.004 27.5002L5.66915 32.4651C5.36919 33.59 6.40403 34.61 7.51388 34.295L12.4033 32.9451C14.623 34.25 17.2176 35 19.9923 35C28.4512 35 35.4703 27.5452 34.9753 19.1154ZM27.3264 25.5802C27.1914 25.8502 27.0264 26.1052 26.8164 26.3452C26.4414 26.7502 26.0365 27.0502 25.5865 27.2302C25.1366 27.4252 24.6417 27.5152 24.1167 27.5152C23.3518 27.5152 22.5269 27.3352 21.6721 26.9602C20.8022 26.5852 19.9473 26.0902 19.0924 25.4752C18.2225 24.8452 17.4126 24.1402 16.6327 23.3753C15.8528 22.5953 15.1629 21.7703 14.533 20.9153C13.918 20.0603 13.4231 19.2053 13.0632 18.3504C12.7032 17.4954 12.5233 16.6704 12.5233 15.8904C12.5233 15.3804 12.6133 14.8855 12.7932 14.4355C12.9732 13.9705 13.2582 13.5505 13.6631 13.1755C14.1431 12.6955 14.668 12.4705 15.2229 12.4705C15.4329 12.4705 15.6428 12.5155 15.8378 12.6055C16.0328 12.6955 16.2128 12.8305 16.3478 13.0255L18.0875 15.4854C18.2225 15.6804 18.3275 15.8454 18.3875 16.0104C18.4625 16.1754 18.4925 16.3254 18.4925 16.4754C18.4925 16.6554 18.4325 16.8354 18.3275 17.0154C18.2225 17.1954 18.0875 17.3754 17.9075 17.5554L17.3376 18.1554C17.2476 18.2453 17.2177 18.3354 17.2177 18.4554C17.2177 18.5154 17.2326 18.5754 17.2476 18.6354C17.2776 18.6954 17.2927 18.7404 17.3077 18.7854C17.4426 19.0404 17.6826 19.3553 18.0125 19.7453C18.3575 20.1353 18.7175 20.5403 19.1074 20.9303C19.5124 21.3353 19.9023 21.6953 20.3073 22.0403C20.6972 22.3703 21.0271 22.5953 21.2821 22.7303C21.3271 22.7453 21.3721 22.7752 21.4171 22.7902C21.4771 22.8202 21.5371 22.8203 21.6121 22.8203C21.7471 22.8203 21.8371 22.7753 21.9271 22.6853L22.4969 22.1153C22.6919 21.9203 22.872 21.7853 23.0369 21.6953C23.2169 21.5903 23.3819 21.5303 23.5768 21.5303C23.7268 21.5303 23.8768 21.5603 24.0418 21.6353C24.2068 21.7103 24.3867 21.8003 24.5667 21.9353L27.0564 23.7052C27.2514 23.8402 27.3863 24.0053 27.4763 24.1853C27.5513 24.3802 27.5963 24.5602 27.5963 24.7702C27.5063 25.0252 27.4463 25.3102 27.3264 25.5802Z" fill="black"/>
<path d="M27.3264 25.5802C27.1914 25.8502 27.0264 26.1052 26.8164 26.3452C26.4414 26.7502 26.0365 27.0502 25.5865 27.2302C25.1366 27.4252 24.6417 27.5152 24.1167 27.5152C23.3518 27.5152 22.5269 27.3352 21.6721 26.9602C20.8022 26.5852 19.9473 26.0902 19.0924 25.4752C18.2225 24.8452 17.4126 24.1402 16.6327 23.3753C15.8528 22.5953 15.1629 21.7703 14.533 20.9153C13.918 20.0603 13.4231 19.2053 13.0632 18.3504C12.7032 17.4954 12.5233 16.6704 12.5233 15.8904C12.5233 15.3804 12.6133 14.8855 12.7932 14.4355C12.9732 13.9705 13.2582 13.5505 13.6631 13.1755C14.1431 12.6955 14.668 12.4705 15.2229 12.4705C15.4329 12.4705 15.6428 12.5155 15.8378 12.6055C16.0328 12.6955 16.2128 12.8305 16.3478 13.0255L18.0875 15.4854C18.2225 15.6804 18.3275 15.8454 18.3875 16.0104C18.4625 16.1754 18.4925 16.3254 18.4925 16.4754C18.4925 16.6554 18.4325 16.8354 18.3275 17.0154C18.2225 17.1954 18.0875 17.3754 17.9075 17.5554L17.3376 18.1554C17.2476 18.2453 17.2177 18.3354 17.2177 18.4554C17.2177 18.5154 17.2326 18.5754 17.2476 18.6354C17.2776 18.6954 17.2927 18.7404 17.3077 18.7854C17.4426 19.0404 17.6826 19.3553 18.0125 19.7453C18.3575 20.1353 18.7175 20.5403 19.1074 20.9303C19.5124 21.3353 19.9023 21.6953 20.3073 22.0403C20.6972 22.3703 21.0271 22.5953 21.2821 22.7303C21.3271 22.7453 21.3721 22.7752 21.4171 22.7902C21.4771 22.8202 21.5371 22.8203 21.6121 22.8203C21.7471 22.8203 21.8371 22.7753 21.9271 22.6853L22.4969 22.1153C22.6919 21.9203 22.872 21.7853 23.0369 21.6953C23.2169 21.5903 23.3819 21.5303 23.5768 21.5303C23.7268 21.5303 23.8768 21.5603 24.0418 21.6353C24.2068 21.7103 24.3867 21.8003 24.5667 21.9353L27.0564 23.7052C27.2514 23.8402 27.3863 24.0053 27.4763 24.1853C27.5513 24.3802 27.5963 24.5602 27.5963 24.7702C27.5063 25.0252 27.4463 25.3102 27.3264 25.5802Z" fill="#F1F1F1"/>
</svg>
