<?xml version="1.0" standalone="no"?>
<!DOCTYPE svg PUBLIC "-//W3C//DTD SVG 20010904//EN"
 "http://www.w3.org/TR/2001/REC-SVG-20010904/DTD/svg10.dtd">
<svg version="1.0" xmlns="http://www.w3.org/2000/svg"
 width="512.000000pt" height="512.000000pt" viewBox="0 0 512.000000 512.000000"
 preserveAspectRatio="xMidYMid meet">
<metadata>
Created by potrace 1.14, written by Peter Selinger 2001-2017
</metadata>
<g transform="translate(0.000000,512.000000) scale(0.100000,-0.100000)"
fill="#000000" stroke="none">
<path d="M2369 5116 c-2 -2 -36 -6 -74 -10 -39 -4 -81 -8 -95 -11 -31 -5 -135
-23 -174 -31 -49 -9 -236 -61 -311 -87 -353 -122 -693 -335 -962 -606 -423
-423 -675 -951 -741 -1551 -15 -135 -6 -531 14 -635 2 -11 9 -49 15 -85 17
-100 66 -284 106 -395 164 -461 454 -862 844 -1167 333 -259 758 -445 1154
-504 22 -3 51 -8 65 -10 81 -13 176 -19 345 -19 239 0 376 14 565 57 590 134
1112 469 1481 953 68 89 159 230 203 315 22 41 47 89 56 105 94 172 207 539
236 770 3 28 8 61 10 75 9 49 12 457 4 525 -18 144 -22 171 -40 261 -140 679
-529 1252 -1112 1637 -186 123 -450 248 -638 303 -66 19 -252 65 -280 69 -19
3 -44 7 -55 10 -11 2 -42 7 -70 10 -27 4 -61 9 -75 12 -28 5 -466 14 -471 9z
m451 -250 c14 -2 50 -7 80 -11 104 -13 245 -47 393 -96 342 -112 650 -302 906
-560 329 -330 537 -718 637 -1184 54 -251 55 -635 3 -895 -142 -716 -603
-1319 -1254 -1640 -130 -64 -395 -162 -475 -175 -19 -3 -55 -11 -80 -16 -63
-15 -69 -16 -125 -23 -27 -4 -66 -9 -85 -12 -64 -10 -414 -12 -485 -3 -38 5
-92 11 -120 15 -133 16 -399 90 -545 150 -214 89 -482 258 -649 409 -372 335
-619 755 -725 1232 -14 61 -27 131 -30 155 -3 24 -9 70 -13 103 -16 125 -8
471 12 590 47 270 104 452 212 673 280 571 772 997 1378 1193 39 12 72 22 75
22 3 0 25 5 50 13 100 29 213 48 350 60 41 4 77 8 80 11 5 5 374 -5 410 -11z"/>
<path d="M1658 3913 c-10 -3 -18 -8 -18 -13 0 -8 43 -128 59 -165 5 -11 27
-66 50 -123 l40 -103 -39 -107 c-21 -59 -74 -204 -118 -322 -44 -118 -147
-395 -227 -615 -213 -580 -341 -911 -370 -961 -44 -75 -122 -150 -191 -185
-35 -18 -64 -35 -65 -38 -1 -3 -2 -17 -3 -31 l-3 -26 386 1 386 0 1 22 c2 32
-14 42 -93 57 -99 19 -171 57 -213 113 -34 45 -35 49 -38 152 l-4 107 152 414
c230 626 305 829 372 1005 34 88 66 174 72 190 6 17 18 41 26 55 l13 25 25
-55 c30 -69 180 -449 319 -810 58 -151 115 -297 125 -325 11 -27 28 -72 38
-100 23 -65 88 -234 99 -260 5 -11 22 -56 39 -100 31 -84 127 -330 165 -425
12 -30 26 -58 30 -61 7 -5 97 7 102 14 1 1 53 101 115 222 354 691 395 768
407 772 9 3 26 -31 86 -167 10 -25 32 -72 47 -105 163 -360 185 -492 99 -590
-31 -35 -105 -71 -166 -81 -45 -7 -62 -19 -59 -42 3 -16 40 -17 495 -20 l492
-2 -3 22 c-2 16 -20 32 -58 52 -104 56 -188 155 -255 299 -18 40 -68 158 -110
262 -43 105 -100 244 -128 310 -27 66 -87 210 -132 321 l-82 200 32 60 c17 32
88 169 157 304 117 230 159 309 246 470 86 159 199 276 287 296 38 9 40 11 40
49 l0 40 -305 0 -304 0 -3 -30 c-3 -42 6 -52 56 -59 59 -8 128 -42 149 -74 34
-52 14 -121 -104 -372 -133 -282 -279 -565 -289 -561 -5 2 -22 34 -38 70 -15
36 -32 75 -37 86 -11 24 -53 125 -246 588 l-148 358 -189 -2 c-148 -1 -190 -4
-194 -15 -3 -8 6 -42 20 -76 25 -64 170 -416 187 -453 5 -11 23 -54 40 -95 41
-98 45 -108 63 -150 8 -19 40 -96 70 -170 65 -161 75 -184 95 -230 9 -19 23
-55 33 -80 9 -25 38 -97 63 -160 25 -63 46 -121 46 -128 0 -12 -142 -303 -160
-327 -4 -5 -35 -63 -69 -129 -62 -116 -119 -216 -126 -216 -2 0 -31 71 -65
158 -34 86 -65 166 -70 177 -4 11 -22 58 -40 105 -17 47 -36 96 -42 110 -5 14
-59 153 -119 310 -61 157 -114 294 -119 305 -5 11 -23 56 -40 100 -16 44 -106
278 -199 520 l-168 440 -179 1 c-99 1 -187 -1 -196 -3z"/>
<path d="M1547 2378 c-10 -25 -11 -35 -2 -40 22 -13 573 -12 594 1 11 7 11 13
1 32 -7 13 -17 27 -23 31 -5 3 -133 7 -283 7 l-274 2 -13 -33z"/>
</g>
</svg>
