<svg width="469" height="119" viewBox="0 0 469 119" fill="none" xmlns="http://www.w3.org/2000/svg">
<mask id="mask0_18322_27977" style="mask-type:alpha" maskUnits="userSpaceOnUse" x="126" y="-38" width="198" height="198">
<circle cx="225.407" cy="61.2508" r="98.5789" fill="#D9D9D9"/>
</mask>
<g mask="url(#mask0_18322_27977)">
<path d="M180.562 69.4227H207.617C207.199 68.3184 206.781 67.2136 206.348 66.125H181.847C181.414 67.2136 180.996 68.365 180.562 69.4227Z" fill="url(#paint0_linear_18322_27977)"/>
<path d="M298.305 114.515C295.88 112.961 293.772 110.959 292.091 108.614C290.33 106.354 288.92 103.838 287.913 101.152C286.468 97.3276 279.353 79.9209 268.619 53.6944C274.553 42.0798 280.476 30.46 286.39 18.835C291.05 9.82741 295.353 4.48843 300.542 3.50495L301.303 3.42686H301.94V0.304667L275.532 0.304667V3.56739L277.924 3.69227C280.203 3.79064 282.36 4.74952 283.967 6.37736C284.795 7.54009 285.222 8.94421 285.178 10.3738C285.178 13.0277 276.992 29.9188 266.988 49.7447L246.716 0.289062L229.396 0.289062L232.503 7.79799C233.539 10.2125 234.542 12.6426 235.516 15.0883C242.879 32.8225 250.087 50.6348 257.403 68.4002C257.062 69.0399 256.736 69.6801 256.409 70.3202C251.019 80.7171 245.737 90.8643 241.31 99.3101C232.953 76.9237 226.677 60.6881 221.753 47.8871C217.419 36.4755 211.252 20.2868 203.671 0.304667L186.304 0.304667C188.572 6.20563 190.836 12.1118 193.093 18.0232L177.683 60.1729L162.009 103.228C156.137 115.186 148.883 115.498 148.883 115.498V118.324H182.545V115.421C182.545 115.421 169.916 116.123 167.415 106.866C166.686 103.498 166.864 99.9953 167.928 96.7184L175.492 75.8313C177.388 70.6274 179.294 65.3821 181.209 60.0952L194.879 22.6284C199.684 35.1173 204.479 47.6061 209.264 60.0952L211.532 66.2145L212.961 69.7273L215.182 75.8313C220.588 89.9904 225.947 104.087 231.291 118.246H235.671L239.493 110.737C240.674 108.458 241.854 106.132 243.035 103.853C248.068 94.018 253.054 84.1984 258.087 74.3325L259.066 72.4277C262.721 81.2742 266.413 90.1202 270.141 98.9666C270.618 100.341 270.966 101.758 271.182 103.197C272.037 108.474 270.203 111.564 267.749 113.282C265.152 114.936 262.124 115.778 259.05 115.702V118.324H301.924V115.702L300.883 115.577C299.976 115.351 299.108 114.993 298.305 114.515Z" fill="url(#paint1_linear_18322_27977)"/>
</g>
<mask id="mask1_18322_27977" style="mask-type:alpha" maskUnits="userSpaceOnUse" x="1" y="69" width="158" height="15">
<path d="M158.814 69.7656H1V83.5188H158.814V69.7656Z" fill="#FF4600"/>
</mask>
<g mask="url(#mask1_18322_27977)">
<path d="M156.099 73.8828H3.72656V79.3834H156.099V73.8828Z" fill="url(#paint2_linear_18322_27977)"/>
</g>
<mask id="mask2_18322_27977" style="mask-type:alpha" maskUnits="userSpaceOnUse" x="311" y="69" width="158" height="15">
<path d="M468.994 69.7656H311.18V83.5188H468.994V69.7656Z" fill="#FF4600"/>
</mask>
<g mask="url(#mask2_18322_27977)">
<path d="M466.278 73.8828H313.906V79.3834H466.278V73.8828Z" fill="url(#paint3_linear_18322_27977)"/>
</g>
<defs>
<linearGradient id="paint0_linear_18322_27977" x1="194.09" y1="3.29085" x2="194.09" y2="116.358" gradientUnits="userSpaceOnUse">
<stop offset="0.09" stop-color="#AF6F57"/>
<stop offset="0.12" stop-color="#CA927A"/>
<stop offset="0.14" stop-color="#E0AD96"/>
<stop offset="0.17" stop-color="#F0C1AA"/>
<stop offset="0.2" stop-color="#F9CDB6"/>
<stop offset="0.22" stop-color="#FCD1BA"/>
<stop offset="0.26" stop-color="#F7CBB4"/>
<stop offset="0.32" stop-color="#EABBA3"/>
<stop offset="0.33" stop-color="#E6B69E"/>
<stop offset="0.34" stop-color="#E1AF97"/>
<stop offset="0.35" stop-color="#CD967C"/>
<stop offset="0.36" stop-color="#BD8166"/>
<stop offset="0.38" stop-color="#B17155"/>
<stop offset="0.41" stop-color="#A8654A"/>
<stop offset="0.44" stop-color="#A35F43"/>
<stop offset="0.53" stop-color="#A25D41"/>
<stop offset="0.59" stop-color="#BA7051"/>
<stop offset="0.66" stop-color="#D08160"/>
<stop offset="0.72" stop-color="#DD8C69"/>
<stop offset="0.79" stop-color="#DE8C6A"/>
<stop offset="0.81" stop-color="#C87B5B"/>
<stop offset="0.83" stop-color="#B76E4F"/>
<stop offset="0.86" stop-color="#AB6447"/>
<stop offset="0.89" stop-color="#A45F42"/>
<stop offset="0.99" stop-color="#A25D41"/>
</linearGradient>
<linearGradient id="paint1_linear_18322_27977" x1="225.403" y1="0.804227" x2="225.403" y2="118.121" gradientUnits="userSpaceOnUse">
<stop offset="0.09" stop-color="#AF6F57"/>
<stop offset="0.12" stop-color="#CA927A"/>
<stop offset="0.14" stop-color="#E0AD96"/>
<stop offset="0.17" stop-color="#F0C1AA"/>
<stop offset="0.2" stop-color="#F9CDB6"/>
<stop offset="0.22" stop-color="#FCD1BA"/>
<stop offset="0.26" stop-color="#F7CBB4"/>
<stop offset="0.32" stop-color="#EABBA3"/>
<stop offset="0.33" stop-color="#E6B69E"/>
<stop offset="0.34" stop-color="#E1AF97"/>
<stop offset="0.35" stop-color="#CD967C"/>
<stop offset="0.36" stop-color="#BD8166"/>
<stop offset="0.38" stop-color="#B17155"/>
<stop offset="0.41" stop-color="#A8654A"/>
<stop offset="0.44" stop-color="#A35F43"/>
<stop offset="0.53" stop-color="#A25D41"/>
<stop offset="0.59" stop-color="#BA7051"/>
<stop offset="0.66" stop-color="#D08160"/>
<stop offset="0.72" stop-color="#DD8C69"/>
<stop offset="0.79" stop-color="#DE8C6A"/>
<stop offset="0.81" stop-color="#C87B5B"/>
<stop offset="0.83" stop-color="#B76E4F"/>
<stop offset="0.86" stop-color="#AB6447"/>
<stop offset="0.89" stop-color="#A45F42"/>
<stop offset="0.99" stop-color="#A25D41"/>
</linearGradient>
<linearGradient id="paint2_linear_18322_27977" x1="79.9206" y1="-15.3722" x2="79.9206" y2="147.397" gradientUnits="userSpaceOnUse">
<stop offset="0.09" stop-color="#AF6F57"/>
<stop offset="0.12" stop-color="#CA927A"/>
<stop offset="0.14" stop-color="#E0AD96"/>
<stop offset="0.17" stop-color="#F0C1AA"/>
<stop offset="0.2" stop-color="#F9CDB6"/>
<stop offset="0.22" stop-color="#FCD1BA"/>
<stop offset="0.26" stop-color="#F7CBB4"/>
<stop offset="0.32" stop-color="#EABBA3"/>
<stop offset="0.33" stop-color="#E6B69E"/>
<stop offset="0.34" stop-color="#E1AF97"/>
<stop offset="0.35" stop-color="#CD967C"/>
<stop offset="0.36" stop-color="#BD8166"/>
<stop offset="0.38" stop-color="#B17155"/>
<stop offset="0.41" stop-color="#A8654A"/>
<stop offset="0.44" stop-color="#A35F43"/>
<stop offset="0.53" stop-color="#A25D41"/>
<stop offset="0.59" stop-color="#BA7051"/>
<stop offset="0.66" stop-color="#D08160"/>
<stop offset="0.72" stop-color="#DD8C69"/>
<stop offset="0.79" stop-color="#DE8C6A"/>
<stop offset="0.81" stop-color="#C87B5B"/>
<stop offset="0.83" stop-color="#B76E4F"/>
<stop offset="0.86" stop-color="#AB6447"/>
<stop offset="0.89" stop-color="#A45F42"/>
<stop offset="0.99" stop-color="#A25D41"/>
</linearGradient>
<linearGradient id="paint3_linear_18322_27977" x1="390.1" y1="-15.3722" x2="390.1" y2="147.397" gradientUnits="userSpaceOnUse">
<stop offset="0.09" stop-color="#AF6F57"/>
<stop offset="0.12" stop-color="#CA927A"/>
<stop offset="0.14" stop-color="#E0AD96"/>
<stop offset="0.17" stop-color="#F0C1AA"/>
<stop offset="0.2" stop-color="#F9CDB6"/>
<stop offset="0.22" stop-color="#FCD1BA"/>
<stop offset="0.26" stop-color="#F7CBB4"/>
<stop offset="0.32" stop-color="#EABBA3"/>
<stop offset="0.33" stop-color="#E6B69E"/>
<stop offset="0.34" stop-color="#E1AF97"/>
<stop offset="0.35" stop-color="#CD967C"/>
<stop offset="0.36" stop-color="#BD8166"/>
<stop offset="0.38" stop-color="#B17155"/>
<stop offset="0.41" stop-color="#A8654A"/>
<stop offset="0.44" stop-color="#A35F43"/>
<stop offset="0.53" stop-color="#A25D41"/>
<stop offset="0.59" stop-color="#BA7051"/>
<stop offset="0.66" stop-color="#D08160"/>
<stop offset="0.72" stop-color="#DD8C69"/>
<stop offset="0.79" stop-color="#DE8C6A"/>
<stop offset="0.81" stop-color="#C87B5B"/>
<stop offset="0.83" stop-color="#B76E4F"/>
<stop offset="0.86" stop-color="#AB6447"/>
<stop offset="0.89" stop-color="#A45F42"/>
<stop offset="0.99" stop-color="#A25D41"/>
</linearGradient>
</defs>
</svg>
