<svg width="72" height="23" viewBox="0 0 72 23" fill="none" xmlns="http://www.w3.org/2000/svg">
  <g id="a" clip-path="url(#clip0_1044_1743)">
    <path id="Vector"
      d="M8.86759 0H9.5077C11.7304 0.0474471 13.917 0.922013 15.4875 2.47078C14.9077 3.05008 14.3157 3.60566 13.748 4.18497C12.8661 3.40465 11.8031 2.80163 10.6434 2.58908C8.92787 2.2345 7.07962 2.55349 5.64216 3.51109C4.0717 4.51613 3.00867 6.21846 2.77903 8.03908C2.52548 9.83598 3.04471 11.7278 4.24073 13.1227C5.38828 14.4823 7.13989 15.3334 8.95211 15.3924C10.6434 15.487 12.4072 14.9785 13.6392 13.8199C14.6056 13.004 15.0528 11.7627 15.1976 10.557C13.1921 10.557 11.1869 10.5689 9.18142 10.557V8.12148H17.6257C18.0607 10.7343 17.4324 13.6779 15.403 15.546C14.05 16.87 12.1775 17.6503 10.2687 17.8042C8.42043 17.9815 6.51158 17.6388 4.86872 16.7639C2.89959 15.7355 1.32913 13.9975 0.556019 11.9522C-0.168934 10.0726 -0.180727 7.94451 0.495743 6.05272C1.11194 4.32667 2.29584 2.80163 3.81782 1.73759C5.27952 0.685739 7.05537 0.106435 8.86759 0Z"
      fill="#3780FF" />
    <path id="Vector_2"
      d="M57.3125 0.614746H59.8978V17.497C59.0402 17.497 58.1705 17.5088 57.3125 17.4851C57.3246 11.8693 57.3125 6.24204 57.3125 0.614746Z"
      fill="#38B137" />
    <path id="Vector_3"
      d="M23.3777 6.46668C24.9724 6.1711 26.6998 6.50227 28.0167 7.43614C29.2127 8.26358 30.0461 9.56421 30.3 10.9828C30.6262 12.6262 30.2154 14.4231 29.1282 15.7237C27.9564 17.1779 26.0354 17.9582 24.1633 17.8399C22.4477 17.7453 20.7806 16.906 19.766 15.5345C18.6185 14.0214 18.3407 11.9404 18.9687 10.1672C19.597 8.2639 21.3729 6.80971 23.378 6.46668M23.7403 8.71305C23.0881 8.87847 22.484 9.24491 22.049 9.76522C20.8772 11.1367 20.9496 13.3709 22.2423 14.6478C22.9793 15.3807 24.0905 15.7237 25.1175 15.5227C26.0718 15.3573 26.9055 14.7305 27.3644 13.9031C28.1618 12.4963 27.9322 10.5574 26.7122 9.45778C25.927 8.74831 24.7794 8.45273 23.7403 8.71305Z"
      fill="#FA3913" />
    <path id="Vector_4"
      d="M36.1792 6.46703C38.0032 6.12432 39.9966 6.62059 41.3617 7.87377C43.5844 9.82456 43.8261 13.4777 41.9294 15.7237C40.7818 17.1423 38.9215 17.9226 37.085 17.8399C35.3334 17.7925 33.6057 16.9413 32.5669 15.5346C31.3951 13.9858 31.1416 11.8577 31.8059 10.049C32.4703 8.20462 34.2101 6.79788 36.1789 6.46671M36.5412 8.71308C35.889 8.8785 35.2849 9.24493 34.8499 9.75339C33.6902 11.1011 33.7384 13.3001 34.9829 14.5888C35.7199 15.3573 36.8675 15.7356 37.9305 15.5227C38.8727 15.3454 39.7185 14.7305 40.1774 13.9031C40.9627 12.4845 40.733 10.5456 39.501 9.44594C38.7157 8.73648 37.5682 8.45276 36.5412 8.71308Z"
      fill="#FCBD06" />
    <path id="Vector_5"
      d="M47.0427 7.15266C48.432 6.30149 50.2803 6.0649 51.7783 6.79809C52.2494 6.99909 52.6359 7.3418 53.0104 7.68483C53.0225 7.36553 53.0104 7.03468 53.0225 6.70351C53.832 6.71537 54.6414 6.70351 55.4627 6.71537V17.1428C55.4506 18.7153 55.0398 20.3821 53.8801 21.5288C52.6117 22.7939 50.6668 23.184 48.9152 22.9237C47.0427 22.6518 45.412 21.3159 44.687 19.6252C45.412 19.2825 46.173 19.0103 46.9218 18.6913C47.3447 19.6607 48.2024 20.4882 49.2775 20.6773C50.3527 20.8665 51.5968 20.6065 52.2975 19.7316C53.0464 18.833 53.0464 17.6035 53.0104 16.5042C52.4548 17.0361 51.8144 17.5093 51.0412 17.6866C49.362 18.1476 47.5138 17.5801 46.2211 16.469C44.9163 15.3578 44.1432 13.6433 44.2156 11.941C44.252 10.0139 45.3632 8.1577 47.0424 7.15298M49.5432 8.66616C48.8061 8.78445 48.1178 9.18647 47.6464 9.74205C46.511 11.0661 46.511 13.1823 47.6586 14.4829C48.3108 15.2514 49.362 15.6771 50.3766 15.5707C51.3308 15.4761 52.2127 14.8849 52.6841 14.0694C53.4815 12.686 53.3485 10.8064 52.2733 9.60035C51.609 8.85562 50.5459 8.48919 49.5432 8.66648V8.66616Z"
      fill="#3780FF" />
    <path id="Vector_6"
      d="M63.0032 7.75522C64.4527 6.43119 66.6876 5.98173 68.5483 6.67933C70.312 7.32948 71.4356 8.97282 72.0033 10.6636C69.382 11.7276 66.7724 12.7798 64.151 13.8438C64.5133 14.5177 65.0693 15.1326 65.8181 15.3807C66.869 15.7472 68.1257 15.6173 69.0075 14.9316C69.3577 14.6716 69.6358 14.3286 69.9015 13.9977C70.5659 14.435 71.2302 14.8608 71.8949 15.298C70.9528 16.6814 69.3702 17.6508 67.6667 17.8044C65.7821 18.0291 63.7769 17.3197 62.5567 15.8773C60.5512 13.6076 60.7444 9.80058 63.0035 7.75522M64.2962 9.94228C63.8854 10.5216 63.7163 11.231 63.7284 11.9283C65.4801 11.2189 67.2317 10.5097 68.9836 9.7884C68.6937 9.12638 67.993 8.72436 67.2802 8.61793C66.1326 8.41692 64.9366 9.01995 64.2962 9.94196V9.94228Z"
      fill="#FA3913" />
  </g>
  <defs>
    <clipPath id="clip0_1044_1743">
      <rect width="72" height="23" fill="white" />
    </clipPath>
  </defs>
</svg>