<svg width="12" height="13" viewBox="0 0 12 13" fill="none" xmlns="http://www.w3.org/2000/svg">
  <g id="marker 2" clip-path="url(#clip0_1044_898)">
    <g id="_01_align_center">
      <path id="Vector"
        d="M5.97763 12.5033L5.62909 12.2045C5.1486 11.8022 0.953125 8.17882 0.953125 5.52841C0.953125 2.75346 3.20268 0.503906 5.97763 0.503906C8.75259 0.503906 11.0021 2.75346 11.0021 5.52841C11.0021 8.17884 6.80666 11.8022 6.32816 12.2065L5.97763 12.5033ZM5.97763 1.59035C3.80373 1.59281 2.04205 3.35449 2.03959 5.52839C2.03959 7.19344 4.62081 9.85331 5.97763 11.0707C7.33448 9.85282 9.91567 7.19142 9.91567 5.52839C9.91321 3.35449 8.15156 1.59284 5.97763 1.59035Z"
        fill="#706F6F" />
      <path id="Vector_2"
        d="M5.97605 7.52045C4.87608 7.52045 3.98438 6.62875 3.98438 5.52878C3.98438 4.42881 4.87608 3.53711 5.97605 3.53711C7.07602 3.53711 7.96772 4.42881 7.96772 5.52878C7.96772 6.62875 7.07604 7.52045 5.97605 7.52045ZM5.97605 4.53292C5.42606 4.53292 4.98021 4.97877 4.98021 5.52876C4.98021 6.07874 5.42606 6.52459 5.97605 6.52459C6.52603 6.52459 6.97188 6.07874 6.97188 5.52876C6.97188 4.97877 6.52605 4.53292 5.97605 4.53292Z"
        fill="#706F6F" />
    </g>
  </g>
  <defs>
    <clipPath id="clip0_1044_898">
      <rect width="12" height="12" fill="white" transform="translate(0 0.5)" />
    </clipPath>
  </defs>
</svg>